<?xml version="1.0" encoding="utf-8" standalone="no"?>
<!DOCTYPE svg PUBLIC "-//W3C//DTD SVG 1.1//EN" "http://www.w3.org/Graphics/SVG/1.1/DTD/svg11.dtd">
<svg width="3000px" height="3000px" version="1.1" xmlns="http://www.w3.org/2000/svg" xmlns:xlink="http://www.w3.org/1999/xlink">
<g id="bg">
<rect x="0" y="0" width="3000px" height="3000px" style="fill:rgb(255,255,255);"/>
</g>
<g id="ideograms">
<path d="M1500.000,180.000 A1320.000,1320.000 40.000 1,1 1499.562,180.000 L1499.552,150.000 A1350.000,1350.000 0.000 1,0 1500.000,150.000 Z" style="stroke-linecap:round;fill:rgb(115,115,115);" />
<line x1='1500.0' y1='150.0' x2='1500.0' y2='140.0' style="stroke-width:1.0;stroke:rgb(0,0,0);stroke-linecap:round;fill:none;" />
<text x="1510.0" y="140.0" font-size="26.0px" font-family="CMUBright-Roman" style="text-anchor:start;fill:rgb(0,0,0);" transform="rotate(270.0,1510.0,140.0)" >0</text>
<line x1='1686.7' y1='163.0' x2='1688.1' y2='153.1' style="stroke-width:1.0;stroke:rgb(0,0,0);stroke-linecap:round;fill:none;" />
<text x="1698.0" y="154.5" font-size="26.0px" font-family="CMUBright-Roman" style="text-anchor:start;fill:rgb(0,0,0);" transform="rotate(278.0,1698.0,154.5)" >100000</text>
<line x1='1869.9' y1='201.7' x2='1872.6' y2='192.0' style="stroke-width:1.0;stroke:rgb(0,0,0);stroke-linecap:round;fill:none;" />
<text x="1882.2" y="194.8" font-size="26.0px" font-family="CMUBright-Roman" style="text-anchor:start;fill:rgb(0,0,0);" transform="rotate(285.9,1882.2,194.8)" >200000</text>
<line x1='2045.9' y1='265.3' x2='2049.9' y2='256.1' style="stroke-width:1.0;stroke:rgb(0,0,0);stroke-linecap:round;fill:none;" />
<text x="2059.0" y="260.2" font-size="26.0px" font-family="CMUBright-Roman" style="text-anchor:start;fill:rgb(0,0,0);" transform="rotate(293.9,2059.0,260.2)" >300000</text>
<line x1='2211.4' y1='352.7' x2='2216.7' y2='344.2' style="stroke-width:1.0;stroke:rgb(0,0,0);stroke-linecap:round;fill:none;" />
<text x="2225.1" y="349.5" font-size="26.0px" font-family="CMUBright-Roman" style="text-anchor:start;fill:rgb(0,0,0);" transform="rotate(301.8,2225.1,349.5)" >400000</text>
<line x1='2363.3' y1='462.1' x2='2369.6' y2='454.4' style="stroke-width:1.0;stroke:rgb(0,0,0);stroke-linecap:round;fill:none;" />
<text x="2377.3" y="460.8" font-size="26.0px" font-family="CMUBright-Roman" style="text-anchor:start;fill:rgb(0,0,0);" transform="rotate(309.8,2377.3,460.8)" >500000</text>
<line x1='2498.5' y1='591.4' x2='2505.9' y2='584.7' style="stroke-width:1.0;stroke:rgb(0,0,0);stroke-linecap:round;fill:none;" />
<text x="2512.6" y="592.1" font-size="26.0px" font-family="CMUBright-Roman" style="text-anchor:start;fill:rgb(0,0,0);" transform="rotate(317.7,2512.6,592.1)" >600000</text>
<line x1='2614.6' y1='738.3' x2='2622.8' y2='732.6' style="stroke-width:1.0;stroke:rgb(0,0,0);stroke-linecap:round;fill:none;" />
<text x="2628.4" y="740.9" font-size="26.0px" font-family="CMUBright-Roman" style="text-anchor:start;fill:rgb(0,0,0);" transform="rotate(325.7,2628.4,740.9)" >700000</text>
<line x1='2709.2' y1='899.8' x2='2718.2' y2='895.3' style="stroke-width:1.0;stroke:rgb(0,0,0);stroke-linecap:round;fill:none;" />
<text x="2722.6" y="904.3" font-size="26.0px" font-family="CMUBright-Roman" style="text-anchor:start;fill:rgb(0,0,0);" transform="rotate(333.6,2722.6,904.3)" >800000</text>
<line x1='2780.6' y1='1072.8' x2='2790.1' y2='1069.6' style="stroke-width:1.0;stroke:rgb(0,0,0);stroke-linecap:round;fill:none;" />
<text x="2793.2" y="1079.1" font-size="26.0px" font-family="CMUBright-Roman" style="text-anchor:start;fill:rgb(0,0,0);" transform="rotate(341.6,2793.2,1079.1)" >900000</text>
<line x1='2827.4' y1='1254.0' x2='2837.2' y2='1252.2' style="stroke-width:1.0;stroke:rgb(0,0,0);stroke-linecap:round;fill:none;" />
<text x="2839.0" y="1262.0" font-size="26.0px" font-family="CMUBright-Roman" style="text-anchor:start;fill:rgb(0,0,0);" transform="rotate(349.5,2839.0,1262.0)" >1000000</text>
<line x1='2848.7' y1='1440.0' x2='2858.7' y2='1439.5' style="stroke-width:1.0;stroke:rgb(0,0,0);stroke-linecap:round;fill:none;" />
<text x="2859.1" y="1449.5" font-size="26.0px" font-family="CMUBright-Roman" style="text-anchor:start;fill:rgb(0,0,0);" transform="rotate(357.5,2859.1,1449.5)" >1100000</text>
<line x1='2844.0' y1='1627.1' x2='2854.0' y2='1628.0' style="stroke-width:1.0;stroke:rgb(0,0,0);stroke-linecap:round;fill:none;" />
<text x="2853.0" y="1638.0" font-size="26.0px" font-family="CMUBright-Roman" style="text-anchor:start;fill:rgb(0,0,0);" transform="rotate(5.4,2853.0,1638.0)" >1200000</text>
<line x1='2813.5' y1='1811.8' x2='2823.2' y2='1814.1' style="stroke-width:1.0;stroke:rgb(0,0,0);stroke-linecap:round;fill:none;" />
<text x="2820.9" y="1823.8" font-size="26.0px" font-family="CMUBright-Roman" style="text-anchor:start;fill:rgb(0,0,0);" transform="rotate(13.4,2820.9,1823.8)" >1300000</text>
<line x1='2757.8' y1='1990.4' x2='2767.1' y2='1994.1' style="stroke-width:1.0;stroke:rgb(0,0,0);stroke-linecap:round;fill:none;" />
<text x="2763.4" y="2003.4" font-size="26.0px" font-family="CMUBright-Roman" style="text-anchor:start;fill:rgb(0,0,0);" transform="rotate(21.3,2763.4,2003.4)" >1400000</text>
<line x1='2677.8' y1='2159.7' x2='2686.6' y2='2164.6' style="stroke-width:1.0;stroke:rgb(0,0,0);stroke-linecap:round;fill:none;" />
<text x="2681.7" y="2173.3" font-size="26.0px" font-family="CMUBright-Roman" style="text-anchor:start;fill:rgb(0,0,0);" transform="rotate(29.3,2681.7,2173.3)" >1500000</text>
<line x1='2575.3' y1='2316.2' x2='2583.3' y2='2322.3' style="stroke-width:1.0;stroke:rgb(0,0,0);stroke-linecap:round;fill:none;" />
<text x="2577.2" y="2330.2" font-size="26.0px" font-family="CMUBright-Roman" style="text-anchor:start;fill:rgb(0,0,0);" transform="rotate(37.2,2577.2,2330.2)" >1600000</text>
<line x1='2452.1' y1='2457.1' x2='2459.1' y2='2464.2' style="stroke-width:1.0;stroke:rgb(0,0,0);stroke-linecap:round;fill:none;" />
<text x="2452.0" y="2471.2" font-size="26.0px" font-family="CMUBright-Roman" style="text-anchor:start;fill:rgb(0,0,0);" transform="rotate(45.2,2452.0,2471.2)" >1700000</text>
<line x1='2310.5' y1='2579.6' x2='2316.5' y2='2587.6' style="stroke-width:1.0;stroke:rgb(0,0,0);stroke-linecap:round;fill:none;" />
<text x="2308.5" y="2593.6" font-size="26.0px" font-family="CMUBright-Roman" style="text-anchor:start;fill:rgb(0,0,0);" transform="rotate(53.1,2308.5,2593.6)" >1800000</text>
<line x1='2153.4' y1='2681.3' x2='2158.3' y2='2690.1' style="stroke-width:1.0;stroke:rgb(0,0,0);stroke-linecap:round;fill:none;" />
<text x="2149.5" y="2694.9" font-size="26.0px" font-family="CMUBright-Roman" style="text-anchor:start;fill:rgb(0,0,0);" transform="rotate(61.1,2149.5,2694.9)" >1900000</text>
<line x1='1983.7' y1='2760.4' x2='1987.3' y2='2769.7' style="stroke-width:1.0;stroke:rgb(0,0,0);stroke-linecap:round;fill:none;" />
<text x="1978.0" y="2773.2" font-size="26.0px" font-family="CMUBright-Roman" style="text-anchor:start;fill:rgb(0,0,0);" transform="rotate(69.0,1978.0,2773.2)" >2000000</text>
<line x1='1804.8' y1='2815.1' x2='1807.0' y2='2824.9' style="stroke-width:1.0;stroke:rgb(0,0,0);stroke-linecap:round;fill:none;" />
<text x="1797.3" y="2827.1" font-size="26.0px" font-family="CMUBright-Roman" style="text-anchor:start;fill:rgb(0,0,0);" transform="rotate(77.0,1797.3,2827.1)" >2100000</text>
<line x1='1619.9' y1='2844.7' x2='1620.8' y2='2854.6' style="stroke-width:1.0;stroke:rgb(0,0,0);stroke-linecap:round;fill:none;" />
<text x="1610.9" y="2855.5" font-size="26.0px" font-family="CMUBright-Roman" style="text-anchor:start;fill:rgb(0,0,0);" transform="rotate(84.9,1610.9,2855.5)" >2200000</text>
<line x1='1432.8' y1='2848.3' x2='1432.3' y2='2858.3' style="stroke-width:1.0;stroke:rgb(0,0,0);stroke-linecap:round;fill:none;" />
<text x="1442.3" y="2858.8" font-size="26.0px" font-family="CMUBright-Roman" style="text-anchor:end;fill:rgb(0,0,0);" transform="rotate(-87.1,1442.3,2858.8)" >2300000</text>
<line x1='1247.0' y1='2826.1' x2='1245.1' y2='2835.9' style="stroke-width:1.0;stroke:rgb(0,0,0);stroke-linecap:round;fill:none;" />
<text x="1254.9" y="2837.7" font-size="26.0px" font-family="CMUBright-Roman" style="text-anchor:end;fill:rgb(0,0,0);" transform="rotate(-79.2,1254.9,2837.7)" >2400000</text>
<line x1='1066.0' y1='2778.3' x2='1062.8' y2='2787.8' style="stroke-width:1.0;stroke:rgb(0,0,0);stroke-linecap:round;fill:none;" />
<text x="1072.3" y="2791.0" font-size="26.0px" font-family="CMUBright-Roman" style="text-anchor:end;fill:rgb(0,0,0);" transform="rotate(-71.2,1072.3,2791.0)" >2500000</text>
<line x1='893.4' y1='2706.0' x2='888.9' y2='2715.0' style="stroke-width:1.0;stroke:rgb(0,0,0);stroke-linecap:round;fill:none;" />
<text x="897.8" y="2719.4" font-size="26.0px" font-family="CMUBright-Roman" style="text-anchor:end;fill:rgb(0,0,0);" transform="rotate(-63.3,897.8,2719.4)" >2600000</text>
<line x1='732.4' y1='2610.5' x2='726.7' y2='2618.7' style="stroke-width:1.0;stroke:rgb(0,0,0);stroke-linecap:round;fill:none;" />
<text x="734.9" y="2624.4" font-size="26.0px" font-family="CMUBright-Roman" style="text-anchor:end;fill:rgb(0,0,0);" transform="rotate(-55.3,734.9,2624.4)" >2700000</text>
<line x1='586.2' y1='2493.7' x2='579.4' y2='2501.0' style="stroke-width:1.0;stroke:rgb(0,0,0);stroke-linecap:round;fill:none;" />
<text x="586.8" y="2507.8" font-size="26.0px" font-family="CMUBright-Roman" style="text-anchor:end;fill:rgb(0,0,0);" transform="rotate(-47.4,586.8,2507.8)" >2800000</text>
<line x1='457.5' y1='2357.7' x2='449.8' y2='2364.1' style="stroke-width:1.0;stroke:rgb(0,0,0);stroke-linecap:round;fill:none;" />
<text x="456.2" y="2371.8" font-size="26.0px" font-family="CMUBright-Roman" style="text-anchor:end;fill:rgb(0,0,0);" transform="rotate(-39.4,456.2,2371.8)" >2900000</text>
<line x1='348.9' y1='2205.3' x2='340.4' y2='2210.5' style="stroke-width:1.0;stroke:rgb(0,0,0);stroke-linecap:round;fill:none;" />
<text x="345.6" y="2219.0" font-size="26.0px" font-family="CMUBright-Roman" style="text-anchor:end;fill:rgb(0,0,0);" transform="rotate(-31.5,345.6,2219.0)" >3000000</text>
<line x1='262.4' y1='2039.3' x2='253.2' y2='2043.3' style="stroke-width:1.0;stroke:rgb(0,0,0);stroke-linecap:round;fill:none;" />
<text x="257.3" y="2052.5" font-size="26.0px" font-family="CMUBright-Roman" style="text-anchor:end;fill:rgb(0,0,0);" transform="rotate(-23.5,257.3,2052.5)" >3100000</text>
<line x1='199.7' y1='1863.0' x2='190.1' y2='1865.6' style="stroke-width:1.0;stroke:rgb(0,0,0);stroke-linecap:round;fill:none;" />
<text x="192.8" y="1875.3" font-size="26.0px" font-family="CMUBright-Roman" style="text-anchor:end;fill:rgb(0,0,0);" transform="rotate(-15.6,192.8,1875.3)" >3200000</text>
<line x1='162.0' y1='1679.6' x2='152.1' y2='1680.9' style="stroke-width:1.0;stroke:rgb(0,0,0);stroke-linecap:round;fill:none;" />
<text x="153.5" y="1690.9" font-size="26.0px" font-family="CMUBright-Roman" style="text-anchor:end;fill:rgb(0,0,0);" transform="rotate(-7.6,153.5,1690.9)" >3300000</text>
<line x1='150.0' y1='1492.8' x2='140.0' y2='1492.8' style="stroke-width:1.0;stroke:rgb(0,0,0);stroke-linecap:round;fill:none;" />
<text x="140.0" y="1502.8" font-size="26.0px" font-family="CMUBright-Roman" style="text-anchor:end;fill:rgb(0,0,0);" transform="rotate(0.3,140.0,1502.8)" >3400000</text>
<line x1='164.0' y1='1306.2' x2='154.1' y2='1304.7' style="stroke-width:1.0;stroke:rgb(0,0,0);stroke-linecap:round;fill:none;" />
<text x="152.7" y="1314.6" font-size="26.0px" font-family="CMUBright-Roman" style="text-anchor:end;fill:rgb(0,0,0);" transform="rotate(8.3,152.7,1314.6)" >3500000</text>
<line x1='203.6' y1='1123.3' x2='194.0' y2='1120.5' style="stroke-width:1.0;stroke:rgb(0,0,0);stroke-linecap:round;fill:none;" />
<text x="191.3" y="1130.1" font-size="26.0px" font-family="CMUBright-Roman" style="text-anchor:end;fill:rgb(0,0,0);" transform="rotate(16.2,191.3,1130.1)" >3600000</text>
<line x1='268.2' y1='947.6' x2='259.1' y2='943.5' style="stroke-width:1.0;stroke:rgb(0,0,0);stroke-linecap:round;fill:none;" />
<text x="255.0" y="952.6" font-size="26.0px" font-family="CMUBright-Roman" style="text-anchor:end;fill:rgb(0,0,0);" transform="rotate(24.2,255.0,952.6)" >3700000</text>
<line x1='356.4' y1='782.5' x2='348.0' y2='777.2' style="stroke-width:1.0;stroke:rgb(0,0,0);stroke-linecap:round;fill:none;" />
<text x="342.7" y="785.7" font-size="26.0px" font-family="CMUBright-Roman" style="text-anchor:end;fill:rgb(0,0,0);" transform="rotate(32.1,342.7,785.7)" >3800000</text>
<line x1='466.7' y1='631.2' x2='459.0' y2='624.8' style="stroke-width:1.0;stroke:rgb(0,0,0);stroke-linecap:round;fill:none;" />
<text x="452.6" y="632.5" font-size="26.0px" font-family="CMUBright-Roman" style="text-anchor:end;fill:rgb(0,0,0);" transform="rotate(40.1,452.6,632.5)" >3900000</text>
<line x1='596.8' y1='496.7' x2='590.1' y2='489.2' style="stroke-width:1.0;stroke:rgb(0,0,0);stroke-linecap:round;fill:none;" />
<text x="582.7" y="496.0" font-size="26.0px" font-family="CMUBright-Roman" style="text-anchor:end;fill:rgb(0,0,0);" transform="rotate(48.0,582.7,496.0)" >4000000</text>
<line x1='744.2' y1='381.4' x2='738.6' y2='373.1' style="stroke-width:1.0;stroke:rgb(0,0,0);stroke-linecap:round;fill:none;" />
<text x="730.3" y="378.7" font-size="26.0px" font-family="CMUBright-Roman" style="text-anchor:end;fill:rgb(0,0,0);" transform="rotate(56.0,730.3,378.7)" >4100000</text>
<line x1='906.2' y1='287.6' x2='901.8' y2='278.6' style="stroke-width:1.0;stroke:rgb(0,0,0);stroke-linecap:round;fill:none;" />
<text x="892.8" y="283.1" font-size="26.0px" font-family="CMUBright-Roman" style="text-anchor:end;fill:rgb(0,0,0);" transform="rotate(63.9,892.8,283.1)" >4200000</text>
<line x1='1079.6' y1='217.1' x2='1076.5' y2='207.6' style="stroke-width:1.0;stroke:rgb(0,0,0);stroke-linecap:round;fill:none;" />
<text x="1067.0" y="210.8" font-size="26.0px" font-family="CMUBright-Roman" style="text-anchor:end;fill:rgb(0,0,0);" transform="rotate(71.9,1067.0,210.8)" >4300000</text>
<line x1='1261.1' y1='171.3' x2='1259.3' y2='161.5' style="stroke-width:1.0;stroke:rgb(0,0,0);stroke-linecap:round;fill:none;" />
<text x="1249.5" y="163.3" font-size="26.0px" font-family="CMUBright-Roman" style="text-anchor:end;fill:rgb(0,0,0);" transform="rotate(79.8,1249.5,163.3)" >4400000</text>
<line x1='1447.1' y1='151.0' x2='1446.7' y2='141.0' style="stroke-width:1.0;stroke:rgb(0,0,0);stroke-linecap:round;fill:none;" />
<text x="1436.7" y="141.5" font-size="26.0px" font-family="CMUBright-Roman" style="text-anchor:end;fill:rgb(0,0,0);" transform="rotate(87.8,1436.7,141.5)" >4500000</text>
</g>
<g id="plot0">
<g id="plot0-axis">
</g>
<path d="M2392.384,715.784 A1188.000,1188.000 40.000 1,1 1268.786,334.717 L1279.062,386.508 A1135.200,1135.200 0.000 1,0 2352.723,750.638 Z" style="stroke-width:1.0;stroke:rgb(0,0,0);stroke-linecap:round;fill:rgb(0,0,0);" />
<path d="M1500.000,312.000 A1188.000,1188.000 40.000 0,1 2375.312,696.773 L2336.409,732.472 A1135.200,1135.200 0.000 0,0 1500.000,364.800 Z" style="stroke-width:1.0;stroke:rgb(0,0,0);stroke-linecap:round;fill:rgb(0,0,0);" />
<path d="M1382.705,317.805 A1188.000,1188.000 40.000 0,1 1499.813,312.000 L1499.822,364.800 A1135.200,1135.200 0.000 0,0 1387.918,370.347 Z" style="stroke-width:1.0;stroke:rgb(0,0,0);stroke-linecap:round;fill:rgb(0,0,0);" />
<path d="M1321.886,325.428 A1188.000,1188.000 40.000 0,1 1368.518,319.298 L1374.362,371.774 A1135.200,1135.200 0.000 0,0 1329.802,377.631 Z" style="stroke-width:1.0;stroke:rgb(0,0,0);stroke-linecap:round;fill:rgb(0,0,0);" />
<path d="M1276.573,333.199 A1188.000,1188.000 40.000 0,1 1293.711,330.048 L1302.879,382.045 A1135.200,1135.200 0.000 0,0 1286.503,385.057 Z" style="stroke-width:1.0;stroke:rgb(0,0,0);stroke-linecap:round;fill:rgb(0,0,0);" />
</g>
<g id="plot1">
<g id="plot1-axis">
</g>
<path d="M1927.527,2480.005 A1069.200,1069.200 40.000 0,1 1895.634,2493.309 L1915.171,2542.361 A1122.000,1122.000 0.000 0,0 1948.639,2528.400 Z" style="stroke-width:1.0;stroke:rgb(0,0,0);stroke-linecap:round;fill:rgb(0,0,0);" />
<path d="M1315.937,446.762 A1069.200,1069.200 40.000 0,1 1338.857,443.013 L1330.899,390.816 A1122.000,1122.000 0.000 0,0 1306.847,394.751 Z" style="stroke-width:1.0;stroke:rgb(0,0,0);stroke-linecap:round;fill:rgb(0,0,0);" />
<path d="M2288.389,777.760 A1069.200,1069.200 40.000 0,1 2302.549,793.527 L2342.181,758.640 A1122.000,1122.000 0.000 0,0 2327.322,742.093 Z" style="stroke-width:1.0;stroke:rgb(0,0,0);stroke-linecap:round;fill:rgb(0,0,0);" />
<path d="M1382.513,437.275 A1069.200,1069.200 40.000 0,1 1393.537,436.114 L1388.279,383.576 A1122.000,1122.000 0.000 0,0 1376.711,384.794 Z" style="stroke-width:1.0;stroke:rgb(0,0,0);stroke-linecap:round;fill:rgb(0,0,0);" />
<path d="M1292.259,451.176 A1069.200,1069.200 40.000 0,1 1298.605,449.939 L1288.660,398.084 A1122.000,1122.000 0.000 0,0 1282.000,399.382 Z" style="stroke-width:1.0;stroke:rgb(0,0,0);stroke-linecap:round;fill:rgb(0,0,0);" />
<path d="M2374.875,885.361 A1069.200,1069.200 40.000 0,1 2375.800,886.678 L2419.049,856.391 A1122.000,1122.000 0.000 0,0 2418.079,855.008 Z" style="stroke-width:1.0;stroke:rgb(0,0,0);stroke-linecap:round;fill:rgb(0,0,0);" />
</g>
<g id="plot2">
<g id="plot2-axis">
</g>
<path d="M959.472,734.380 A937.200,937.200 40.000 0,1 1317.613,580.718 L1307.338,528.928 A990.000,990.000 0.000 0,0 929.020,691.247 Z" style="stroke-width:1.0;stroke:rgb(0,0,0);stroke-linecap:round;fill:rgb(0,0,0);" />
<path d="M1359.489,573.393 A937.200,937.200 40.000 0,1 1396.277,568.557 L1390.433,516.082 A990.000,990.000 0.000 0,0 1351.573,521.190 Z" style="stroke-width:1.0;stroke:rgb(0,0,0);stroke-linecap:round;fill:rgb(0,0,0);" />
<path d="M1323.741,579.524 A937.200,937.200 40.000 0,1 1337.924,576.921 L1328.793,524.916 A990.000,990.000 0.000 0,0 1313.811,527.666 Z" style="stroke-width:1.0;stroke:rgb(0,0,0);stroke-linecap:round;fill:rgb(0,0,0);" />
</g>
<g id="plot3">
<g id="plot3-axis">
</g>
<path d="M1500.000,615.600 A884.400,884.400 40.000 1,1 990.016,777.449 L959.569,734.312 A937.200,937.200 0.000 1,0 1500.000,562.800 Z" style="stroke-width:1.0;stroke:rgb(0,0,0);stroke-linecap:round;fill:rgb(0,0,0);" />
<path d="M1417.928,619.416 A884.400,884.400 40.000 0,1 1499.861,615.600 L1499.853,562.800 A937.200,937.200 0.000 0,0 1413.028,566.844 Z" style="stroke-width:1.0;stroke:rgb(0,0,0);stroke-linecap:round;fill:rgb(0,0,0);" />
<path d="M1347.750,628.803 A884.400,884.400 40.000 0,1 1366.709,625.702 L1358.751,573.505 A937.200,937.200 0.000 0,0 1338.661,576.792 Z" style="stroke-width:1.0;stroke:rgb(0,0,0);stroke-linecap:round;fill:rgb(0,0,0);" />
<path d="M1402.818,620.956 A884.400,884.400 40.000 0,1 1411.937,619.995 L1406.679,567.458 A937.200,937.200 0.000 0,0 1397.016,568.475 Z" style="stroke-width:1.0;stroke:rgb(0,0,0);stroke-linecap:round;fill:rgb(0,0,0);" />
<path d="M1328.167,632.453 A884.400,884.400 40.000 0,1 1333.415,631.431 L1323.470,579.576 A937.200,937.200 0.000 0,0 1317.909,580.660 Z" style="stroke-width:1.0;stroke:rgb(0,0,0);stroke-linecap:round;fill:rgb(0,0,0);" />
</g>
<g id="plot4">
<g id="plot4-axis">
</g>
<path d="M2193.475,1592.373 A699.600,699.600 40.000 0,1 1716.198,2165.356 L1732.514,2215.572 A752.400,752.400 0.000 0,0 2245.813,1599.344 Z" style="stroke-width:1.0;stroke:rgb(0,0,0);stroke-linecap:round;fill:rgb(0,0,0);" />
<path d="M1059.445,2043.462 A699.600,699.600 40.000 0,1 820.603,1666.911 L769.327,1679.508 A752.400,752.400 0.000 0,0 1026.195,2084.478 Z" style="stroke-width:1.0;stroke:rgb(0,0,0);stroke-linecap:round;fill:rgb(0,0,0);" />
<path d="M813.972,1637.136 A699.600,699.600 40.000 0,1 812.542,1370.224 L760.659,1360.429 A752.400,752.400 0.000 0,0 762.197,1647.485 Z" style="stroke-width:1.0;stroke:rgb(0,0,0);stroke-linecap:round;fill:rgb(0,0,0);" />
<path d="M1731.649,839.864 A699.600,699.600 40.000 0,1 1930.551,948.578 L1963.045,906.961 A752.400,752.400 0.000 0,0 1749.132,790.043 Z" style="stroke-width:1.0;stroke:rgb(0,0,0);stroke-linecap:round;fill:rgb(0,0,0);" />
<path d="M1500.000,800.400 A699.600,699.600 40.000 0,1 1718.139,835.278 L1734.602,785.110 A752.400,752.400 0.000 0,0 1500.000,747.600 Z" style="stroke-width:1.0;stroke:rgb(0,0,0);stroke-linecap:round;fill:rgb(0,0,0);" />
<path d="M1699.328,2170.603 A699.600,699.600 40.000 0,1 1593.468,2193.328 L1600.522,2245.655 A752.400,752.400 0.000 0,0 1714.371,2221.215 Z" style="stroke-width:1.0;stroke:rgb(0,0,0);stroke-linecap:round;fill:rgb(0,0,0);" />
<path d="M2025.472,1038.135 A699.600,699.600 40.000 0,1 2072.341,1097.674 L2115.537,1067.310 A752.400,752.400 0.000 0,0 2065.130,1003.277 Z" style="stroke-width:1.0;stroke:rgb(0,0,0);stroke-linecap:round;fill:rgb(0,0,0);" />
<path d="M1430.967,803.814 A699.600,699.600 40.000 0,1 1499.890,800.400 L1499.882,747.600 A752.400,752.400 0.000 0,0 1425.757,751.272 Z" style="stroke-width:1.0;stroke:rgb(0,0,0);stroke-linecap:round;fill:rgb(0,0,0);" />
<path d="M1996.381,1007.003 A699.600,699.600 40.000 0,1 2015.923,1027.492 L2054.860,991.831 A752.400,752.400 0.000 0,0 2033.844,969.796 Z" style="stroke-width:1.0;stroke:rgb(0,0,0);stroke-linecap:round;fill:rgb(0,0,0);" />
<path d="M1395.112,808.307 A699.600,699.600 40.000 0,1 1422.573,804.698 L1416.729,752.222 A752.400,752.400 0.000 0,0 1387.196,756.104 Z" style="stroke-width:1.0;stroke:rgb(0,0,0);stroke-linecap:round;fill:rgb(0,0,0);" />
<path d="M1378.921,810.957 A699.600,699.600 40.000 0,1 1390.150,809.078 L1381.859,756.933 A752.400,752.400 0.000 0,0 1369.783,758.954 Z" style="stroke-width:1.0;stroke:rgb(0,0,0);stroke-linecap:round;fill:rgb(0,0,0);" />
<path d="M1364.072,813.732 A699.600,699.600 40.000 0,1 1368.224,812.923 L1358.279,761.068 A752.400,752.400 0.000 0,0 1353.813,761.938 Z" style="stroke-width:1.0;stroke:rgb(0,0,0);stroke-linecap:round;fill:rgb(0,0,0);" />
<path d="M2073.475,1099.293 A699.600,699.600 40.000 0,1 2075.846,1102.707 L2119.306,1072.723 A752.400,752.400 0.000 0,0 2116.757,1069.051 Z" style="stroke-width:1.0;stroke:rgb(0,0,0);stroke-linecap:round;fill:rgb(0,0,0);" />
<path d="M816.950,1348.729 A699.600,699.600 40.000 0,1 816.981,1348.588 L765.433,1337.161 A752.400,752.400 0.000 0,0 765.399,1337.313 Z" style="stroke-width:1.0;stroke:rgb(0,0,0);stroke-linecap:round;fill:rgb(0,0,0);" />
</g>
<g id="plot5">
<g id="plot5-axis">
</g>
<path d="M864.521,1379.513 A646.800,646.800 40.000 0,1 1271.687,894.836 L1253.049,845.435 A699.600,699.600 0.000 0,0 812.646,1369.677 Z" style="stroke-width:1.0;stroke:rgb(0,0,0);stroke-linecap:round;fill:rgb(0,0,0);" />
<path d="M1586.303,2141.016 A646.800,646.800 40.000 0,1 1092.790,2002.524 L1059.548,2043.546 A699.600,699.600 0.000 0,0 1593.348,2193.344 Z" style="stroke-width:1.0;stroke:rgb(0,0,0);stroke-linecap:round;fill:rgb(0,0,0);" />
<path d="M2031.917,1132.013 A646.800,646.800 40.000 0,1 2141.221,1584.770 L2193.566,1591.690 A699.600,699.600 0.000 0,0 2075.339,1101.973 Z" style="stroke-width:1.0;stroke:rgb(0,0,0);stroke-linecap:round;fill:rgb(0,0,0);" />
<path d="M1271.703,894.830 A646.800,646.800 40.000 0,1 1374.143,865.563 L1363.869,813.772 A699.600,699.600 0.000 0,0 1253.067,845.428 Z" style="stroke-width:1.0;stroke:rgb(0,0,0);stroke-linecap:round;fill:rgb(0,0,0);" />
<path d="M1898.102,990.231 A646.800,646.800 40.000 0,1 1958.184,1043.472 L1995.587,1006.205 A699.600,699.600 0.000 0,0 1930.601,948.617 Z" style="stroke-width:1.0;stroke:rgb(0,0,0);stroke-linecap:round;fill:rgb(0,0,0);" />
<path d="M871.872,1654.289 A646.800,646.800 40.000 0,1 865.772,1626.906 L813.998,1637.266 A699.600,699.600 0.000 0,0 820.596,1666.884 Z" style="stroke-width:1.0;stroke:rgb(0,0,0);stroke-linecap:round;fill:rgb(0,0,0);" />
<path d="M1699.304,2115.328 A646.800,646.800 40.000 0,1 1684.201,2120.016 L1699.238,2170.630 A699.600,699.600 0.000 0,0 1715.573,2165.559 Z" style="stroke-width:1.0;stroke:rgb(0,0,0);stroke-linecap:round;fill:rgb(0,0,0);" />
<path d="M1699.844,884.848 A646.800,646.800 40.000 0,1 1713.400,889.418 L1730.821,839.574 A699.600,699.600 0.000 0,0 1716.158,834.631 Z" style="stroke-width:1.0;stroke:rgb(0,0,0);stroke-linecap:round;fill:rgb(0,0,0);" />
<path d="M1976.927,1063.089 A646.800,646.800 40.000 0,1 1985.493,1072.628 L2025.125,1037.740 A699.600,699.600 0.000 0,0 2015.860,1027.423 Z" style="stroke-width:1.0;stroke:rgb(0,0,0);stroke-linecap:round;fill:rgb(0,0,0);" />
<path d="M1378.356,864.742 A646.800,646.800 40.000 0,1 1388.145,862.945 L1379.014,810.941 A699.600,699.600 0.000 0,0 1368.426,812.884 Z" style="stroke-width:1.0;stroke:rgb(0,0,0);stroke-linecap:round;fill:rgb(0,0,0);" />
<path d="M1428.926,857.117 A646.800,646.800 40.000 0,1 1435.595,856.414 L1430.338,803.877 A699.600,699.600 0.000 0,0 1423.125,804.637 Z" style="stroke-width:1.0;stroke:rgb(0,0,0);stroke-linecap:round;fill:rgb(0,0,0);" />
<path d="M1398.382,861.232 A646.800,646.800 40.000 0,1 1403.114,860.498 L1395.205,808.293 A699.600,699.600 0.000 0,0 1390.086,809.088 Z" style="stroke-width:1.0;stroke:rgb(0,0,0);stroke-linecap:round;fill:rgb(0,0,0);" />
<path d="M2029.245,1128.180 A646.800,646.800 40.000 0,1 2029.804,1128.978 L2073.054,1098.690 A699.600,699.600 0.000 0,0 2072.449,1097.828 Z" style="stroke-width:1.0;stroke:rgb(0,0,0);stroke-linecap:round;fill:rgb(0,0,0);" />
</g>
<g id="plot6">
<g id="plot6-axis">
</g>
<path d="M1319.405,1074.759 A462.000,462.000 40.000 0,1 1410.103,1046.831 L1399.829,995.040 A514.800,514.800 0.000 0,0 1298.766,1026.161 Z" style="stroke-width:1.0;stroke:rgb(0,0,0);stroke-linecap:round;fill:rgb(0,0,0);" />
<path d="M1083.109,1699.112 A462.000,462.000 40.000 0,1 1054.982,1624.108 L1004.123,1638.292 A514.800,514.800 0.000 0,0 1035.464,1721.867 Z" style="stroke-width:1.0;stroke:rgb(0,0,0);stroke-linecap:round;fill:rgb(0,0,0);" />
<path d="M1642.341,1939.526 A462.000,462.000 40.000 0,1 1566.996,1957.117 L1574.653,2009.358 A514.800,514.800 0.000 0,0 1658.608,1989.758 Z" style="stroke-width:1.0;stroke:rgb(0,0,0);stroke-linecap:round;fill:rgb(0,0,0);" />
<path d="M1157.633,1189.792 A462.000,462.000 40.000 0,1 1195.716,1152.357 L1160.941,1112.627 A514.800,514.800 0.000 0,0 1118.505,1154.340 Z" style="stroke-width:1.0;stroke:rgb(0,0,0);stroke-linecap:round;fill:rgb(0,0,0);" />
<path d="M1188.141,1840.864 A462.000,462.000 40.000 0,1 1151.761,1803.601 L1111.962,1838.298 A514.800,514.800 0.000 0,0 1152.500,1879.820 Z" style="stroke-width:1.0;stroke:rgb(0,0,0);stroke-linecap:round;fill:rgb(0,0,0);" />
<path d="M1131.589,1778.779 A462.000,462.000 40.000 0,1 1103.096,1736.456 L1057.736,1763.479 A514.800,514.800 0.000 0,0 1089.485,1810.639 Z" style="stroke-width:1.0;stroke:rgb(0,0,0);stroke-linecap:round;fill:rgb(0,0,0);" />
<path d="M1276.740,1904.474 A462.000,462.000 40.000 0,1 1243.526,1884.272 L1214.215,1928.189 A514.800,514.800 0.000 0,0 1251.225,1950.699 Z" style="stroke-width:1.0;stroke:rgb(0,0,0);stroke-linecap:round;fill:rgb(0,0,0);" />
<path d="M1931.144,1666.008 A462.000,462.000 40.000 0,1 1917.413,1698.017 L1965.117,1720.648 A514.800,514.800 0.000 0,0 1980.418,1684.981 Z" style="stroke-width:1.0;stroke:rgb(0,0,0);stroke-linecap:round;fill:rgb(0,0,0);" />
<path d="M1874.204,1770.953 A462.000,462.000 40.000 0,1 1853.892,1796.993 L1894.337,1830.935 A514.800,514.800 0.000 0,0 1916.970,1801.919 Z" style="stroke-width:1.0;stroke:rgb(0,0,0);stroke-linecap:round;fill:rgb(0,0,0);" />
<path d="M1758.395,1117.017 A462.000,462.000 40.000 0,1 1784.326,1135.853 L1816.820,1094.237 A514.800,514.800 0.000 0,0 1787.926,1073.248 Z" style="stroke-width:1.0;stroke:rgb(0,0,0);stroke-linecap:round;fill:rgb(0,0,0);" />
<path d="M1463.612,1960.565 A462.000,462.000 40.000 0,1 1436.289,1957.586 L1429.008,2009.882 A514.800,514.800 0.000 0,0 1459.453,2013.201 Z" style="stroke-width:1.0;stroke:rgb(0,0,0);stroke-linecap:round;fill:rgb(0,0,0);" />
<path d="M1828.387,1175.030 A462.000,462.000 40.000 0,1 1846.780,1194.733 L1886.412,1159.845 A514.800,514.800 0.000 0,0 1865.917,1137.890 Z" style="stroke-width:1.0;stroke:rgb(0,0,0);stroke-linecap:round;fill:rgb(0,0,0);" />
<path d="M1043.411,1570.503 A462.000,462.000 40.000 0,1 1040.101,1544.006 L987.541,1549.036 A514.800,514.800 0.000 0,0 991.230,1578.560 Z" style="stroke-width:1.0;stroke:rgb(0,0,0);stroke-linecap:round;fill:rgb(0,0,0);" />
<path d="M1800.421,1149.014 A462.000,462.000 40.000 0,1 1819.914,1166.684 L1856.475,1128.591 A514.800,514.800 0.000 0,0 1834.754,1108.901 Z" style="stroke-width:1.0;stroke:rgb(0,0,0);stroke-linecap:round;fill:rgb(0,0,0);" />
<path d="M1039.623,1461.313 A462.000,462.000 40.000 0,1 1042.487,1435.765 L990.200,1428.424 A514.800,514.800 0.000 0,0 987.008,1456.891 Z" style="stroke-width:1.0;stroke:rgb(0,0,0);stroke-linecap:round;fill:rgb(0,0,0);" />
<path d="M1056.286,1371.307 A462.000,462.000 40.000 0,1 1063.955,1347.329 L1014.121,1329.881 A514.800,514.800 0.000 0,0 1005.576,1356.599 Z" style="stroke-width:1.0;stroke:rgb(0,0,0);stroke-linecap:round;fill:rgb(0,0,0);" />
<path d="M1915.708,1701.571 A462.000,462.000 40.000 0,1 1904.500,1723.213 L1950.728,1748.723 A514.800,514.800 0.000 0,0 1963.217,1724.608 Z" style="stroke-width:1.0;stroke:rgb(0,0,0);stroke-linecap:round;fill:rgb(0,0,0);" />
<path d="M1209.067,1858.890 A462.000,462.000 40.000 0,1 1191.224,1843.658 L1155.935,1882.934 A514.800,514.800 0.000 0,0 1175.818,1899.906 Z" style="stroke-width:1.0;stroke:rgb(0,0,0);stroke-linecap:round;fill:rgb(0,0,0);" />
<path d="M1899.470,1732.094 A462.000,462.000 40.000 0,1 1888.295,1750.342 L1932.671,1778.952 A514.800,514.800 0.000 0,0 1945.124,1758.619 Z" style="stroke-width:1.0;stroke:rgb(0,0,0);stroke-linecap:round;fill:rgb(0,0,0);" />
<path d="M1865.058,1216.845 A462.000,462.000 40.000 0,1 1877.584,1233.778 L1920.736,1203.352 A514.800,514.800 0.000 0,0 1906.779,1184.484 Z" style="stroke-width:1.0;stroke:rgb(0,0,0);stroke-linecap:round;fill:rgb(0,0,0);" />
<path d="M1431.133,1043.162 A462.000,462.000 40.000 0,1 1451.773,1040.524 L1446.261,988.012 A514.800,514.800 0.000 0,0 1423.263,990.951 Z" style="stroke-width:1.0;stroke:rgb(0,0,0);stroke-linecap:round;fill:rgb(0,0,0);" />
<path d="M1331.972,1930.361 A462.000,462.000 40.000 0,1 1314.459,1923.106 L1293.254,1971.461 A514.800,514.800 0.000 0,0 1312.769,1979.545 Z" style="stroke-width:1.0;stroke:rgb(0,0,0);stroke-linecap:round;fill:rgb(0,0,0);" />
<path d="M1780.130,1867.384 A462.000,462.000 40.000 0,1 1765.528,1878.073 L1795.874,1921.281 A514.800,514.800 0.000 0,0 1812.145,1909.371 Z" style="stroke-width:1.0;stroke:rgb(0,0,0);stroke-linecap:round;fill:rgb(0,0,0);" />
<path d="M1376.349,1945.146 A462.000,462.000 40.000 0,1 1359.318,1940.060 L1343.240,1990.352 A514.800,514.800 0.000 0,0 1362.218,1996.019 Z" style="stroke-width:1.0;stroke:rgb(0,0,0);stroke-linecap:round;fill:rgb(0,0,0);" />
<path d="M1293.795,1913.429 A462.000,462.000 40.000 0,1 1278.257,1905.307 L1252.915,1951.628 A514.800,514.800 0.000 0,0 1270.228,1960.678 Z" style="stroke-width:1.0;stroke:rgb(0,0,0);stroke-linecap:round;fill:rgb(0,0,0);" />
<path d="M1716.197,1091.708 A462.000,462.000 40.000 0,1 1729.385,1098.968 L1755.600,1053.136 A514.800,514.800 0.000 0,0 1740.905,1045.046 Z" style="stroke-width:1.0;stroke:rgb(0,0,0);stroke-linecap:round;fill:rgb(0,0,0);" />
<path d="M1046.087,1413.938 A462.000,462.000 40.000 0,1 1048.946,1400.030 L997.397,1388.605 A514.800,514.800 0.000 0,0 994.211,1404.102 Z" style="stroke-width:1.0;stroke:rgb(0,0,0);stroke-linecap:round;fill:rgb(0,0,0);" />
<path d="M1679.567,1925.675 A462.000,462.000 40.000 0,1 1666.881,1930.807 L1685.953,1980.042 A514.800,514.800 0.000 0,0 1700.089,1974.324 Z" style="stroke-width:1.0;stroke:rgb(0,0,0);stroke-linecap:round;fill:rgb(0,0,0);" />
<path d="M1850.958,1199.546 A462.000,462.000 40.000 0,1 1859.470,1209.784 L1900.552,1176.617 A514.800,514.800 0.000 0,0 1891.068,1165.209 Z" style="stroke-width:1.0;stroke:rgb(0,0,0);stroke-linecap:round;fill:rgb(0,0,0);" />
<path d="M1203.169,1145.973 A462.000,462.000 40.000 0,1 1213.202,1137.797 L1180.425,1096.403 A514.800,514.800 0.000 0,0 1169.245,1105.512 Z" style="stroke-width:1.0;stroke:rgb(0,0,0);stroke-linecap:round;fill:rgb(0,0,0);" />
<path d="M1961.516,1521.135 A462.000,462.000 40.000 0,1 1960.831,1532.842 L2013.498,1536.596 A514.800,514.800 0.000 0,0 2014.261,1523.550 Z" style="stroke-width:1.0;stroke:rgb(0,0,0);stroke-linecap:round;fill:rgb(0,0,0);" />
<path d="M1143.549,1206.084 A462.000,462.000 40.000 0,1 1151.093,1197.167 L1111.218,1162.557 A514.800,514.800 0.000 0,0 1102.811,1172.494 Z" style="stroke-width:1.0;stroke:rgb(0,0,0);stroke-linecap:round;fill:rgb(0,0,0);" />
<path d="M1712.967,1909.986 A462.000,462.000 40.000 0,1 1702.775,1915.122 L1725.949,1962.565 A514.800,514.800 0.000 0,0 1737.306,1956.842 Z" style="stroke-width:1.0;stroke:rgb(0,0,0);stroke-linecap:round;fill:rgb(0,0,0);" />
<path d="M1110.796,1251.074 A462.000,462.000 40.000 0,1 1116.599,1242.225 L1072.782,1212.765 A514.800,514.800 0.000 0,0 1066.316,1222.625 Z" style="stroke-width:1.0;stroke:rgb(0,0,0);stroke-linecap:round;fill:rgb(0,0,0);" />
<path d="M1139.085,1788.417 A462.000,462.000 40.000 0,1 1132.665,1780.194 L1090.684,1812.216 A514.800,514.800 0.000 0,0 1097.837,1821.379 Z" style="stroke-width:1.0;stroke:rgb(0,0,0);stroke-linecap:round;fill:rgb(0,0,0);" />
<path d="M1248.040,1112.753 A462.000,462.000 40.000 0,1 1256.711,1107.248 L1228.906,1062.362 A514.800,514.800 0.000 0,0 1219.244,1068.497 Z" style="stroke-width:1.0;stroke:rgb(0,0,0);stroke-linecap:round;fill:rgb(0,0,0);" />
<path d="M1454.366,1040.259 A462.000,462.000 40.000 0,1 1464.485,1039.367 L1460.427,986.723 A514.800,514.800 0.000 0,0 1449.151,987.717 Z" style="stroke-width:1.0;stroke:rgb(0,0,0);stroke-linecap:round;fill:rgb(0,0,0);" />
<path d="M1954.051,1585.333 A462.000,462.000 40.000 0,1 1952.303,1594.160 L2003.995,1604.921 A514.800,514.800 0.000 0,0 2005.943,1595.085 Z" style="stroke-width:1.0;stroke:rgb(0,0,0);stroke-linecap:round;fill:rgb(0,0,0);" />
<path d="M1959.046,1552.164 A462.000,462.000 40.000 0,1 1957.995,1560.701 L2010.337,1567.638 A514.800,514.800 0.000 0,0 2011.508,1558.125 Z" style="stroke-width:1.0;stroke:rgb(0,0,0);stroke-linecap:round;fill:rgb(0,0,0);" />
<path d="M1961.985,1503.739 A462.000,462.000 40.000 0,1 1961.843,1512.061 L2014.625,1513.440 A514.800,514.800 0.000 0,0 2014.783,1504.167 Z" style="stroke-width:1.0;stroke:rgb(0,0,0);stroke-linecap:round;fill:rgb(0,0,0);" />
<path d="M1500.000,1038.000 A462.000,462.000 40.000 0,1 1508.000,1038.069 L1508.914,985.277 A514.800,514.800 0.000 0,0 1500.000,985.200 Z" style="stroke-width:1.0;stroke:rgb(0,0,0);stroke-linecap:round;fill:rgb(0,0,0);" />
<path d="M1051.337,1610.206 A462.000,462.000 40.000 0,1 1049.561,1602.709 L998.083,1614.447 A514.800,514.800 0.000 0,0 1000.061,1622.801 Z" style="stroke-width:1.0;stroke:rgb(0,0,0);stroke-linecap:round;fill:rgb(0,0,0);" />
<path d="M1691.347,1079.488 A462.000,462.000 40.000 0,1 1698.140,1082.646 L1720.785,1034.948 A514.800,514.800 0.000 0,0 1713.215,1031.430 Z" style="stroke-width:1.0;stroke:rgb(0,0,0);stroke-linecap:round;fill:rgb(0,0,0);" />
<path d="M1601.654,1049.322 A462.000,462.000 40.000 0,1 1608.911,1051.021 L1621.358,999.709 A514.800,514.800 0.000 0,0 1613.272,997.816 Z" style="stroke-width:1.0;stroke:rgb(0,0,0);stroke-linecap:round;fill:rgb(0,0,0);" />
<path d="M1038.836,1472.226 A462.000,462.000 40.000 0,1 1039.338,1464.860 L986.691,1460.844 A514.800,514.800 0.000 0,0 986.131,1469.052 Z" style="stroke-width:1.0;stroke:rgb(0,0,0);stroke-linecap:round;fill:rgb(0,0,0);" />
<path d="M1291.849,1087.547 A462.000,462.000 40.000 0,1 1298.125,1084.440 L1275.053,1036.947 A514.800,514.800 0.000 0,0 1268.061,1040.410 Z" style="stroke-width:1.0;stroke:rgb(0,0,0);stroke-linecap:round;fill:rgb(0,0,0);" />
<path d="M1659.413,1933.626 A462.000,462.000 40.000 0,1 1652.893,1935.968 L1670.367,1985.792 A514.800,514.800 0.000 0,0 1677.632,1983.183 Z" style="stroke-width:1.0;stroke:rgb(0,0,0);stroke-linecap:round;fill:rgb(0,0,0);" />
<path d="M1413.112,1046.244 A462.000,462.000 40.000 0,1 1419.768,1045.020 L1410.598,993.022 A514.800,514.800 0.000 0,0 1403.182,994.386 Z" style="stroke-width:1.0;stroke:rgb(0,0,0);stroke-linecap:round;fill:rgb(0,0,0);" />
<path d="M1054.189,1378.769 A462.000,462.000 40.000 0,1 1055.994,1372.319 L1005.250,1357.726 A514.800,514.800 0.000 0,0 1003.240,1364.914 Z" style="stroke-width:1.0;stroke:rgb(0,0,0);stroke-linecap:round;fill:rgb(0,0,0);" />
<path d="M1646.087,1061.705 A462.000,462.000 40.000 0,1 1651.845,1063.666 L1669.198,1013.799 A514.800,514.800 0.000 0,0 1662.782,1011.614 Z" style="stroke-width:1.0;stroke:rgb(0,0,0);stroke-linecap:round;fill:rgb(0,0,0);" />
<path d="M1837.199,1815.818 A462.000,462.000 40.000 0,1 1833.121,1820.117 L1871.191,1856.701 A514.800,514.800 0.000 0,0 1875.736,1851.911 Z" style="stroke-width:1.0;stroke:rgb(0,0,0);stroke-linecap:round;fill:rgb(0,0,0);" />
<path d="M1217.577,1134.375 A462.000,462.000 40.000 0,1 1221.697,1131.230 L1189.891,1089.085 A514.800,514.800 0.000 0,0 1185.300,1092.590 Z" style="stroke-width:1.0;stroke:rgb(0,0,0);stroke-linecap:round;fill:rgb(0,0,0);" />
<path d="M1561.557,1957.881 A462.000,462.000 40.000 0,1 1556.561,1958.525 L1563.025,2010.927 A514.800,514.800 0.000 0,0 1568.592,2010.210 Z" style="stroke-width:1.0;stroke:rgb(0,0,0);stroke-linecap:round;fill:rgb(0,0,0);" />
<path d="M1510.702,1038.124 A462.000,462.000 40.000 0,1 1514.969,1038.243 L1516.679,985.470 A514.800,514.800 0.000 0,0 1511.925,985.338 Z" style="stroke-width:1.0;stroke:rgb(0,0,0);stroke-linecap:round;fill:rgb(0,0,0);" />
<path d="M1236.247,1120.687 A462.000,462.000 40.000 0,1 1239.549,1118.412 L1209.783,1074.802 A514.800,514.800 0.000 0,0 1206.103,1077.337 Z" style="stroke-width:1.0;stroke:rgb(0,0,0);stroke-linecap:round;fill:rgb(0,0,0);" />
<path d="M1434.426,1957.323 A462.000,462.000 40.000 0,1 1430.884,1956.801 L1422.985,2009.007 A514.800,514.800 0.000 0,0 1426.932,2009.588 Z" style="stroke-width:1.0;stroke:rgb(0,0,0);stroke-linecap:round;fill:rgb(0,0,0);" />
<path d="M1936.207,1652.209 A462.000,462.000 40.000 0,1 1935.064,1655.446 L1984.785,1673.211 A514.800,514.800 0.000 0,0 1986.059,1669.604 Z" style="stroke-width:1.0;stroke:rgb(0,0,0);stroke-linecap:round;fill:rgb(0,0,0);" />
<path d="M1039.988,1542.813 A462.000,462.000 40.000 0,1 1039.695,1539.540 L987.089,1544.059 A514.800,514.800 0.000 0,0 987.415,1547.706 Z" style="stroke-width:1.0;stroke:rgb(0,0,0);stroke-linecap:round;fill:rgb(0,0,0);" />
<path d="M1886.075,1753.751 A462.000,462.000 40.000 0,1 1884.277,1756.467 L1928.194,1785.778 A514.800,514.800 0.000 0,0 1930.198,1782.751 Z" style="stroke-width:1.0;stroke:rgb(0,0,0);stroke-linecap:round;fill:rgb(0,0,0);" />
<path d="M1878.396,1234.933 A462.000,462.000 40.000 0,1 1879.842,1237.009 L1923.252,1206.953 A514.800,514.800 0.000 0,0 1921.641,1204.639 Z" style="stroke-width:1.0;stroke:rgb(0,0,0);stroke-linecap:round;fill:rgb(0,0,0);" />
<path d="M1893.920,1258.606 A462.000,462.000 40.000 0,1 1895.236,1260.767 L1940.406,1233.426 A514.800,514.800 0.000 0,0 1938.940,1231.019 Z" style="stroke-width:1.0;stroke:rgb(0,0,0);stroke-linecap:round;fill:rgb(0,0,0);" />
<path d="M1104.686,1260.896 A462.000,462.000 40.000 0,1 1105.815,1259.039 L1060.766,1231.500 A514.800,514.800 0.000 0,0 1059.507,1233.570 Z" style="stroke-width:1.0;stroke:rgb(0,0,0);stroke-linecap:round;fill:rgb(0,0,0);" />
<path d="M1052.173,1613.557 A462.000,462.000 40.000 0,1 1051.693,1611.647 L1000.458,1624.407 A514.800,514.800 0.000 0,0 1000.993,1626.535 Z" style="stroke-width:1.0;stroke:rgb(0,0,0);stroke-linecap:round;fill:rgb(0,0,0);" />
<path d="M1046.937,1590.432 A462.000,462.000 40.000 0,1 1046.643,1588.944 L994.830,1599.110 A514.800,514.800 0.000 0,0 995.158,1600.767 Z" style="stroke-width:1.0;stroke:rgb(0,0,0);stroke-linecap:round;fill:rgb(0,0,0);" />
<path d="M1039.354,1464.659 A462.000,462.000 40.000 0,1 1039.461,1463.291 L986.828,1459.095 A514.800,514.800 0.000 0,0 986.708,1460.620 Z" style="stroke-width:1.0;stroke:rgb(0,0,0);stroke-linecap:round;fill:rgb(0,0,0);" />
<path d="M1684.777,1923.440 A462.000,462.000 40.000 0,1 1683.713,1923.903 L1704.709,1972.349 A514.800,514.800 0.000 0,0 1705.895,1971.833 Z" style="stroke-width:1.0;stroke:rgb(0,0,0);stroke-linecap:round;fill:rgb(0,0,0);" />
<path d="M1900.779,1270.173 A462.000,462.000 40.000 0,1 1901.335,1271.146 L1947.202,1244.991 A514.800,514.800 0.000 0,0 1946.582,1243.907 Z" style="stroke-width:1.0;stroke:rgb(0,0,0);stroke-linecap:round;fill:rgb(0,0,0);" />
<path d="M1960.066,1457.771 A462.000,462.000 40.000 0,1 1960.164,1458.856 L2012.754,1454.153 A514.800,514.800 0.000 0,0 2012.645,1452.945 Z" style="stroke-width:1.0;stroke:rgb(0,0,0);stroke-linecap:round;fill:rgb(0,0,0);" />
<path d="M1680.904,1074.891 A462.000,462.000 40.000 0,1 1681.894,1075.313 L1702.682,1026.778 A514.800,514.800 0.000 0,0 1701.579,1026.307 Z" style="stroke-width:1.0;stroke:rgb(0,0,0);stroke-linecap:round;fill:rgb(0,0,0);" />
</g>
<g id="plot7">
<g id="plot7-axis">
</g>
<path d="M1855.476,1297.315 A409.200,409.200 40.000 0,1 1907.488,1462.605 L1960.067,1457.780 A462.000,462.000 0.000 0,0 1901.344,1271.162 Z" style="stroke-width:1.0;stroke:rgb(0,0,0);stroke-linecap:round;fill:rgb(0,0,0);" />
<path d="M1113.963,1364.280 A409.200,409.200 40.000 0,1 1149.866,1288.220 L1104.688,1260.893 A462.000,462.000 0.000 0,0 1064.151,1346.768 Z" style="stroke-width:1.0;stroke:rgb(0,0,0);stroke-linecap:round;fill:rgb(0,0,0);" />
<path d="M1549.755,1906.164 A409.200,409.200 40.000 0,1 1468.096,1907.954 L1463.979,1960.594 A462.000,462.000 0.000 0,0 1556.176,1958.572 Z" style="stroke-width:1.0;stroke:rgb(0,0,0);stroke-linecap:round;fill:rgb(0,0,0);" />
<path d="M1513.602,1091.026 A409.200,409.200 40.000 0,1 1590.045,1100.830 L1601.664,1049.324 A462.000,462.000 0.000 0,0 1515.357,1038.255 Z" style="stroke-width:1.0;stroke:rgb(0,0,0);stroke-linecap:round;fill:rgb(0,0,0);" />
<path d="M1795.034,1783.548 A409.200,409.200 40.000 0,1 1748.634,1825.001 L1780.715,1866.937 A462.000,462.000 0.000 0,0 1833.103,1820.135 Z" style="stroke-width:1.0;stroke:rgb(0,0,0);stroke-linecap:round;fill:rgb(0,0,0);" />
<path d="M1092.255,1534.477 A409.200,409.200 40.000 0,1 1091.540,1475.406 L1038.835,1472.233 A462.000,462.000 0.000 0,0 1039.643,1538.926 Z" style="stroke-width:1.0;stroke:rgb(0,0,0);stroke-linecap:round;fill:rgb(0,0,0);" />
<path d="M1735.175,1834.869 A409.200,409.200 40.000 0,1 1688.598,1863.147 L1712.933,1910.004 A462.000,462.000 0.000 0,0 1765.520,1878.078 Z" style="stroke-width:1.0;stroke:rgb(0,0,0);stroke-linecap:round;fill:rgb(0,0,0);" />
<path d="M1900.544,1583.719 A409.200,409.200 40.000 0,1 1886.350,1634.827 L1936.202,1652.224 A462.000,462.000 0.000 0,0 1952.227,1594.522 Z" style="stroke-width:1.0;stroke:rgb(0,0,0);stroke-linecap:round;fill:rgb(0,0,0);" />
<path d="M1438.756,1904.591 A409.200,409.200 40.000 0,1 1390.484,1894.272 L1376.352,1945.146 A462.000,462.000 0.000 0,0 1430.854,1956.796 Z" style="stroke-width:1.0;stroke:rgb(0,0,0);stroke-linecap:round;fill:rgb(0,0,0);" />
<path d="M1160.384,1271.734 A409.200,409.200 40.000 0,1 1184.291,1239.668 L1143.555,1206.077 A462.000,462.000 0.000 0,0 1116.562,1242.280 Z" style="stroke-width:1.0;stroke:rgb(0,0,0);stroke-linecap:round;fill:rgb(0,0,0);" />
<path d="M1907.651,1464.432 A409.200,409.200 40.000 0,1 1909.187,1503.321 L1961.985,1503.750 A462.000,462.000 0.000 0,0 1960.251,1459.843 Z" style="stroke-width:1.0;stroke:rgb(0,0,0);stroke-linecap:round;fill:rgb(0,0,0);" />
<path d="M1148.456,1709.431 A409.200,409.200 40.000 0,1 1130.747,1676.343 L1083.102,1699.097 A462.000,462.000 0.000 0,0 1103.095,1736.454 Z" style="stroke-width:1.0;stroke:rgb(0,0,0);stroke-linecap:round;fill:rgb(0,0,0);" />
<path d="M1272.454,1840.099 A409.200,409.200 40.000 0,1 1242.377,1817.923 L1209.135,1858.945 A462.000,462.000 0.000 0,0 1243.093,1883.983 Z" style="stroke-width:1.0;stroke:rgb(0,0,0);stroke-linecap:round;fill:rgb(0,0,0);" />
<path d="M1284.873,1151.912 A409.200,409.200 40.000 0,1 1315.415,1134.797 L1291.598,1087.674 A462.000,462.000 0.000 0,0 1257.115,1106.997 Z" style="stroke-width:1.0;stroke:rgb(0,0,0);stroke-linecap:round;fill:rgb(0,0,0);" />
<path d="M1468.539,1092.011 A409.200,409.200 40.000 0,1 1499.936,1090.800 L1499.927,1038.000 A462.000,462.000 0.000 0,0 1464.480,1039.367 Z" style="stroke-width:1.0;stroke:rgb(0,0,0);stroke-linecap:round;fill:rgb(0,0,0);" />
<path d="M1596.457,1102.331 A409.200,409.200 40.000 0,1 1626.446,1110.826 L1642.761,1060.610 A462.000,462.000 0.000 0,0 1608.903,1051.019 Z" style="stroke-width:1.0;stroke:rgb(0,0,0);stroke-linecap:round;fill:rgb(0,0,0);" />
<path d="M1702.540,1144.441 A409.200,409.200 40.000 0,1 1728.294,1160.403 L1757.751,1116.584 A462.000,462.000 0.000 0,0 1728.675,1098.563 Z" style="stroke-width:1.0;stroke:rgb(0,0,0);stroke-linecap:round;fill:rgb(0,0,0);" />
<path d="M1635.553,1113.904 A409.200,409.200 40.000 0,1 1660.231,1123.475 L1680.906,1074.892 A462.000,462.000 0.000 0,0 1653.044,1064.085 Z" style="stroke-width:1.0;stroke:rgb(0,0,0);stroke-linecap:round;fill:rgb(0,0,0);" />
<path d="M1374.722,1889.551 A409.200,409.200 40.000 0,1 1351.167,1881.174 L1331.963,1930.357 A462.000,462.000 0.000 0,0 1358.557,1939.816 Z" style="stroke-width:1.0;stroke:rgb(0,0,0);stroke-linecap:round;fill:rgb(0,0,0);" />
<path d="M1836.608,1267.320 A409.200,409.200 40.000 0,1 1848.901,1286.195 L1893.921,1258.607 A462.000,462.000 0.000 0,0 1880.041,1237.297 Z" style="stroke-width:1.0;stroke:rgb(0,0,0);stroke-linecap:round;fill:rgb(0,0,0);" />
<path d="M1813.440,1763.059 A409.200,409.200 40.000 0,1 1798.666,1779.720 L1837.204,1815.813 A462.000,462.000 0.000 0,0 1853.884,1797.002 Z" style="stroke-width:1.0;stroke:rgb(0,0,0);stroke-linecap:round;fill:rgb(0,0,0);" />
<path d="M1905.598,1554.176 A409.200,409.200 40.000 0,1 1902.158,1575.588 L1954.049,1585.341 A462.000,462.000 0.000 0,0 1957.933,1561.166 Z" style="stroke-width:1.0;stroke:rgb(0,0,0);stroke-linecap:round;fill:rgb(0,0,0);" />
<path d="M1321.260,1131.901 A409.200,409.200 40.000 0,1 1340.094,1123.338 L1319.461,1074.736 A462.000,462.000 0.000 0,0 1298.196,1084.405 Z" style="stroke-width:1.0;stroke:rgb(0,0,0);stroke-linecap:round;fill:rgb(0,0,0);" />
<path d="M1100.487,1411.492 A409.200,409.200 40.000 0,1 1105.138,1392.630 L1054.188,1378.775 A462.000,462.000 0.000 0,0 1048.936,1400.072 Z" style="stroke-width:1.0;stroke:rgb(0,0,0);stroke-linecap:round;fill:rgb(0,0,0);" />
<path d="M1094.841,1442.635 A409.200,409.200 40.000 0,1 1097.899,1424.109 L1046.015,1414.316 A462.000,462.000 0.000 0,0 1042.562,1435.233 Z" style="stroke-width:1.0;stroke:rgb(0,0,0);stroke-linecap:round;fill:rgb(0,0,0);" />
<path d="M1751.861,1177.493 A409.200,409.200 40.000 0,1 1766.079,1189.120 L1800.412,1149.006 A462.000,462.000 0.000 0,0 1784.359,1135.879 Z" style="stroke-width:1.0;stroke:rgb(0,0,0);stroke-linecap:round;fill:rgb(0,0,0);" />
<path d="M1679.647,1867.657 A409.200,409.200 40.000 0,1 1663.450,1875.138 L1684.540,1923.543 A462.000,462.000 0.000 0,0 1702.827,1915.096 Z" style="stroke-width:1.0;stroke:rgb(0,0,0);stroke-linecap:round;fill:rgb(0,0,0);" />
<path d="M1191.562,1768.907 A409.200,409.200 40.000 0,1 1180.299,1755.413 L1139.047,1788.370 A462.000,462.000 0.000 0,0 1151.764,1803.605 Z" style="stroke-width:1.0;stroke:rgb(0,0,0);stroke-linecap:round;fill:rgb(0,0,0);" />
<path d="M1908.165,1529.084 A409.200,409.200 40.000 0,1 1906.582,1546.210 L1959.045,1552.172 A462.000,462.000 0.000 0,0 1960.832,1532.837 Z" style="stroke-width:1.0;stroke:rgb(0,0,0);stroke-linecap:round;fill:rgb(0,0,0);" />
<path d="M1333.040,1873.589 A409.200,409.200 40.000 0,1 1317.654,1866.326 L1294.125,1913.593 A462.000,462.000 0.000 0,0 1311.497,1921.794 Z" style="stroke-width:1.0;stroke:rgb(0,0,0);stroke-linecap:round;fill:rgb(0,0,0);" />
<path d="M1675.500,1130.346 A409.200,409.200 40.000 0,1 1690.682,1137.943 L1715.286,1091.226 A462.000,462.000 0.000 0,0 1698.146,1082.648 Z" style="stroke-width:1.0;stroke:rgb(0,0,0);stroke-linecap:round;fill:rgb(0,0,0);" />
<path d="M1840.380,1727.125 A409.200,409.200 40.000 0,1 1831.448,1739.973 L1874.216,1770.937 A462.000,462.000 0.000 0,0 1884.300,1756.432 Z" style="stroke-width:1.0;stroke:rgb(0,0,0);stroke-linecap:round;fill:rgb(0,0,0);" />
<path d="M1098.167,1577.300 A409.200,409.200 40.000 0,1 1095.595,1562.459 L1043.414,1570.519 A462.000,462.000 0.000 0,0 1046.318,1587.274 Z" style="stroke-width:1.0;stroke:rgb(0,0,0);stroke-linecap:round;fill:rgb(0,0,0);" />
<path d="M1253.501,1173.376 A409.200,409.200 40.000 0,1 1263.965,1165.737 L1233.509,1122.606 A462.000,462.000 0.000 0,0 1221.695,1131.231 Z" style="stroke-width:1.0;stroke:rgb(0,0,0);stroke-linecap:round;fill:rgb(0,0,0);" />
<path d="M1101.041,1590.976 A409.200,409.200 40.000 0,1 1098.754,1580.287 L1046.980,1590.647 A462.000,462.000 0.000 0,0 1049.563,1602.715 Z" style="stroke-width:1.0;stroke:rgb(0,0,0);stroke-linecap:round;fill:rgb(0,0,0);" />
<path d="M1885.663,1636.778 A409.200,409.200 40.000 0,1 1882.093,1646.457 L1931.395,1665.354 A462.000,462.000 0.000 0,0 1935.426,1654.427 Z" style="stroke-width:1.0;stroke:rgb(0,0,0);stroke-linecap:round;fill:rgb(0,0,0);" />
<path d="M1105.842,1609.926 A409.200,409.200 40.000 0,1 1103.365,1600.625 L1052.186,1613.608 A462.000,462.000 0.000 0,0 1054.982,1624.110 Z" style="stroke-width:1.0;stroke:rgb(0,0,0);stroke-linecap:round;fill:rgb(0,0,0);" />
<path d="M1850.177,1288.291 A409.200,409.200 40.000 0,1 1854.979,1296.446 L1900.783,1270.181 A462.000,462.000 0.000 0,0 1895.361,1260.974 Z" style="stroke-width:1.0;stroke:rgb(0,0,0);stroke-linecap:round;fill:rgb(0,0,0);" />
<path d="M1429.574,1096.906 A409.200,409.200 40.000 0,1 1438.678,1095.421 L1430.765,1043.217 A462.000,462.000 0.000 0,0 1420.487,1044.894 Z" style="stroke-width:1.0;stroke:rgb(0,0,0);stroke-linecap:round;fill:rgb(0,0,0);" />
<path d="M1661.099,1123.846 A409.200,409.200 40.000 0,1 1669.445,1127.531 L1691.309,1079.471 A462.000,462.000 0.000 0,0 1681.885,1075.310 Z" style="stroke-width:1.0;stroke:rgb(0,0,0);stroke-linecap:round;fill:rgb(0,0,0);" />
<path d="M1269.277,1162.048 A409.200,409.200 40.000 0,1 1276.839,1157.008 L1248.044,1112.751 A462.000,462.000 0.000 0,0 1239.507,1118.441 Z" style="stroke-width:1.0;stroke:rgb(0,0,0);stroke-linecap:round;fill:rgb(0,0,0);" />
<path d="M1634.960,1886.304 A409.200,409.200 40.000 0,1 1626.404,1889.187 L1642.715,1939.405 A462.000,462.000 0.000 0,0 1652.374,1936.149 Z" style="stroke-width:1.0;stroke:rgb(0,0,0);stroke-linecap:round;fill:rgb(0,0,0);" />
<path d="M1230.506,1192.076 A409.200,409.200 40.000 0,1 1237.057,1186.463 L1203.129,1146.006 A462.000,462.000 0.000 0,0 1195.732,1152.343 Z" style="stroke-width:1.0;stroke:rgb(0,0,0);stroke-linecap:round;fill:rgb(0,0,0);" />
<path d="M1783.325,1204.751 A409.200,409.200 40.000 0,1 1789.473,1210.776 L1826.824,1173.457 A462.000,462.000 0.000 0,0 1819.883,1166.655 Z" style="stroke-width:1.0;stroke:rgb(0,0,0);stroke-linecap:round;fill:rgb(0,0,0);" />
<path d="M1858.041,1698.119 A409.200,409.200 40.000 0,1 1853.812,1705.576 L1899.465,1732.102 A462.000,462.000 0.000 0,0 1904.240,1723.683 Z" style="stroke-width:1.0;stroke:rgb(0,0,0);stroke-linecap:round;fill:rgb(0,0,0);" />
<path d="M1909.070,1510.298 A409.200,409.200 40.000 0,1 1908.772,1518.715 L1961.517,1521.130 A462.000,462.000 0.000 0,0 1961.854,1511.627 Z" style="stroke-width:1.0;stroke:rgb(0,0,0);stroke-linecap:round;fill:rgb(0,0,0);" />
<path d="M1818.832,1243.503 A409.200,409.200 40.000 0,1 1823.296,1249.153 L1865.012,1216.786 A462.000,462.000 0.000 0,0 1859.972,1210.407 Z" style="stroke-width:1.0;stroke:rgb(0,0,0);stroke-linecap:round;fill:rgb(0,0,0);" />
<path d="M1647.811,1881.571 A409.200,409.200 40.000 0,1 1641.237,1884.053 L1659.461,1933.608 A462.000,462.000 0.000 0,0 1666.884,1930.806 Z" style="stroke-width:1.0;stroke:rgb(0,0,0);stroke-linecap:round;fill:rgb(0,0,0);" />
<path d="M1192.952,1229.507 A409.200,409.200 40.000 0,1 1196.758,1225.248 L1157.630,1189.796 A462.000,462.000 0.000 0,0 1153.333,1194.605 Z" style="stroke-width:1.0;stroke:rgb(0,0,0);stroke-linecap:round;fill:rgb(0,0,0);" />
<path d="M1807.364,1229.866 A409.200,409.200 40.000 0,1 1810.849,1233.885 L1850.959,1199.547 A462.000,462.000 0.000 0,0 1847.023,1195.010 Z" style="stroke-width:1.0;stroke:rgb(0,0,0);stroke-linecap:round;fill:rgb(0,0,0);" />
<path d="M1151.237,1285.970 A409.200,409.200 40.000 0,1 1153.692,1282.019 L1109.007,1253.893 A462.000,462.000 0.000 0,0 1106.235,1258.354 Z" style="stroke-width:1.0;stroke:rgb(0,0,0);stroke-linecap:round;fill:rgb(0,0,0);" />
<path d="M1559.322,1904.877 A409.200,409.200 40.000 0,1 1554.721,1905.525 L1561.782,1957.850 A462.000,462.000 0.000 0,0 1566.977,1957.119 Z" style="stroke-width:1.0;stroke:rgb(0,0,0);stroke-linecap:round;fill:rgb(0,0,0);" />
<path d="M1227.143,1804.949 A409.200,409.200 40.000 0,1 1224.234,1802.321 L1188.652,1841.330 A462.000,462.000 0.000 0,0 1191.936,1844.297 Z" style="stroke-width:1.0;stroke:rgb(0,0,0);stroke-linecap:round;fill:rgb(0,0,0);" />
<path d="M1843.917,1721.733 A409.200,409.200 40.000 0,1 1841.932,1724.782 L1886.052,1753.787 A462.000,462.000 0.000 0,0 1888.294,1750.344 Z" style="stroke-width:1.0;stroke:rgb(0,0,0);stroke-linecap:round;fill:rgb(0,0,0);" />
<path d="M1661.713,1875.890 A409.200,409.200 40.000 0,1 1659.044,1877.028 L1679.565,1925.676 A462.000,462.000 0.000 0,0 1682.579,1924.392 Z" style="stroke-width:1.0;stroke:rgb(0,0,0);stroke-linecap:round;fill:rgb(0,0,0);" />
<path d="M1420.495,1098.598 A409.200,409.200 40.000 0,1 1422.924,1098.125 L1412.978,1046.270 A462.000,462.000 0.000 0,0 1410.236,1046.804 Z" style="stroke-width:1.0;stroke:rgb(0,0,0);stroke-linecap:round;fill:rgb(0,0,0);" />
<path d="M1507.038,1090.861 A409.200,409.200 40.000 0,1 1509.478,1090.910 L1510.701,1038.124 A462.000,462.000 0.000 0,0 1507.946,1038.068 Z" style="stroke-width:1.0;stroke:rgb(0,0,0);stroke-linecap:round;fill:rgb(0,0,0);" />
<path d="M1247.549,1177.955 A409.200,409.200 40.000 0,1 1249.473,1176.456 L1217.147,1134.708 A462.000,462.000 0.000 0,0 1214.975,1136.401 Z" style="stroke-width:1.0;stroke:rgb(0,0,0);stroke-linecap:round;fill:rgb(0,0,0);" />
<path d="M1457.293,1093.035 A409.200,409.200 40.000 0,1 1459.254,1092.834 L1453.997,1040.296 A462.000,462.000 0.000 0,0 1451.783,1040.523 Z" style="stroke-width:1.0;stroke:rgb(0,0,0);stroke-linecap:round;fill:rgb(0,0,0);" />
<path d="M1443.623,1905.298 A409.200,409.200 40.000 0,1 1441.873,1905.051 L1434.373,1957.315 A462.000,462.000 0.000 0,0 1436.348,1957.594 Z" style="stroke-width:1.0;stroke:rgb(0,0,0);stroke-linecap:round;fill:rgb(0,0,0);" />
<path d="M1303.597,1858.986 A409.200,409.200 40.000 0,1 1302.413,1858.335 L1276.918,1904.572 A462.000,462.000 0.000 0,0 1278.255,1905.306 Z" style="stroke-width:1.0;stroke:rgb(0,0,0);stroke-linecap:round;fill:rgb(0,0,0);" />
<path d="M1102.930,1598.894 A409.200,409.200 40.000 0,1 1102.612,1597.610 L1051.336,1610.204 A462.000,462.000 0.000 0,0 1051.695,1611.654 Z" style="stroke-width:1.0;stroke:rgb(0,0,0);stroke-linecap:round;fill:rgb(0,0,0);" />
<path d="M1174.448,1747.912 A409.200,409.200 40.000 0,1 1173.695,1746.921 L1131.591,1778.781 A462.000,462.000 0.000 0,0 1132.441,1779.901 Z" style="stroke-width:1.0;stroke:rgb(0,0,0);stroke-linecap:round;fill:rgb(0,0,0);" />
<path d="M1868.767,1677.357 A409.200,409.200 40.000 0,1 1868.294,1678.337 L1915.816,1701.349 A462.000,462.000 0.000 0,0 1916.350,1700.242 Z" style="stroke-width:1.0;stroke:rgb(0,0,0);stroke-linecap:round;fill:rgb(0,0,0);" />
<path d="M1092.661,1538.984 A409.200,409.200 40.000 0,1 1092.562,1537.938 L1039.990,1542.833 A462.000,462.000 0.000 0,0 1040.101,1544.014 Z" style="stroke-width:1.0;stroke:rgb(0,0,0);stroke-linecap:round;fill:rgb(0,0,0);" />
<path d="M1092.131,1467.025 A409.200,409.200 40.000 0,1 1092.216,1465.987 L1039.599,1461.598 A462.000,462.000 0.000 0,0 1039.502,1462.771 Z" style="stroke-width:1.0;stroke:rgb(0,0,0);stroke-linecap:round;fill:rgb(0,0,0);" />
<path d="M1106.750,1386.868 A409.200,409.200 40.000 0,1 1106.995,1386.018 L1056.285,1371.311 A462.000,462.000 0.000 0,0 1056.008,1372.270 Z" style="stroke-width:1.0;stroke:rgb(0,0,0);stroke-linecap:round;fill:rgb(0,0,0);" />
<path d="M1834.829,1264.767 A409.200,409.200 40.000 0,1 1835.182,1265.272 L1878.432,1234.984 A462.000,462.000 0.000 0,0 1878.032,1234.415 Z" style="stroke-width:1.0;stroke:rgb(0,0,0);stroke-linecap:round;fill:rgb(0,0,0);" />
<path d="M1091.979,1468.957 A409.200,409.200 40.000 0,1 1091.985,1468.875 L1039.338,1464.859 A462.000,462.000 0.000 0,0 1039.331,1464.951 Z" style="stroke-width:1.0;stroke:rgb(0,0,0);stroke-linecap:round;fill:rgb(0,0,0);" />
</g>
<defs>
<pattern id="checker" width="10" height="10" patternTransform="rotate(45 0 0)" patternUnits="userSpaceOnUse"><line x1="0" y1="0" x2="10" y2="0" style="stroke:black;stroke-width:2" /><line x1="0" y1="0" x2="0" y2="10" style="stroke:black;stroke-width:2" /></pattern>
<pattern id="vline" width="10" height="10" patternTransform="rotate(0 0 0)" patternUnits="userSpaceOnUse"><line x1="0" y1="0" x2="0" y2="10" style="stroke:black;stroke-width:5" /></pattern>
<pattern id="hline" width="10" height="10" patternTransform="rotate(0 0 0)" patternUnits="userSpaceOnUse"><line x1="0" y1="0" x2="10" y2="0" style="stroke:black;stroke-width:5" /></pattern>
<pattern id="checker" width="10" height="10" patternTransform="rotate(45 0 0)" patternUnits="userSpaceOnUse"><line x1="0" y1="0" x2="10" y2="0" style="stroke:black;stroke-width:5" /><line x1="0" y1="0" x2="0" y2="10" style="stroke:black;stroke-width:4" /></pattern>
<pattern id="vline-sparse" width="10" height="10" patternTransform="rotate(0 0 0)" patternUnits="userSpaceOnUse"><line x1="0" y1="0" x2="0" y2="10" style="stroke:black;stroke-width:2" /></pattern>
<pattern id="hline-sparse" width="10" height="10" patternTransform="rotate(0 0 0)" patternUnits="userSpaceOnUse"><line x1="0" y1="0" x2="10" y2="0" style="stroke:black;stroke-width:2" /></pattern>
</defs>
</svg>
