<?xml version="1.0" encoding="utf-8" standalone="no"?>
<!DOCTYPE svg PUBLIC "-//W3C//DTD SVG 1.1//EN" "http://www.w3.org/Graphics/SVG/1.1/DTD/svg11.dtd">
<svg width="3000px" height="3000px" version="1.1" xmlns="http://www.w3.org/2000/svg" xmlns:xlink="http://www.w3.org/1999/xlink">
<g id="bg">
<rect x="0" y="0" width="3000px" height="3000px" style="fill:rgb(255,255,255);"/>
</g>
<g id="ideograms">
<path d="M1500.000,180.000 A1320.000,1320.000 40.000 1,1 1499.562,180.000 L1499.552,150.000 A1350.000,1350.000 0.000 1,0 1500.000,150.000 Z" style="stroke-linecap:round;fill:rgb(115,115,115);" />
<line x1='1500.0' y1='150.0' x2='1500.0' y2='140.0' style="stroke-width:1.0;stroke:rgb(0,0,0);stroke-linecap:round;fill:none;" />
<text x="1510.0" y="140.0" font-size="26.0px" font-family="CMUBright-Roman" style="text-anchor:start;fill:rgb(0,0,0);" transform="rotate(270.0,1510.0,140.0)" >0</text>
<line x1='1687.0' y1='163.0' x2='1688.4' y2='153.1' style="stroke-width:1.0;stroke:rgb(0,0,0);stroke-linecap:round;fill:none;" />
<text x="1698.3" y="154.5" font-size="26.0px" font-family="CMUBright-Roman" style="text-anchor:start;fill:rgb(0,0,0);" transform="rotate(278.0,1698.3,154.5)" >10000</text>
<line x1='1870.4' y1='201.8' x2='1873.1' y2='192.2' style="stroke-width:1.0;stroke:rgb(0,0,0);stroke-linecap:round;fill:none;" />
<text x="1882.7" y="195.0" font-size="26.0px" font-family="CMUBright-Roman" style="text-anchor:start;fill:rgb(0,0,0);" transform="rotate(285.9,1882.7,195.0)" >20000</text>
<line x1='2046.6' y1='265.6' x2='2050.7' y2='256.5' style="stroke-width:1.0;stroke:rgb(0,0,0);stroke-linecap:round;fill:none;" />
<text x="2059.8" y="260.6" font-size="26.0px" font-family="CMUBright-Roman" style="text-anchor:start;fill:rgb(0,0,0);" transform="rotate(293.9,2059.8,260.6)" >30000</text>
<line x1='2212.3' y1='353.2' x2='2217.6' y2='344.7' style="stroke-width:1.0;stroke:rgb(0,0,0);stroke-linecap:round;fill:none;" />
<text x="2226.1" y="350.0" font-size="26.0px" font-family="CMUBright-Roman" style="text-anchor:start;fill:rgb(0,0,0);" transform="rotate(301.8,2226.1,350.0)" >40000</text>
<line x1='2364.3' y1='462.9' x2='2370.7' y2='455.3' style="stroke-width:1.0;stroke:rgb(0,0,0);stroke-linecap:round;fill:none;" />
<text x="2378.4" y="461.7" font-size="26.0px" font-family="CMUBright-Roman" style="text-anchor:start;fill:rgb(0,0,0);" transform="rotate(309.8,2378.4,461.7)" >50000</text>
<line x1='2499.6' y1='592.7' x2='2507.0' y2='585.9' style="stroke-width:1.0;stroke:rgb(0,0,0);stroke-linecap:round;fill:none;" />
<text x="2513.7" y="593.4" font-size="26.0px" font-family="CMUBright-Roman" style="text-anchor:start;fill:rgb(0,0,0);" transform="rotate(317.8,2513.7,593.4)" >60000</text>
<line x1='2615.7' y1='739.9' x2='2623.9' y2='734.2' style="stroke-width:1.0;stroke:rgb(0,0,0);stroke-linecap:round;fill:none;" />
<text x="2629.5" y="742.5" font-size="26.0px" font-family="CMUBright-Roman" style="text-anchor:start;fill:rgb(0,0,0);" transform="rotate(325.7,2629.5,742.5)" >70000</text>
<line x1='2710.2' y1='901.7' x2='2719.2' y2='897.3' style="stroke-width:1.0;stroke:rgb(0,0,0);stroke-linecap:round;fill:none;" />
<text x="2723.5" y="906.3" font-size="26.0px" font-family="CMUBright-Roman" style="text-anchor:start;fill:rgb(0,0,0);" transform="rotate(333.7,2723.5,906.3)" >80000</text>
<line x1='2781.4' y1='1075.1' x2='2790.9' y2='1072.0' style="stroke-width:1.0;stroke:rgb(0,0,0);stroke-linecap:round;fill:none;" />
<text x="2794.0" y="1081.5" font-size="26.0px" font-family="CMUBright-Roman" style="text-anchor:start;fill:rgb(0,0,0);" transform="rotate(341.7,2794.0,1081.5)" >90000</text>
<line x1='2827.9' y1='1256.7' x2='2837.7' y2='1254.9' style="stroke-width:1.0;stroke:rgb(0,0,0);stroke-linecap:round;fill:none;" />
<text x="2839.5" y="1264.7" font-size="26.0px" font-family="CMUBright-Roman" style="text-anchor:start;fill:rgb(0,0,0);" transform="rotate(349.6,2839.5,1264.7)" >100000</text>
<line x1='2848.8' y1='1443.0' x2='2858.8' y2='1442.5' style="stroke-width:1.0;stroke:rgb(0,0,0);stroke-linecap:round;fill:none;" />
<text x="2859.2" y="1452.5" font-size="26.0px" font-family="CMUBright-Roman" style="text-anchor:start;fill:rgb(0,0,0);" transform="rotate(357.6,2859.2,1452.5)" >110000</text>
<line x1='2843.7' y1='1630.3' x2='2853.6' y2='1631.3' style="stroke-width:1.0;stroke:rgb(0,0,0);stroke-linecap:round;fill:none;" />
<text x="2852.6" y="1641.2" font-size="26.0px" font-family="CMUBright-Roman" style="text-anchor:start;fill:rgb(0,0,0);" transform="rotate(5.5,2852.6,1641.2)" >120000</text>
<line x1='2812.7' y1='1815.2' x2='2822.4' y2='1817.5' style="stroke-width:1.0;stroke:rgb(0,0,0);stroke-linecap:round;fill:none;" />
<text x="2820.0" y="1827.2" font-size="26.0px" font-family="CMUBright-Roman" style="text-anchor:start;fill:rgb(0,0,0);" transform="rotate(13.5,2820.0,1827.2)" >130000</text>
<line x1='2756.4' y1='1994.0' x2='2765.7' y2='1997.6' style="stroke-width:1.0;stroke:rgb(0,0,0);stroke-linecap:round;fill:none;" />
<text x="2762.0" y="2006.9" font-size="26.0px" font-family="CMUBright-Roman" style="text-anchor:start;fill:rgb(0,0,0);" transform="rotate(21.5,2762.0,2006.9)" >140000</text>
<line x1='2675.9' y1='2163.2' x2='2684.6' y2='2168.1' style="stroke-width:1.0;stroke:rgb(0,0,0);stroke-linecap:round;fill:none;" />
<text x="2679.6" y="2176.8" font-size="26.0px" font-family="CMUBright-Roman" style="text-anchor:start;fill:rgb(0,0,0);" transform="rotate(29.4,2679.6,2176.8)" >150000</text>
<line x1='2572.7' y1='2319.7' x2='2580.6' y2='2325.8' style="stroke-width:1.0;stroke:rgb(0,0,0);stroke-linecap:round;fill:none;" />
<text x="2574.5" y="2333.7" font-size="26.0px" font-family="CMUBright-Roman" style="text-anchor:start;fill:rgb(0,0,0);" transform="rotate(37.4,2574.5,2333.7)" >160000</text>
<line x1='2448.8' y1='2460.4' x2='2455.8' y2='2467.5' style="stroke-width:1.0;stroke:rgb(0,0,0);stroke-linecap:round;fill:none;" />
<text x="2448.7" y="2474.5" font-size="26.0px" font-family="CMUBright-Roman" style="text-anchor:start;fill:rgb(0,0,0);" transform="rotate(45.3,2448.7,2474.5)" >170000</text>
<line x1='2306.6' y1='2582.5' x2='2312.6' y2='2590.6' style="stroke-width:1.0;stroke:rgb(0,0,0);stroke-linecap:round;fill:none;" />
<text x="2304.5" y="2596.5" font-size="26.0px" font-family="CMUBright-Roman" style="text-anchor:start;fill:rgb(0,0,0);" transform="rotate(53.3,2304.5,2596.5)" >180000</text>
<line x1='2148.9' y1='2683.8' x2='2153.7' y2='2692.6' style="stroke-width:1.0;stroke:rgb(0,0,0);stroke-linecap:round;fill:none;" />
<text x="2144.9" y="2697.4" font-size="26.0px" font-family="CMUBright-Roman" style="text-anchor:start;fill:rgb(0,0,0);" transform="rotate(61.3,2144.9,2697.4)" >190000</text>
<line x1='1978.7' y1='2762.3' x2='1982.2' y2='2771.6' style="stroke-width:1.0;stroke:rgb(0,0,0);stroke-linecap:round;fill:none;" />
<text x="1972.8" y="2775.2" font-size="26.0px" font-family="CMUBright-Roman" style="text-anchor:start;fill:rgb(0,0,0);" transform="rotate(69.2,1972.8,2775.2)" >200000</text>
<line x1='1799.2' y1='2816.4' x2='1801.4' y2='2826.2' style="stroke-width:1.0;stroke:rgb(0,0,0);stroke-linecap:round;fill:none;" />
<text x="1791.7" y="2828.4" font-size="26.0px" font-family="CMUBright-Roman" style="text-anchor:start;fill:rgb(0,0,0);" transform="rotate(77.2,1791.7,2828.4)" >210000</text>
<line x1='1614.0' y1='2845.2' x2='1614.8' y2='2855.1' style="stroke-width:1.0;stroke:rgb(0,0,0);stroke-linecap:round;fill:none;" />
<text x="1604.9" y="2856.0" font-size="26.0px" font-family="CMUBright-Roman" style="text-anchor:start;fill:rgb(0,0,0);" transform="rotate(85.2,1604.9,2856.0)" >220000</text>
<line x1='1426.6' y1='2848.0' x2='1426.0' y2='2858.0' style="stroke-width:1.0;stroke:rgb(0,0,0);stroke-linecap:round;fill:none;" />
<text x="1436.0" y="2858.5" font-size="26.0px" font-family="CMUBright-Roman" style="text-anchor:end;fill:rgb(0,0,0);" transform="rotate(-86.9,1436.0,2858.5)" >230000</text>
<line x1='1240.6' y1='2824.8' x2='1238.6' y2='2834.7' style="stroke-width:1.0;stroke:rgb(0,0,0);stroke-linecap:round;fill:none;" />
<text x="1248.5" y="2836.5" font-size="26.0px" font-family="CMUBright-Roman" style="text-anchor:end;fill:rgb(0,0,0);" transform="rotate(-78.9,1248.5,2836.5)" >240000</text>
<line x1='1059.6' y1='2776.1' x2='1056.3' y2='2785.6' style="stroke-width:1.0;stroke:rgb(0,0,0);stroke-linecap:round;fill:none;" />
<text x="1065.8" y="2788.8" font-size="26.0px" font-family="CMUBright-Roman" style="text-anchor:end;fill:rgb(0,0,0);" transform="rotate(-71.0,1065.8,2788.8)" >250000</text>
<line x1='887.0' y1='2702.8' x2='882.5' y2='2711.7' style="stroke-width:1.0;stroke:rgb(0,0,0);stroke-linecap:round;fill:none;" />
<text x="891.4" y="2716.2" font-size="26.0px" font-family="CMUBright-Roman" style="text-anchor:end;fill:rgb(0,0,0);" transform="rotate(-63.0,891.4,2716.2)" >260000</text>
<line x1='726.4' y1='2606.3' x2='720.6' y2='2614.5' style="stroke-width:1.0;stroke:rgb(0,0,0);stroke-linecap:round;fill:none;" />
<text x="728.8" y="2620.2" font-size="26.0px" font-family="CMUBright-Roman" style="text-anchor:end;fill:rgb(0,0,0);" transform="rotate(-55.0,728.8,2620.2)" >270000</text>
<line x1='580.6' y1='2488.5' x2='573.8' y2='2495.8' style="stroke-width:1.0;stroke:rgb(0,0,0);stroke-linecap:round;fill:none;" />
<text x="581.1" y="2502.6" font-size="26.0px" font-family="CMUBright-Roman" style="text-anchor:end;fill:rgb(0,0,0);" transform="rotate(-47.1,581.1,2502.6)" >280000</text>
<line x1='452.5' y1='2351.6' x2='444.8' y2='2357.9' style="stroke-width:1.0;stroke:rgb(0,0,0);stroke-linecap:round;fill:none;" />
<text x="451.1" y="2365.7" font-size="26.0px" font-family="CMUBright-Roman" style="text-anchor:end;fill:rgb(0,0,0);" transform="rotate(-39.1,451.1,2365.7)" >290000</text>
<line x1='344.7' y1='2198.3' x2='336.1' y2='2203.5' style="stroke-width:1.0;stroke:rgb(0,0,0);stroke-linecap:round;fill:none;" />
<text x="341.3" y="2212.0" font-size="26.0px" font-family="CMUBright-Roman" style="text-anchor:end;fill:rgb(0,0,0);" transform="rotate(-31.2,341.3,2212.0)" >300000</text>
<line x1='259.1' y1='2031.6' x2='249.9' y2='2035.5' style="stroke-width:1.0;stroke:rgb(0,0,0);stroke-linecap:round;fill:none;" />
<text x="253.8" y="2044.7" font-size="26.0px" font-family="CMUBright-Roman" style="text-anchor:end;fill:rgb(0,0,0);" transform="rotate(-23.2,253.8,2044.7)" >310000</text>
<line x1='197.4' y1='1854.6' x2='187.7' y2='1857.2' style="stroke-width:1.0;stroke:rgb(0,0,0);stroke-linecap:round;fill:none;" />
<text x="190.4" y="1866.8" font-size="26.0px" font-family="CMUBright-Roman" style="text-anchor:end;fill:rgb(0,0,0);" transform="rotate(-15.2,190.4,1866.8)" >320000</text>
<line x1='160.8' y1='1670.7' x2='150.9' y2='1672.0' style="stroke-width:1.0;stroke:rgb(0,0,0);stroke-linecap:round;fill:none;" />
<text x="152.2" y="1681.9" font-size="26.0px" font-family="CMUBright-Roman" style="text-anchor:end;fill:rgb(0,0,0);" transform="rotate(-7.3,152.2,1681.9)" >330000</text>
<line x1='150.1' y1='1483.6' x2='140.1' y2='1483.5' style="stroke-width:1.0;stroke:rgb(0,0,0);stroke-linecap:round;fill:none;" />
<text x="140.0" y="1493.5" font-size="26.0px" font-family="CMUBright-Roman" style="text-anchor:end;fill:rgb(0,0,0);" transform="rotate(0.7,140.0,1493.5)" >340000</text>
<line x1='165.4' y1='1296.8' x2='155.5' y2='1295.3' style="stroke-width:1.0;stroke:rgb(0,0,0);stroke-linecap:round;fill:none;" />
<text x="154.0" y="1305.2" font-size="26.0px" font-family="CMUBright-Roman" style="text-anchor:end;fill:rgb(0,0,0);" transform="rotate(8.7,154.0,1305.2)" >350000</text>
<line x1='206.4' y1='1113.9' x2='196.8' y2='1111.0' style="stroke-width:1.0;stroke:rgb(0,0,0);stroke-linecap:round;fill:none;" />
<text x="194.0" y="1120.6" font-size="26.0px" font-family="CMUBright-Roman" style="text-anchor:end;fill:rgb(0,0,0);" transform="rotate(16.6,194.0,1120.6)" >360000</text>
<line x1='272.3' y1='938.4' x2='263.3' y2='934.3' style="stroke-width:1.0;stroke:rgb(0,0,0);stroke-linecap:round;fill:none;" />
<text x="259.1" y="943.4" font-size="26.0px" font-family="CMUBright-Roman" style="text-anchor:end;fill:rgb(0,0,0);" transform="rotate(24.6,259.1,943.4)" >370000</text>
<line x1='362.0' y1='773.8' x2='353.5' y2='768.4' style="stroke-width:1.0;stroke:rgb(0,0,0);stroke-linecap:round;fill:none;" />
<text x="348.2" y="776.9" font-size="26.0px" font-family="CMUBright-Roman" style="text-anchor:end;fill:rgb(0,0,0);" transform="rotate(32.5,348.2,776.9)" >380000</text>
<line x1='473.5' y1='623.2' x2='465.9' y2='616.7' style="stroke-width:1.0;stroke:rgb(0,0,0);stroke-linecap:round;fill:none;" />
<text x="459.5" y="624.3" font-size="26.0px" font-family="CMUBright-Roman" style="text-anchor:end;fill:rgb(0,0,0);" transform="rotate(40.5,459.5,624.3)" >390000</text>
<line x1='604.9' y1='489.4' x2='598.2' y2='482.0' style="stroke-width:1.0;stroke:rgb(0,0,0);stroke-linecap:round;fill:none;" />
<text x="590.8" y="488.6" font-size="26.0px" font-family="CMUBright-Roman" style="text-anchor:end;fill:rgb(0,0,0);" transform="rotate(48.5,590.8,488.6)" >400000</text>
<line x1='753.5' y1='375.2' x2='747.9' y2='366.9' style="stroke-width:1.0;stroke:rgb(0,0,0);stroke-linecap:round;fill:none;" />
<text x="739.6" y="372.4" font-size="26.0px" font-family="CMUBright-Roman" style="text-anchor:end;fill:rgb(0,0,0);" transform="rotate(56.4,739.6,372.4)" >410000</text>
<line x1='916.5' y1='282.6' x2='912.1' y2='273.6' style="stroke-width:1.0;stroke:rgb(0,0,0);stroke-linecap:round;fill:none;" />
<text x="903.1" y="278.0" font-size="26.0px" font-family="CMUBright-Roman" style="text-anchor:end;fill:rgb(0,0,0);" transform="rotate(64.4,903.1,278.0)" >420000</text>
<line x1='1090.7' y1='213.5' x2='1087.7' y2='204.0' style="stroke-width:1.0;stroke:rgb(0,0,0);stroke-linecap:round;fill:none;" />
<text x="1078.2" y="207.1" font-size="26.0px" font-family="CMUBright-Roman" style="text-anchor:end;fill:rgb(0,0,0);" transform="rotate(72.4,1078.2,207.1)" >430000</text>
<line x1='1272.8' y1='169.2' x2='1271.2' y2='159.4' style="stroke-width:1.0;stroke:rgb(0,0,0);stroke-linecap:round;fill:none;" />
<text x="1261.3" y="161.1" font-size="26.0px" font-family="CMUBright-Roman" style="text-anchor:end;fill:rgb(0,0,0);" transform="rotate(80.3,1261.3,161.1)" >440000</text>
<line x1='1459.3' y1='150.6' x2='1459.0' y2='140.6' style="stroke-width:1.0;stroke:rgb(0,0,0);stroke-linecap:round;fill:none;" />
<text x="1449.1" y="141.0" font-size="26.0px" font-family="CMUBright-Roman" style="text-anchor:end;fill:rgb(0,0,0);" transform="rotate(88.3,1449.1,141.0)" >450000</text>
</g>
<g id="plot0">
<g id="plot0-axis">
</g>
<path d="M1500.000,906.000 A594.000,594.000 40.000 1,1 1499.803,906.000 L1499.781,840.000 A660.000,660.000 0.000 1,0 1500.000,840.000 Z" style="stroke-width:1.0;stroke:rgb(192,196,160);stroke-linecap:round;fill:rgb(192,196,160);" />
</g>
<g id="plot1">
<g id="plot1-axis">
</g>
</g>
<g id="plot2">
<g id="plot2-axis">
</g>
<path d="M1911.621,2176.633 A792.000,792.000 40.000 0,1 1713.777,2262.603 L1731.591,2326.153 A858.000,858.000 0.000 0,0 1945.923,2233.019 Z" style="stroke-width:1.0;stroke:rgb(156,188,188);stroke-linecap:round;fill:rgb(156,188,188);" />
<path d="M2283.727,1385.824 A792.000,792.000 40.000 0,1 2290.752,1544.440 L2356.648,1548.144 A858.000,858.000 0.000 0,0 2349.037,1376.309 Z" style="stroke-width:1.0;stroke:rgb(156,188,188);stroke-linecap:round;fill:rgb(156,188,188);" />
<path d="M1214.202,761.364 A792.000,792.000 40.000 0,1 1348.457,722.633 L1335.829,657.853 A858.000,858.000 0.000 0,0 1190.386,699.811 Z" style="stroke-width:1.0;stroke:rgb(156,188,188);stroke-linecap:round;fill:rgb(156,188,188);" />
<path d="M1674.700,2272.492 A792.000,792.000 40.000 0,1 1541.391,2290.918 L1544.840,2356.828 A858.000,858.000 0.000 0,0 1689.258,2336.866 Z" style="stroke-width:1.0;stroke:rgb(156,188,188);stroke-linecap:round;fill:rgb(156,188,188);" />
<path d="M1091.216,821.649 A792.000,792.000 40.000 0,1 1200.234,766.921 L1175.254,705.831 A858.000,858.000 0.000 0,0 1057.151,765.120 Z" style="stroke-width:1.0;stroke:rgb(156,188,188);stroke-linecap:round;fill:rgb(156,188,188);" />
<path d="M1539.819,2290.998 A792.000,792.000 40.000 0,1 1451.822,2290.533 L1447.807,2356.411 A858.000,858.000 0.000 0,0 1543.137,2356.915 Z" style="stroke-width:1.0;stroke:rgb(156,188,188);stroke-linecap:round;fill:rgb(156,188,188);" />
<path d="M2192.632,1884.090 A792.000,792.000 40.000 0,1 2154.470,1946.019 L2209.009,1983.187 A858.000,858.000 0.000 0,0 2250.351,1916.098 Z" style="stroke-width:1.0;stroke:rgb(156,188,188);stroke-linecap:round;fill:rgb(156,188,188);" />
<path d="M2068.937,949.024 A792.000,792.000 40.000 0,1 2111.133,996.234 L2162.061,954.254 A858.000,858.000 0.000 0,0 2116.349,903.110 Z" style="stroke-width:1.0;stroke:rgb(156,188,188);stroke-linecap:round;fill:rgb(156,188,188);" />
<path d="M848.471,1950.304 A792.000,792.000 40.000 0,1 815.853,1899.007 L758.840,1932.257 A858.000,858.000 0.000 0,0 794.177,1987.830 Z" style="stroke-width:1.0;stroke:rgb(156,188,188);stroke-linecap:round;fill:rgb(156,188,188);" />
<path d="M945.316,934.677 A792.000,792.000 40.000 0,1 989.737,894.281 L947.215,843.804 A858.000,858.000 0.000 0,0 899.093,887.567 Z" style="stroke-width:1.0;stroke:rgb(156,188,188);stroke-linecap:round;fill:rgb(156,188,188);" />
<path d="M1617.586,716.777 A792.000,792.000 40.000 0,1 1656.700,723.657 L1669.758,658.961 A858.000,858.000 0.000 0,0 1627.384,651.509 Z" style="stroke-width:1.0;stroke:rgb(156,188,188);stroke-linecap:round;fill:rgb(156,188,188);" />
<path d="M758.716,1221.141 A792.000,792.000 40.000 0,1 772.818,1186.200 L712.220,1160.050 A858.000,858.000 0.000 0,0 696.943,1197.902 Z" style="stroke-width:1.0;stroke:rgb(156,188,188);stroke-linecap:round;fill:rgb(156,188,188);" />
<path d="M2149.398,1046.628 A792.000,792.000 40.000 0,1 2166.257,1071.787 L2221.778,1036.103 A858.000,858.000 0.000 0,0 2203.515,1008.847 Z" style="stroke-width:1.0;stroke:rgb(156,188,188);stroke-linecap:round;fill:rgb(156,188,188);" />
<path d="M1176.288,2222.824 A792.000,792.000 40.000 0,1 1152.021,2211.459 L1123.022,2270.748 A858.000,858.000 0.000 0,0 1149.312,2283.059 Z" style="stroke-width:1.0;stroke:rgb(156,188,188);stroke-linecap:round;fill:rgb(156,188,188);" />
<path d="M1408.647,713.286 A792.000,792.000 40.000 0,1 1432.681,710.866 L1427.071,645.105 A858.000,858.000 0.000 0,0 1401.034,647.727 Z" style="stroke-width:1.0;stroke:rgb(156,188,188);stroke-linecap:round;fill:rgb(156,188,188);" />
<path d="M2285.014,1604.959 A792.000,792.000 40.000 0,1 2281.646,1627.645 L2346.783,1638.282 A858.000,858.000 0.000 0,0 2350.432,1613.705 Z" style="stroke-width:1.0;stroke:rgb(156,188,188);stroke-linecap:round;fill:rgb(156,188,188);" />
<path d="M1301.976,2266.844 A792.000,792.000 40.000 0,1 1281.198,2261.176 L1262.964,2324.608 A858.000,858.000 0.000 0,0 1285.473,2330.748 Z" style="stroke-width:1.0;stroke:rgb(156,188,188);stroke-linecap:round;fill:rgb(156,188,188);" />
<path d="M907.488,2025.542 A792.000,792.000 40.000 0,1 894.750,2010.820 L844.313,2053.388 A858.000,858.000 0.000 0,0 858.113,2069.337 Z" style="stroke-width:1.0;stroke:rgb(156,188,188);stroke-linecap:round;fill:rgb(156,188,188);" />
<path d="M2231.829,1197.196 A792.000,792.000 40.000 0,1 2238.101,1212.822 L2299.609,1188.890 A858.000,858.000 0.000 0,0 2292.815,1171.962 Z" style="stroke-width:1.0;stroke:rgb(156,188,188);stroke-linecap:round;fill:rgb(156,188,188);" />
<path d="M1103.278,2185.475 A792.000,792.000 40.000 0,1 1090.038,2177.639 L1055.874,2234.109 A858.000,858.000 0.000 0,0 1070.218,2242.598 Z" style="stroke-width:1.0;stroke:rgb(156,188,188);stroke-linecap:round;fill:rgb(156,188,188);" />
<path d="M2274.632,1335.048 A792.000,792.000 40.000 0,1 2277.675,1350.050 L2342.482,1337.555 A858.000,858.000 0.000 0,0 2339.185,1321.302 Z" style="stroke-width:1.0;stroke:rgb(156,188,188);stroke-linecap:round;fill:rgb(156,188,188);" />
<path d="M992.224,2107.806 A792.000,792.000 40.000 0,1 980.638,2097.936 L937.358,2147.764 A858.000,858.000 0.000 0,0 949.909,2158.456 Z" style="stroke-width:1.0;stroke:rgb(156,188,188);stroke-linecap:round;fill:rgb(156,188,188);" />
<path d="M1911.803,823.478 A792.000,792.000 40.000 0,1 1924.077,831.103 L1959.417,775.362 A858.000,858.000 0.000 0,0 1946.120,767.101 Z" style="stroke-width:1.0;stroke:rgb(156,188,188);stroke-linecap:round;fill:rgb(156,188,188);" />
<path d="M945.921,2065.916 A792.000,792.000 40.000 0,1 935.751,2055.776 L888.730,2102.090 A858.000,858.000 0.000 0,0 899.748,2113.076 Z" style="stroke-width:1.0;stroke:rgb(156,188,188);stroke-linecap:round;fill:rgb(156,188,188);" />
<path d="M2260.382,1721.549 A792.000,792.000 40.000 0,1 2256.324,1735.027 L2319.351,1754.613 A858.000,858.000 0.000 0,0 2323.747,1740.011 Z" style="stroke-width:1.0;stroke:rgb(156,188,188);stroke-linecap:round;fill:rgb(156,188,188);" />
<path d="M1222.090,2241.640 A792.000,792.000 40.000 0,1 1209.251,2236.701 L1185.022,2298.093 A858.000,858.000 0.000 0,0 1198.931,2303.444 Z" style="stroke-width:1.0;stroke:rgb(156,188,188);stroke-linecap:round;fill:rgb(156,188,188);" />
<path d="M1349.473,722.436 A792.000,792.000 40.000 0,1 1362.025,720.111 L1350.527,655.120 A858.000,858.000 0.000 0,0 1336.929,657.639 Z" style="stroke-width:1.0;stroke:rgb(156,188,188);stroke-linecap:round;fill:rgb(156,188,188);" />
<path d="M1405.586,2286.352 A792.000,792.000 40.000 0,1 1393.687,2284.832 L1384.827,2350.235 A858.000,858.000 0.000 0,0 1397.718,2351.882 Z" style="stroke-width:1.0;stroke:rgb(156,188,188);stroke-linecap:round;fill:rgb(156,188,188);" />
<path d="M1087.433,2176.056 A792.000,792.000 40.000 0,1 1077.538,2169.918 L1042.333,2225.745 A858.000,858.000 0.000 0,0 1053.052,2232.394 Z" style="stroke-width:1.0;stroke:rgb(156,188,188);stroke-linecap:round;fill:rgb(156,188,188);" />
<path d="M1802.335,2232.023 A792.000,792.000 40.000 0,1 1800.991,2232.576 L1826.074,2293.624 A858.000,858.000 0.000 0,0 1827.529,2293.025 Z" style="stroke-width:1.0;stroke:rgb(156,188,188);stroke-linecap:round;fill:rgb(156,188,188);" />
<path d="M743.423,1265.789 A792.000,792.000 40.000 0,1 743.746,1264.748 L680.724,1245.144 A858.000,858.000 0.000 0,0 680.375,1246.271 Z" style="stroke-width:1.0;stroke:rgb(156,188,188);stroke-linecap:round;fill:rgb(156,188,188);" />
<path d="M2236.119,1792.221 A792.000,792.000 40.000 0,1 2235.798,1793.029 L2297.114,1817.448 A858.000,858.000 0.000 0,0 2297.462,1816.573 Z" style="stroke-width:1.0;stroke:rgb(156,188,188);stroke-linecap:round;fill:rgb(156,188,188);" />
<path d="M2261.557,1282.526 A792.000,792.000 40.000 0,1 2261.765,1283.256 L2325.246,1265.194 A858.000,858.000 0.000 0,0 2325.020,1264.403 Z" style="stroke-width:1.0;stroke:rgb(156,188,188);stroke-linecap:round;fill:rgb(156,188,188);" />
<path d="M716.519,1384.150 A792.000,792.000 40.000 0,1 716.629,1383.410 L651.348,1373.694 A858.000,858.000 0.000 0,0 651.229,1374.496 Z" style="stroke-width:1.0;stroke:rgb(156,188,188);stroke-linecap:round;fill:rgb(156,188,188);" />
<path d="M776.016,1821.110 A792.000,792.000 40.000 0,1 775.753,1820.516 L715.399,1847.225 A858.000,858.000 0.000 0,0 715.684,1847.869 Z" style="stroke-width:1.0;stroke:rgb(156,188,188);stroke-linecap:round;fill:rgb(156,188,188);" />
</g>
<g id="plot3">
<g id="plot3-axis">
</g>
<path d="M701.414,1964.798 A924.000,924.000 40.000 0,1 576.032,1507.710 L642.030,1507.159 A858.000,858.000 0.000 0,0 758.456,1931.598 Z" style="stroke-width:1.0;stroke:rgb(156,188,188);stroke-linecap:round;fill:rgb(156,188,188);" />
<path d="M2257.636,2028.927 A924.000,924.000 40.000 0,1 1980.883,2289.004 L1946.534,2232.647 A858.000,858.000 0.000 0,0 2203.519,1991.146 Z" style="stroke-width:1.0;stroke:rgb(156,188,188);stroke-linecap:round;fill:rgb(156,188,188);" />
<path d="M651.601,1133.947 A924.000,924.000 40.000 0,1 839.829,853.509 L886.984,899.687 A858.000,858.000 0.000 0,0 712.201,1160.094 Z" style="stroke-width:1.0;stroke:rgb(156,188,188);stroke-linecap:round;fill:rgb(156,188,188);" />
<path d="M576.023,1506.541 A924.000,924.000 40.000 0,1 610.936,1248.322 L674.441,1266.299 A858.000,858.000 0.000 0,0 642.022,1506.074 Z" style="stroke-width:1.0;stroke:rgb(156,188,188);stroke-linecap:round;fill:rgb(156,188,188);" />
<path d="M1683.093,594.322 A924.000,924.000 40.000 0,1 1922.110,678.052 L1891.959,736.762 A858.000,858.000 0.000 0,0 1670.015,659.013 Z" style="stroke-width:1.0;stroke:rgb(156,188,188);stroke-linecap:round;fill:rgb(156,188,188);" />
<path d="M1993.693,718.948 A924.000,924.000 40.000 0,1 2163.510,856.937 L2116.116,902.870 A858.000,858.000 0.000 0,0 1958.429,774.737 Z" style="stroke-width:1.0;stroke:rgb(156,188,188);stroke-linecap:round;fill:rgb(156,188,188);" />
<path d="M2280.360,1005.213 A924.000,924.000 40.000 0,1 2353.845,1146.835 L2292.856,1172.061 A858.000,858.000 0.000 0,0 2224.620,1040.555 Z" style="stroke-width:1.0;stroke:rgb(156,188,188);stroke-linecap:round;fill:rgb(156,188,188);" />
<path d="M905.322,792.798 A924.000,924.000 40.000 0,1 1016.744,712.447 L1051.263,768.701 A858.000,858.000 0.000 0,0 947.799,843.313 Z" style="stroke-width:1.0;stroke:rgb(156,188,188);stroke-linecap:round;fill:rgb(156,188,188);" />
<path d="M2370.180,1810.745 A924.000,924.000 40.000 0,1 2317.456,1930.746 L2259.066,1899.978 A858.000,858.000 0.000 0,0 2308.024,1788.549 Z" style="stroke-width:1.0;stroke:rgb(156,188,188);stroke-linecap:round;fill:rgb(156,188,188);" />
<path d="M1500.000,576.000 A924.000,924.000 40.000 0,1 1627.449,584.832 L1618.346,650.201 A858.000,858.000 0.000 0,0 1500.000,642.000 Z" style="stroke-width:1.0;stroke:rgb(156,188,188);stroke-linecap:round;fill:rgb(156,188,188);" />
<path d="M2408.826,1666.769 A924.000,924.000 40.000 0,1 2382.382,1774.186 L2319.355,1754.601 A858.000,858.000 0.000 0,0 2343.910,1654.857 Z" style="stroke-width:1.0;stroke:rgb(156,188,188);stroke-linecap:round;fill:rgb(156,188,188);" />
<path d="M1344.772,2410.868 A924.000,924.000 40.000 0,1 1271.210,2395.227 L1287.552,2331.282 A858.000,858.000 0.000 0,0 1355.860,2345.806 Z" style="stroke-width:1.0;stroke:rgb(156,188,188);stroke-linecap:round;fill:rgb(156,188,188);" />
<path d="M1233.190,2384.640 A924.000,924.000 40.000 0,1 1179.924,2366.791 L1202.786,2304.878 A858.000,858.000 0.000 0,0 1252.248,2321.452 Z" style="stroke-width:1.0;stroke:rgb(156,188,188);stroke-linecap:round;fill:rgb(156,188,188);" />
<path d="M793.213,2095.171 A924.000,924.000 40.000 0,1 758.857,2051.799 L811.795,2012.385 A858.000,858.000 0.000 0,0 843.698,2052.659 Z" style="stroke-width:1.0;stroke:rgb(156,188,188);stroke-linecap:round;fill:rgb(156,188,188);" />
<path d="M2392.637,1261.304 A924.000,924.000 40.000 0,1 2403.716,1307.455 L2339.165,1321.208 A858.000,858.000 0.000 0,0 2328.877,1278.353 Z" style="stroke-width:1.0;stroke:rgb(156,188,188);stroke-linecap:round;fill:rgb(156,188,188);" />
<path d="M1453.870,577.152 A924.000,924.000 40.000 0,1 1499.855,576.000 L1499.865,642.000 A858.000,858.000 0.000 0,0 1457.165,643.070 Z" style="stroke-width:1.0;stroke:rgb(156,188,188);stroke-linecap:round;fill:rgb(156,188,188);" />
<path d="M1748.627,2389.922 A924.000,924.000 40.000 0,1 1704.793,2401.019 L1690.165,2336.661 A858.000,858.000 0.000 0,0 1730.868,2326.356 Z" style="stroke-width:1.0;stroke:rgb(156,188,188);stroke-linecap:round;fill:rgb(156,188,188);" />
<path d="M2373.301,1198.138 A924.000,924.000 40.000 0,1 2385.097,1234.709 L2321.876,1253.658 A858.000,858.000 0.000 0,0 2310.923,1219.700 Z" style="stroke-width:1.0;stroke:rgb(156,188,188);stroke-linecap:round;fill:rgb(156,188,188);" />
<path d="M1157.773,2358.287 A924.000,924.000 40.000 0,1 1123.637,2343.876 L1150.521,2283.599 A858.000,858.000 0.000 0,0 1182.218,2296.981 Z" style="stroke-width:1.0;stroke:rgb(156,188,188);stroke-linecap:round;fill:rgb(156,188,188);" />
<path d="M619.522,1219.759 A924.000,924.000 40.000 0,1 629.533,1190.061 L691.709,1212.199 A858.000,858.000 0.000 0,0 682.414,1239.776 Z" style="stroke-width:1.0;stroke:rgb(156,188,188);stroke-linecap:round;fill:rgb(156,188,188);" />
<path d="M1000.640,2277.442 A924.000,924.000 40.000 0,1 974.625,2260.103 L1012.152,2205.810 A858.000,858.000 0.000 0,0 1036.308,2221.910 Z" style="stroke-width:1.0;stroke:rgb(156,188,188);stroke-linecap:round;fill:rgb(156,188,188);" />
<path d="M2409.769,1338.454 A924.000,924.000 40.000 0,1 2414.156,1365.486 L2348.860,1375.094 A858.000,858.000 0.000 0,0 2344.785,1349.993 Z" style="stroke-width:1.0;stroke:rgb(156,188,188);stroke-linecap:round;fill:rgb(156,188,188);" />
<path d="M611.364,1246.815 A924.000,924.000 40.000 0,1 617.703,1225.540 L680.724,1245.144 A858.000,858.000 0.000 0,0 674.838,1264.899 Z" style="stroke-width:1.0;stroke:rgb(156,188,188);stroke-linecap:round;fill:rgb(156,188,188);" />
<path d="M1093.747,2329.900 A924.000,924.000 40.000 0,1 1075.501,2320.717 L1105.822,2262.094 A858.000,858.000 0.000 0,0 1122.765,2270.622 Z" style="stroke-width:1.0;stroke:rgb(156,188,188);stroke-linecap:round;fill:rgb(156,188,188);" />
<path d="M822.791,2128.621 A924.000,924.000 40.000 0,1 810.665,2115.300 L859.904,2071.350 A858.000,858.000 0.000 0,0 871.163,2083.720 Z" style="stroke-width:1.0;stroke:rgb(156,188,188);stroke-linecap:round;fill:rgb(156,188,188);" />
<path d="M2316.820,1931.950 A924.000,924.000 40.000 0,1 2308.468,1947.387 L2250.721,1915.430 A858.000,858.000 0.000 0,0 2258.476,1901.096 Z" style="stroke-width:1.0;stroke:rgb(156,188,188);stroke-linecap:round;fill:rgb(156,188,188);" />
<path d="M2227.750,930.653 A924.000,924.000 40.000 0,1 2238.224,944.302 L2185.494,983.994 A858.000,858.000 0.000 0,0 2175.768,971.320 Z" style="stroke-width:1.0;stroke:rgb(156,188,188);stroke-linecap:round;fill:rgb(156,188,188);" />
<path d="M1439.231,2422.000 A924.000,924.000 40.000 0,1 1422.113,2420.711 L1427.676,2354.946 A858.000,858.000 0.000 0,0 1443.572,2356.142 Z" style="stroke-width:1.0;stroke:rgb(156,188,188);stroke-linecap:round;fill:rgb(156,188,188);" />
<path d="M1343.431,589.362 A924.000,924.000 40.000 0,1 1360.312,586.620 L1370.290,651.861 A858.000,858.000 0.000 0,0 1354.615,654.407 Z" style="stroke-width:1.0;stroke:rgb(156,188,188);stroke-linecap:round;fill:rgb(156,188,188);" />
<path d="M879.442,2184.604 A924.000,924.000 40.000 0,1 867.832,2173.899 L912.987,2125.763 A858.000,858.000 0.000 0,0 923.767,2135.704 Z" style="stroke-width:1.0;stroke:rgb(156,188,188);stroke-linecap:round;fill:rgb(156,188,188);" />
<path d="M2421.070,1573.521 A924.000,924.000 40.000 0,1 2419.906,1586.888 L2354.198,1580.682 A858.000,858.000 0.000 0,0 2355.280,1568.270 Z" style="stroke-width:1.0;stroke:rgb(156,188,188);stroke-linecap:round;fill:rgb(156,188,188);" />
<path d="M1900.029,2332.918 A924.000,924.000 40.000 0,1 1898.883,2333.468 L1870.391,2273.934 A858.000,858.000 0.000 0,0 1871.456,2273.424 Z" style="stroke-width:1.0;stroke:rgb(156,188,188);stroke-linecap:round;fill:rgb(156,188,188);" />
<path d="M1048.977,693.555 A924.000,924.000 40.000 0,1 1049.817,693.085 L1081.973,750.722 A858.000,858.000 0.000 0,0 1081.193,751.158 Z" style="stroke-width:1.0;stroke:rgb(156,188,188);stroke-linecap:round;fill:rgb(156,188,188);" />
<path d="M1195.452,627.632 A924.000,924.000 40.000 0,1 1196.155,627.387 L1217.858,689.716 A858.000,858.000 0.000 0,0 1217.205,689.944 Z" style="stroke-width:1.0;stroke:rgb(156,188,188);stroke-linecap:round;fill:rgb(156,188,188);" />
<path d="M1030.219,2295.664 A924.000,924.000 40.000 0,1 1029.722,2295.371 L1063.313,2238.558 A858.000,858.000 0.000 0,0 1063.775,2238.831 Z" style="stroke-width:1.0;stroke:rgb(156,188,188);stroke-linecap:round;fill:rgb(156,188,188);" />
<path d="M1602.169,2418.334 A924.000,924.000 40.000 0,1 1601.672,2418.389 L1594.409,2352.790 A858.000,858.000 0.000 0,0 1594.872,2352.739 Z" style="stroke-width:1.0;stroke:rgb(156,188,188);stroke-linecap:round;fill:rgb(156,188,188);" />
</g>
<defs>
<pattern id="vline" width="10" height="10" patternTransform="rotate(0 0 0)" patternUnits="userSpaceOnUse"><line x1="0" y1="0" x2="0" y2="10" style="stroke:black;stroke-width:5" /></pattern>
<pattern id="checker" width="10" height="10" patternTransform="rotate(45 0 0)" patternUnits="userSpaceOnUse"><line x1="0" y1="0" x2="10" y2="0" style="stroke:black;stroke-width:2" /><line x1="0" y1="0" x2="0" y2="10" style="stroke:black;stroke-width:2" /></pattern>
<pattern id="checker" width="10" height="10" patternTransform="rotate(45 0 0)" patternUnits="userSpaceOnUse"><line x1="0" y1="0" x2="10" y2="0" style="stroke:black;stroke-width:5" /><line x1="0" y1="0" x2="0" y2="10" style="stroke:black;stroke-width:4" /></pattern>
<pattern id="hline-sparse" width="10" height="10" patternTransform="rotate(0 0 0)" patternUnits="userSpaceOnUse"><line x1="0" y1="0" x2="10" y2="0" style="stroke:black;stroke-width:2" /></pattern>
<pattern id="hline" width="10" height="10" patternTransform="rotate(0 0 0)" patternUnits="userSpaceOnUse"><line x1="0" y1="0" x2="10" y2="0" style="stroke:black;stroke-width:5" /></pattern>
<pattern id="vline-sparse" width="10" height="10" patternTransform="rotate(0 0 0)" patternUnits="userSpaceOnUse"><line x1="0" y1="0" x2="0" y2="10" style="stroke:black;stroke-width:2" /></pattern>
</defs>
</svg>
