<?xml version="1.0" encoding="utf-8" standalone="no"?>
<!DOCTYPE svg PUBLIC "-//W3C//DTD SVG 1.1//EN" "http://www.w3.org/Graphics/SVG/1.1/DTD/svg11.dtd">
<svg width="3000px" height="3000px" version="1.1" xmlns="http://www.w3.org/2000/svg" xmlns:xlink="http://www.w3.org/1999/xlink">
<g id="bg">
<rect x="0" y="0" width="3000px" height="3000px" style="fill:rgb(255,255,255);"/>
</g>
<g id="ideograms">
<path d="M1500.000,180.000 A1320.000,1320.000 40.000 1,1 1499.562,180.000 L1499.552,150.000 A1350.000,1350.000 0.000 1,0 1500.000,150.000 Z" style="stroke-linecap:round;fill:rgb(115,115,115);" />
<line x1='1500.0' y1='150.0' x2='1500.0' y2='140.0' style="stroke-width:1.0;stroke:rgb(0,0,0);stroke-linecap:round;fill:none;" />
<text x="1510.0" y="140.0" font-size="26.0px" font-family="CMUBright-Roman" style="text-anchor:start;fill:rgb(0,0,0);" transform="rotate(270.0,1510.0,140.0)" >0</text>
<line x1='1687.0' y1='163.0' x2='1688.4' y2='153.1' style="stroke-width:1.0;stroke:rgb(0,0,0);stroke-linecap:round;fill:none;" />
<text x="1698.3" y="154.5" font-size="26.0px" font-family="CMUBright-Roman" style="text-anchor:start;fill:rgb(0,0,0);" transform="rotate(278.0,1698.3,154.5)" >10000</text>
<line x1='1870.4' y1='201.8' x2='1873.1' y2='192.2' style="stroke-width:1.0;stroke:rgb(0,0,0);stroke-linecap:round;fill:none;" />
<text x="1882.7" y="195.0" font-size="26.0px" font-family="CMUBright-Roman" style="text-anchor:start;fill:rgb(0,0,0);" transform="rotate(285.9,1882.7,195.0)" >20000</text>
<line x1='2046.6' y1='265.6' x2='2050.7' y2='256.5' style="stroke-width:1.0;stroke:rgb(0,0,0);stroke-linecap:round;fill:none;" />
<text x="2059.8" y="260.6" font-size="26.0px" font-family="CMUBright-Roman" style="text-anchor:start;fill:rgb(0,0,0);" transform="rotate(293.9,2059.8,260.6)" >30000</text>
<line x1='2212.3' y1='353.2' x2='2217.6' y2='344.7' style="stroke-width:1.0;stroke:rgb(0,0,0);stroke-linecap:round;fill:none;" />
<text x="2226.1" y="350.0" font-size="26.0px" font-family="CMUBright-Roman" style="text-anchor:start;fill:rgb(0,0,0);" transform="rotate(301.8,2226.1,350.0)" >40000</text>
<line x1='2364.3' y1='462.9' x2='2370.7' y2='455.3' style="stroke-width:1.0;stroke:rgb(0,0,0);stroke-linecap:round;fill:none;" />
<text x="2378.4" y="461.7" font-size="26.0px" font-family="CMUBright-Roman" style="text-anchor:start;fill:rgb(0,0,0);" transform="rotate(309.8,2378.4,461.7)" >50000</text>
<line x1='2499.6' y1='592.7' x2='2507.0' y2='585.9' style="stroke-width:1.0;stroke:rgb(0,0,0);stroke-linecap:round;fill:none;" />
<text x="2513.7" y="593.4" font-size="26.0px" font-family="CMUBright-Roman" style="text-anchor:start;fill:rgb(0,0,0);" transform="rotate(317.8,2513.7,593.4)" >60000</text>
<line x1='2615.7' y1='739.9' x2='2623.9' y2='734.2' style="stroke-width:1.0;stroke:rgb(0,0,0);stroke-linecap:round;fill:none;" />
<text x="2629.5" y="742.5" font-size="26.0px" font-family="CMUBright-Roman" style="text-anchor:start;fill:rgb(0,0,0);" transform="rotate(325.7,2629.5,742.5)" >70000</text>
<line x1='2710.2' y1='901.7' x2='2719.2' y2='897.3' style="stroke-width:1.0;stroke:rgb(0,0,0);stroke-linecap:round;fill:none;" />
<text x="2723.5" y="906.3" font-size="26.0px" font-family="CMUBright-Roman" style="text-anchor:start;fill:rgb(0,0,0);" transform="rotate(333.7,2723.5,906.3)" >80000</text>
<line x1='2781.4' y1='1075.1' x2='2790.9' y2='1072.0' style="stroke-width:1.0;stroke:rgb(0,0,0);stroke-linecap:round;fill:none;" />
<text x="2794.0" y="1081.5" font-size="26.0px" font-family="CMUBright-Roman" style="text-anchor:start;fill:rgb(0,0,0);" transform="rotate(341.7,2794.0,1081.5)" >90000</text>
<line x1='2827.9' y1='1256.7' x2='2837.7' y2='1254.9' style="stroke-width:1.0;stroke:rgb(0,0,0);stroke-linecap:round;fill:none;" />
<text x="2839.5" y="1264.7" font-size="26.0px" font-family="CMUBright-Roman" style="text-anchor:start;fill:rgb(0,0,0);" transform="rotate(349.6,2839.5,1264.7)" >100000</text>
<line x1='2848.8' y1='1443.0' x2='2858.8' y2='1442.5' style="stroke-width:1.0;stroke:rgb(0,0,0);stroke-linecap:round;fill:none;" />
<text x="2859.2" y="1452.5" font-size="26.0px" font-family="CMUBright-Roman" style="text-anchor:start;fill:rgb(0,0,0);" transform="rotate(357.6,2859.2,1452.5)" >110000</text>
<line x1='2843.7' y1='1630.3' x2='2853.6' y2='1631.3' style="stroke-width:1.0;stroke:rgb(0,0,0);stroke-linecap:round;fill:none;" />
<text x="2852.6" y="1641.2" font-size="26.0px" font-family="CMUBright-Roman" style="text-anchor:start;fill:rgb(0,0,0);" transform="rotate(5.5,2852.6,1641.2)" >120000</text>
<line x1='2812.7' y1='1815.2' x2='2822.4' y2='1817.5' style="stroke-width:1.0;stroke:rgb(0,0,0);stroke-linecap:round;fill:none;" />
<text x="2820.0" y="1827.2" font-size="26.0px" font-family="CMUBright-Roman" style="text-anchor:start;fill:rgb(0,0,0);" transform="rotate(13.5,2820.0,1827.2)" >130000</text>
<line x1='2756.4' y1='1994.0' x2='2765.7' y2='1997.6' style="stroke-width:1.0;stroke:rgb(0,0,0);stroke-linecap:round;fill:none;" />
<text x="2762.0" y="2006.9" font-size="26.0px" font-family="CMUBright-Roman" style="text-anchor:start;fill:rgb(0,0,0);" transform="rotate(21.5,2762.0,2006.9)" >140000</text>
<line x1='2675.9' y1='2163.2' x2='2684.6' y2='2168.1' style="stroke-width:1.0;stroke:rgb(0,0,0);stroke-linecap:round;fill:none;" />
<text x="2679.6" y="2176.8" font-size="26.0px" font-family="CMUBright-Roman" style="text-anchor:start;fill:rgb(0,0,0);" transform="rotate(29.4,2679.6,2176.8)" >150000</text>
<line x1='2572.7' y1='2319.7' x2='2580.6' y2='2325.8' style="stroke-width:1.0;stroke:rgb(0,0,0);stroke-linecap:round;fill:none;" />
<text x="2574.5" y="2333.7" font-size="26.0px" font-family="CMUBright-Roman" style="text-anchor:start;fill:rgb(0,0,0);" transform="rotate(37.4,2574.5,2333.7)" >160000</text>
<line x1='2448.8' y1='2460.4' x2='2455.8' y2='2467.5' style="stroke-width:1.0;stroke:rgb(0,0,0);stroke-linecap:round;fill:none;" />
<text x="2448.7" y="2474.5" font-size="26.0px" font-family="CMUBright-Roman" style="text-anchor:start;fill:rgb(0,0,0);" transform="rotate(45.3,2448.7,2474.5)" >170000</text>
<line x1='2306.6' y1='2582.5' x2='2312.6' y2='2590.6' style="stroke-width:1.0;stroke:rgb(0,0,0);stroke-linecap:round;fill:none;" />
<text x="2304.5" y="2596.5" font-size="26.0px" font-family="CMUBright-Roman" style="text-anchor:start;fill:rgb(0,0,0);" transform="rotate(53.3,2304.5,2596.5)" >180000</text>
<line x1='2148.9' y1='2683.8' x2='2153.7' y2='2692.6' style="stroke-width:1.0;stroke:rgb(0,0,0);stroke-linecap:round;fill:none;" />
<text x="2144.9" y="2697.4" font-size="26.0px" font-family="CMUBright-Roman" style="text-anchor:start;fill:rgb(0,0,0);" transform="rotate(61.3,2144.9,2697.4)" >190000</text>
<line x1='1978.7' y1='2762.3' x2='1982.2' y2='2771.6' style="stroke-width:1.0;stroke:rgb(0,0,0);stroke-linecap:round;fill:none;" />
<text x="1972.8" y="2775.2" font-size="26.0px" font-family="CMUBright-Roman" style="text-anchor:start;fill:rgb(0,0,0);" transform="rotate(69.2,1972.8,2775.2)" >200000</text>
<line x1='1799.2' y1='2816.4' x2='1801.4' y2='2826.2' style="stroke-width:1.0;stroke:rgb(0,0,0);stroke-linecap:round;fill:none;" />
<text x="1791.7" y="2828.4" font-size="26.0px" font-family="CMUBright-Roman" style="text-anchor:start;fill:rgb(0,0,0);" transform="rotate(77.2,1791.7,2828.4)" >210000</text>
<line x1='1614.0' y1='2845.2' x2='1614.8' y2='2855.1' style="stroke-width:1.0;stroke:rgb(0,0,0);stroke-linecap:round;fill:none;" />
<text x="1604.9" y="2856.0" font-size="26.0px" font-family="CMUBright-Roman" style="text-anchor:start;fill:rgb(0,0,0);" transform="rotate(85.2,1604.9,2856.0)" >220000</text>
<line x1='1426.6' y1='2848.0' x2='1426.0' y2='2858.0' style="stroke-width:1.0;stroke:rgb(0,0,0);stroke-linecap:round;fill:none;" />
<text x="1436.0" y="2858.5" font-size="26.0px" font-family="CMUBright-Roman" style="text-anchor:end;fill:rgb(0,0,0);" transform="rotate(-86.9,1436.0,2858.5)" >230000</text>
<line x1='1240.6' y1='2824.8' x2='1238.6' y2='2834.7' style="stroke-width:1.0;stroke:rgb(0,0,0);stroke-linecap:round;fill:none;" />
<text x="1248.5" y="2836.5" font-size="26.0px" font-family="CMUBright-Roman" style="text-anchor:end;fill:rgb(0,0,0);" transform="rotate(-78.9,1248.5,2836.5)" >240000</text>
<line x1='1059.6' y1='2776.1' x2='1056.3' y2='2785.6' style="stroke-width:1.0;stroke:rgb(0,0,0);stroke-linecap:round;fill:none;" />
<text x="1065.8" y="2788.8" font-size="26.0px" font-family="CMUBright-Roman" style="text-anchor:end;fill:rgb(0,0,0);" transform="rotate(-71.0,1065.8,2788.8)" >250000</text>
<line x1='887.0' y1='2702.8' x2='882.5' y2='2711.7' style="stroke-width:1.0;stroke:rgb(0,0,0);stroke-linecap:round;fill:none;" />
<text x="891.4" y="2716.2" font-size="26.0px" font-family="CMUBright-Roman" style="text-anchor:end;fill:rgb(0,0,0);" transform="rotate(-63.0,891.4,2716.2)" >260000</text>
<line x1='726.4' y1='2606.3' x2='720.6' y2='2614.5' style="stroke-width:1.0;stroke:rgb(0,0,0);stroke-linecap:round;fill:none;" />
<text x="728.8" y="2620.2" font-size="26.0px" font-family="CMUBright-Roman" style="text-anchor:end;fill:rgb(0,0,0);" transform="rotate(-55.0,728.8,2620.2)" >270000</text>
<line x1='580.6' y1='2488.5' x2='573.8' y2='2495.8' style="stroke-width:1.0;stroke:rgb(0,0,0);stroke-linecap:round;fill:none;" />
<text x="581.1" y="2502.6" font-size="26.0px" font-family="CMUBright-Roman" style="text-anchor:end;fill:rgb(0,0,0);" transform="rotate(-47.1,581.1,2502.6)" >280000</text>
<line x1='452.5' y1='2351.6' x2='444.8' y2='2357.9' style="stroke-width:1.0;stroke:rgb(0,0,0);stroke-linecap:round;fill:none;" />
<text x="451.1" y="2365.7" font-size="26.0px" font-family="CMUBright-Roman" style="text-anchor:end;fill:rgb(0,0,0);" transform="rotate(-39.1,451.1,2365.7)" >290000</text>
<line x1='344.7' y1='2198.3' x2='336.1' y2='2203.5' style="stroke-width:1.0;stroke:rgb(0,0,0);stroke-linecap:round;fill:none;" />
<text x="341.3" y="2212.0" font-size="26.0px" font-family="CMUBright-Roman" style="text-anchor:end;fill:rgb(0,0,0);" transform="rotate(-31.2,341.3,2212.0)" >300000</text>
<line x1='259.1' y1='2031.6' x2='249.9' y2='2035.5' style="stroke-width:1.0;stroke:rgb(0,0,0);stroke-linecap:round;fill:none;" />
<text x="253.8" y="2044.7" font-size="26.0px" font-family="CMUBright-Roman" style="text-anchor:end;fill:rgb(0,0,0);" transform="rotate(-23.2,253.8,2044.7)" >310000</text>
<line x1='197.4' y1='1854.6' x2='187.7' y2='1857.2' style="stroke-width:1.0;stroke:rgb(0,0,0);stroke-linecap:round;fill:none;" />
<text x="190.4" y="1866.8" font-size="26.0px" font-family="CMUBright-Roman" style="text-anchor:end;fill:rgb(0,0,0);" transform="rotate(-15.2,190.4,1866.8)" >320000</text>
<line x1='160.8' y1='1670.7' x2='150.9' y2='1672.0' style="stroke-width:1.0;stroke:rgb(0,0,0);stroke-linecap:round;fill:none;" />
<text x="152.2" y="1681.9" font-size="26.0px" font-family="CMUBright-Roman" style="text-anchor:end;fill:rgb(0,0,0);" transform="rotate(-7.3,152.2,1681.9)" >330000</text>
<line x1='150.1' y1='1483.6' x2='140.1' y2='1483.5' style="stroke-width:1.0;stroke:rgb(0,0,0);stroke-linecap:round;fill:none;" />
<text x="140.0" y="1493.5" font-size="26.0px" font-family="CMUBright-Roman" style="text-anchor:end;fill:rgb(0,0,0);" transform="rotate(0.7,140.0,1493.5)" >340000</text>
<line x1='165.4' y1='1296.8' x2='155.5' y2='1295.3' style="stroke-width:1.0;stroke:rgb(0,0,0);stroke-linecap:round;fill:none;" />
<text x="154.0" y="1305.2" font-size="26.0px" font-family="CMUBright-Roman" style="text-anchor:end;fill:rgb(0,0,0);" transform="rotate(8.7,154.0,1305.2)" >350000</text>
<line x1='206.4' y1='1113.9' x2='196.8' y2='1111.0' style="stroke-width:1.0;stroke:rgb(0,0,0);stroke-linecap:round;fill:none;" />
<text x="194.0" y="1120.6" font-size="26.0px" font-family="CMUBright-Roman" style="text-anchor:end;fill:rgb(0,0,0);" transform="rotate(16.6,194.0,1120.6)" >360000</text>
<line x1='272.3' y1='938.4' x2='263.3' y2='934.3' style="stroke-width:1.0;stroke:rgb(0,0,0);stroke-linecap:round;fill:none;" />
<text x="259.1" y="943.4" font-size="26.0px" font-family="CMUBright-Roman" style="text-anchor:end;fill:rgb(0,0,0);" transform="rotate(24.6,259.1,943.4)" >370000</text>
<line x1='362.0' y1='773.8' x2='353.5' y2='768.4' style="stroke-width:1.0;stroke:rgb(0,0,0);stroke-linecap:round;fill:none;" />
<text x="348.2" y="776.9" font-size="26.0px" font-family="CMUBright-Roman" style="text-anchor:end;fill:rgb(0,0,0);" transform="rotate(32.5,348.2,776.9)" >380000</text>
<line x1='473.5' y1='623.2' x2='465.9' y2='616.7' style="stroke-width:1.0;stroke:rgb(0,0,0);stroke-linecap:round;fill:none;" />
<text x="459.5" y="624.3" font-size="26.0px" font-family="CMUBright-Roman" style="text-anchor:end;fill:rgb(0,0,0);" transform="rotate(40.5,459.5,624.3)" >390000</text>
<line x1='604.9' y1='489.4' x2='598.2' y2='482.0' style="stroke-width:1.0;stroke:rgb(0,0,0);stroke-linecap:round;fill:none;" />
<text x="590.8" y="488.6" font-size="26.0px" font-family="CMUBright-Roman" style="text-anchor:end;fill:rgb(0,0,0);" transform="rotate(48.5,590.8,488.6)" >400000</text>
<line x1='753.5' y1='375.2' x2='747.9' y2='366.9' style="stroke-width:1.0;stroke:rgb(0,0,0);stroke-linecap:round;fill:none;" />
<text x="739.6" y="372.4" font-size="26.0px" font-family="CMUBright-Roman" style="text-anchor:end;fill:rgb(0,0,0);" transform="rotate(56.4,739.6,372.4)" >410000</text>
<line x1='916.5' y1='282.6' x2='912.1' y2='273.6' style="stroke-width:1.0;stroke:rgb(0,0,0);stroke-linecap:round;fill:none;" />
<text x="903.1" y="278.0" font-size="26.0px" font-family="CMUBright-Roman" style="text-anchor:end;fill:rgb(0,0,0);" transform="rotate(64.4,903.1,278.0)" >420000</text>
<line x1='1090.7' y1='213.5' x2='1087.7' y2='204.0' style="stroke-width:1.0;stroke:rgb(0,0,0);stroke-linecap:round;fill:none;" />
<text x="1078.2" y="207.1" font-size="26.0px" font-family="CMUBright-Roman" style="text-anchor:end;fill:rgb(0,0,0);" transform="rotate(72.4,1078.2,207.1)" >430000</text>
<line x1='1272.8' y1='169.2' x2='1271.2' y2='159.4' style="stroke-width:1.0;stroke:rgb(0,0,0);stroke-linecap:round;fill:none;" />
<text x="1261.3" y="161.1" font-size="26.0px" font-family="CMUBright-Roman" style="text-anchor:end;fill:rgb(0,0,0);" transform="rotate(80.3,1261.3,161.1)" >440000</text>
<line x1='1459.3' y1='150.6' x2='1459.0' y2='140.6' style="stroke-width:1.0;stroke:rgb(0,0,0);stroke-linecap:round;fill:none;" />
<text x="1449.1" y="141.0" font-size="26.0px" font-family="CMUBright-Roman" style="text-anchor:end;fill:rgb(0,0,0);" transform="rotate(88.3,1449.1,141.0)" >450000</text>
</g>
<g id="plot0">
<g id="plot0-axis">
</g>
<path d="M883.953,1858.567 A712.800,712.800 40.000 0,1 787.220,1505.373 L734.422,1505.771 A765.600,765.600 0.000 0,0 838.320,1885.127 Z" style="stroke-width:1.0;stroke:rgb(192,196,160);stroke-linecap:round;fill:rgb(192,196,160);" />
<path d="M832.681,1249.462 A712.800,712.800 40.000 0,1 991.134,1000.861 L953.441,963.888 A765.600,765.600 0.000 0,0 783.250,1230.904 Z" style="stroke-width:1.0;stroke:rgb(192,196,160);stroke-linecap:round;fill:rgb(192,196,160);" />
<path d="M2084.457,1908.037 A712.800,712.800 40.000 0,1 1870.967,2108.661 L1898.446,2153.747 A765.600,765.600 0.000 0,0 2127.750,1938.262 Z" style="stroke-width:1.0;stroke:rgb(192,196,160);stroke-linecap:round;fill:rgb(192,196,160);" />
<path d="M1880.849,897.474 A712.800,712.800 40.000 0,1 2011.906,1003.979 L2049.825,967.237 A765.600,765.600 0.000 0,0 1909.060,852.842 Z" style="stroke-width:1.0;stroke:rgb(192,196,160);stroke-linecap:round;fill:rgb(192,196,160);" />
<path d="M1243.031,835.131 A712.800,712.800 40.000 0,1 1374.701,798.299 L1365.420,746.321 A765.600,765.600 0.000 0,0 1223.997,785.881 Z" style="stroke-width:1.0;stroke:rgb(192,196,160);stroke-linecap:round;fill:rgb(192,196,160);" />
<path d="M2101.658,1117.780 A712.800,712.800 40.000 0,1 2158.680,1227.558 L2207.471,1207.378 A765.600,765.600 0.000 0,0 2146.225,1089.468 Z" style="stroke-width:1.0;stroke:rgb(192,196,160);stroke-linecap:round;fill:rgb(192,196,160);" />
<path d="M1041.241,954.451 A712.800,712.800 40.000 0,1 1127.684,892.164 L1100.105,847.139 A765.600,765.600 0.000 0,0 1007.259,914.040 Z" style="stroke-width:1.0;stroke:rgb(192,196,160);stroke-linecap:round;fill:rgb(192,196,160);" />
<path d="M2201.354,1627.228 A712.800,712.800 40.000 0,1 2180.709,1711.468 L2231.132,1727.132 A765.600,765.600 0.000 0,0 2253.306,1636.652 Z" style="stroke-width:1.0;stroke:rgb(192,196,160);stroke-linecap:round;fill:rgb(192,196,160);" />
<path d="M1534.660,2211.957 A712.800,712.800 40.000 0,1 1456.749,2211.487 L1453.545,2264.189 A765.600,765.600 0.000 0,0 1537.227,2264.694 Z" style="stroke-width:1.0;stroke:rgb(192,196,160);stroke-linecap:round;fill:rgb(192,196,160);" />
<path d="M1500.000,787.200 A712.800,712.800 40.000 0,1 1573.748,791.025 L1579.211,738.509 A765.600,765.600 0.000 0,0 1500.000,734.400 Z" style="stroke-width:1.0;stroke:rgb(192,196,160);stroke-linecap:round;fill:rgb(192,196,160);" />
<path d="M2188.608,1315.872 A712.800,712.800 40.000 0,1 2197.152,1351.466 L2248.793,1340.463 A765.600,765.600 0.000 0,0 2239.616,1302.233 Z" style="stroke-width:1.0;stroke:rgb(192,196,160);stroke-linecap:round;fill:rgb(192,196,160);" />
<path d="M1605.680,795.078 A712.800,712.800 40.000 0,1 1641.030,801.291 L1651.476,749.535 A765.600,765.600 0.000 0,0 1613.508,742.861 Z" style="stroke-width:1.0;stroke:rgb(192,196,160);stroke-linecap:round;fill:rgb(192,196,160);" />
<path d="M1691.798,2186.511 A712.800,712.800 40.000 0,1 1658.167,2195.030 L1669.883,2246.514 A765.600,765.600 0.000 0,0 1706.005,2237.364 Z" style="stroke-width:1.0;stroke:rgb(192,196,160);stroke-linecap:round;fill:rgb(192,196,160);" />
<path d="M2201.775,1375.115 A712.800,712.800 40.000 0,1 2205.267,1396.644 L2257.509,1388.988 A765.600,765.600 0.000 0,0 2253.758,1365.865 Z" style="stroke-width:1.0;stroke:rgb(192,196,160);stroke-linecap:round;fill:rgb(192,196,160);" />
<path d="M814.484,1304.676 A712.800,712.800 40.000 0,1 820.759,1283.861 L770.445,1267.851 A765.600,765.600 0.000 0,0 763.705,1290.208 Z" style="stroke-width:1.0;stroke:rgb(192,196,160);stroke-linecap:round;fill:rgb(192,196,160);" />
<path d="M1321.203,2190.011 A712.800,712.800 40.000 0,1 1302.821,2184.985 L1288.215,2235.725 A765.600,765.600 0.000 0,0 1307.958,2241.123 Z" style="stroke-width:1.0;stroke:rgb(192,196,160);stroke-linecap:round;fill:rgb(192,196,160);" />
<path d="M1045.874,2049.412 A712.800,712.800 40.000 0,1 1032.582,2038.149 L997.958,2078.011 A765.600,765.600 0.000 0,0 1012.235,2090.109 Z" style="stroke-width:1.0;stroke:rgb(192,196,160);stroke-linecap:round;fill:rgb(192,196,160);" />
<path d="M1185.725,2139.777 A712.800,712.800 40.000 0,1 1172.529,2133.124 L1148.272,2180.023 A765.600,765.600 0.000 0,0 1162.445,2187.168 Z" style="stroke-width:1.0;stroke:rgb(192,196,160);stroke-linecap:round;fill:rgb(192,196,160);" />
<path d="M2130.119,1833.218 A712.800,712.800 40.000 0,1 2123.609,1845.248 L2169.802,1870.822 A765.600,765.600 0.000 0,0 2176.794,1857.901 Z" style="stroke-width:1.0;stroke:rgb(192,196,160);stroke-linecap:round;fill:rgb(192,196,160);" />
<path d="M2061.303,1060.657 A712.800,712.800 40.000 0,1 2069.487,1071.318 L2111.672,1039.564 A765.600,765.600 0.000 0,0 2102.881,1028.113 Z" style="stroke-width:1.0;stroke:rgb(192,196,160);stroke-linecap:round;fill:rgb(192,196,160);" />
<path d="M1001.329,2009.324 A712.800,712.800 40.000 0,1 992.176,2000.198 L954.559,2037.250 A765.600,765.600 0.000 0,0 964.391,2047.052 Z" style="stroke-width:1.0;stroke:rgb(192,196,160);stroke-linecap:round;fill:rgb(192,196,160);" />
<path d="M1250.039,2167.535 A712.800,712.800 40.000 0,1 1238.326,2163.031 L1218.942,2212.145 A765.600,765.600 0.000 0,0 1231.523,2216.982 Z" style="stroke-width:1.0;stroke:rgb(192,196,160);stroke-linecap:round;fill:rgb(192,196,160);" />
<path d="M2184.077,1700.307 A712.800,712.800 40.000 0,1 2180.692,1711.525 L2231.113,1727.193 A765.600,765.600 0.000 0,0 2234.749,1715.144 Z" style="stroke-width:1.0;stroke:rgb(192,196,160);stroke-linecap:round;fill:rgb(192,196,160);" />
<path d="M1415.017,2207.716 A712.800,712.800 40.000 0,1 1404.308,2206.348 L1397.220,2258.670 A765.600,765.600 0.000 0,0 1408.722,2260.139 Z" style="stroke-width:1.0;stroke:rgb(192,196,160);stroke-linecap:round;fill:rgb(192,196,160);" />
<path d="M1128.554,2108.368 A712.800,712.800 40.000 0,1 1119.785,2102.926 L1091.620,2147.587 A765.600,765.600 0.000 0,0 1101.040,2153.432 Z" style="stroke-width:1.0;stroke:rgb(192,196,160);stroke-linecap:round;fill:rgb(192,196,160);" />
<path d="M2210.539,1556.726 A712.800,712.800 40.000 0,1 2209.653,1566.909 L2262.220,1571.866 A765.600,765.600 0.000 0,0 2263.172,1560.928 Z" style="stroke-width:1.0;stroke:rgb(192,196,160);stroke-linecap:round;fill:rgb(192,196,160);" />
<path d="M2172.952,1265.011 A712.800,712.800 40.000 0,1 2173.229,1265.806 L2223.098,1248.458 A765.600,765.600 0.000 0,0 2222.800,1247.605 Z" style="stroke-width:1.0;stroke:rgb(192,196,160);stroke-linecap:round;fill:rgb(192,196,160);" />
<path d="M1393.552,2204.807 A712.800,712.800 40.000 0,1 1393.014,2204.725 L1385.089,2256.927 A765.600,765.600 0.000 0,0 1385.667,2257.015 Z" style="stroke-width:1.0;stroke:rgb(192,196,160);stroke-linecap:round;fill:rgb(192,196,160);" />
</g>
<g id="plot1">
<g id="plot1-axis">
</g>
<path d="M734.417,1505.037 A765.600,765.600 40.000 0,1 763.588,1290.617 L712.801,1276.177 A818.400,818.400 0.000 0,0 681.618,1505.384 Z" style="stroke-width:1.0;stroke:rgb(192,196,160);stroke-linecap:round;fill:rgb(192,196,160);" />
<path d="M1898.182,2153.907 A765.600,765.600 40.000 0,1 1706.333,2237.272 L1720.563,2288.118 A818.400,818.400 0.000 0,0 1925.643,2199.004 Z" style="stroke-width:1.0;stroke:rgb(192,196,160);stroke-linecap:round;fill:rgb(192,196,160);" />
<path d="M1651.706,749.581 A765.600,765.600 40.000 0,1 1828.980,808.685 L1851.668,761.009 A818.400,818.400 0.000 0,0 1662.168,697.828 Z" style="stroke-width:1.0;stroke:rgb(192,196,160);stroke-linecap:round;fill:rgb(192,196,160);" />
<path d="M2257.661,1390.030 A765.600,765.600 40.000 0,1 2264.393,1542.980 L2317.109,1545.944 A818.400,818.400 0.000 0,0 2309.913,1382.446 Z" style="stroke-width:1.0;stroke:rgb(192,196,160);stroke-linecap:round;fill:rgb(192,196,160);" />
<path d="M1669.437,2246.615 A765.600,765.600 40.000 0,1 1540.000,2264.554 L1542.759,2317.282 A818.400,818.400 0.000 0,0 1681.122,2298.106 Z" style="stroke-width:1.0;stroke:rgb(192,196,160);stroke-linecap:round;fill:rgb(192,196,160);" />
<path d="M1104.842,844.261 A765.600,765.600 40.000 0,1 1210.423,791.277 L1190.452,742.399 A818.400,818.400 0.000 0,0 1077.590,799.038 Z" style="stroke-width:1.0;stroke:rgb(192,196,160);stroke-linecap:round;fill:rgb(192,196,160);" />
<path d="M2220.999,1757.495 A765.600,765.600 40.000 0,1 2177.048,1857.421 L2223.740,1882.071 A818.400,818.400 0.000 0,0 2270.723,1775.253 Z" style="stroke-width:1.0;stroke:rgb(192,196,160);stroke-linecap:round;fill:rgb(192,196,160);" />
<path d="M2251.748,1644.976 A765.600,765.600 40.000 0,1 2231.116,1727.183 L2281.538,1742.851 A818.400,818.400 0.000 0,0 2303.593,1654.974 Z" style="stroke-width:1.0;stroke:rgb(192,196,160);stroke-linecap:round;fill:rgb(192,196,160);" />
<path d="M2169.632,1871.129 A765.600,765.600 40.000 0,1 2132.942,1930.729 L2176.593,1960.435 A818.400,818.400 0.000 0,0 2215.813,1896.724 Z" style="stroke-width:1.0;stroke:rgb(192,196,160);stroke-linecap:round;fill:rgb(192,196,160);" />
<path d="M1371.372,2254.717 A765.600,765.600 40.000 0,1 1311.483,2242.027 L1298.481,2293.202 A818.400,818.400 0.000 0,0 1362.501,2306.767 Z" style="stroke-width:1.0;stroke:rgb(192,196,160);stroke-linecap:round;fill:rgb(192,196,160);" />
<path d="M2050.897,968.346 A765.600,765.600 40.000 0,1 2090.668,1012.912 L2131.403,979.319 A818.400,818.400 0.000 0,0 2088.890,931.680 Z" style="stroke-width:1.0;stroke:rgb(192,196,160);stroke-linecap:round;fill:rgb(192,196,160);" />
<path d="M870.189,1935.294 A765.600,765.600 40.000 0,1 838.620,1885.642 L793.008,1912.238 A818.400,818.400 0.000 0,0 826.753,1965.315 Z" style="stroke-width:1.0;stroke:rgb(192,196,160);stroke-linecap:round;fill:rgb(192,196,160);" />
<path d="M964.657,952.687 A765.600,765.600 40.000 0,1 1006.917,914.327 L972.911,873.936 A818.400,818.400 0.000 0,0 927.737,914.942 Z" style="stroke-width:1.0;stroke:rgb(192,196,160);stroke-linecap:round;fill:rgb(192,196,160);" />
<path d="M1449.723,736.053 A765.600,765.600 40.000 0,1 1499.880,734.400 L1499.871,681.600 A818.400,818.400 0.000 0,0 1446.256,683.367 Z" style="stroke-width:1.0;stroke:rgb(192,196,160);stroke-linecap:round;fill:rgb(192,196,160);" />
<path d="M1279.591,2233.187 A765.600,765.600 40.000 0,1 1234.794,2218.198 L1216.504,2267.729 A818.400,818.400 0.000 0,0 1264.391,2283.752 Z" style="stroke-width:1.0;stroke:rgb(192,196,160);stroke-linecap:round;fill:rgb(192,196,160);" />
<path d="M1217.686,2211.648 A765.600,765.600 40.000 0,1 1187.729,2199.021 L1166.193,2247.229 A818.400,818.400 0.000 0,0 1198.216,2260.727 Z" style="stroke-width:1.0;stroke:rgb(192,196,160);stroke-linecap:round;fill:rgb(192,196,160);" />
<path d="M2127.752,1061.741 A765.600,765.600 40.000 0,1 2144.048,1086.061 L2188.465,1057.514 A818.400,818.400 0.000 0,0 2171.045,1031.516 Z" style="stroke-width:1.0;stroke:rgb(192,196,160);stroke-linecap:round;fill:rgb(192,196,160);" />
<path d="M2223.617,1249.956 A765.600,765.600 40.000 0,1 2232.242,1276.471 L2282.741,1261.055 A818.400,818.400 0.000 0,0 2273.522,1232.712 Z" style="stroke-width:1.0;stroke:rgb(192,196,160);stroke-linecap:round;fill:rgb(192,196,160);" />
<path d="M770.397,1268.003 A765.600,765.600 40.000 0,1 778.759,1243.183 L729.018,1225.472 A818.400,818.400 0.000 0,0 720.079,1252.003 Z" style="stroke-width:1.0;stroke:rgb(192,196,160);stroke-linecap:round;fill:rgb(192,196,160);" />
<path d="M1086.235,2144.160 A765.600,765.600 40.000 0,1 1064.681,2129.794 L1034.659,2173.228 A818.400,818.400 0.000 0,0 1057.700,2188.585 Z" style="stroke-width:1.0;stroke:rgb(192,196,160);stroke-linecap:round;fill:rgb(192,196,160);" />
<path d="M1580.333,738.626 A765.600,765.600 40.000 0,1 1605.601,741.718 L1612.884,689.423 A818.400,818.400 0.000 0,0 1585.873,686.118 Z" style="stroke-width:1.0;stroke:rgb(192,196,160);stroke-linecap:round;fill:rgb(192,196,160);" />
<path d="M2258.820,1601.661 A765.600,765.600 40.000 0,1 2255.591,1623.390 L2307.701,1631.900 A818.400,818.400 0.000 0,0 2311.153,1608.672 Z" style="stroke-width:1.0;stroke:rgb(192,196,160);stroke-linecap:round;fill:rgb(192,196,160);" />
<path d="M2207.435,1207.289 A765.600,765.600 40.000 0,1 2215.443,1227.448 L2264.784,1208.651 A818.400,818.400 0.000 0,0 2256.223,1187.102 Z" style="stroke-width:1.0;stroke:rgb(192,196,160);stroke-linecap:round;fill:rgb(192,196,160);" />
<path d="M1117.073,2162.956 A765.600,765.600 40.000 0,1 1102.057,2154.053 L1074.613,2199.160 A818.400,818.400 0.000 0,0 1090.665,2208.677 Z" style="stroke-width:1.0;stroke:rgb(192,196,160);stroke-linecap:round;fill:rgb(192,196,160);" />
<path d="M2248.811,1340.546 A765.600,765.600 40.000 0,1 2251.841,1355.508 L2303.693,1345.544 A818.400,818.400 0.000 0,0 2300.453,1329.549 Z" style="stroke-width:1.0;stroke:rgb(192,196,160);stroke-linecap:round;fill:rgb(192,196,160);" />
<path d="M1449.648,2263.942 A765.600,765.600 40.000 0,1 1435.476,2262.876 L1431.026,2315.488 A818.400,818.400 0.000 0,0 1446.176,2316.628 Z" style="stroke-width:1.0;stroke:rgb(192,196,160);stroke-linecap:round;fill:rgb(192,196,160);" />
<path d="M986.067,2067.465 A765.600,765.600 40.000 0,1 975.831,2058.024 L939.682,2096.508 A818.400,818.400 0.000 0,0 950.624,2106.601 Z" style="stroke-width:1.0;stroke:rgb(192,196,160);stroke-linecap:round;fill:rgb(192,196,160);" />
<path d="M1387.803,2257.334 A765.600,765.600 40.000 0,1 1376.461,2255.567 L1367.941,2307.675 A818.400,818.400 0.000 0,0 1380.066,2309.564 Z" style="stroke-width:1.0;stroke:rgb(192,196,160);stroke-linecap:round;fill:rgb(192,196,160);" />
</g>
<g id="plot2">
<g id="plot2-axis">
</g>
<path d="M1024.810,1503.126 A475.200,475.200 40.000 0,1 1042.915,1370.044 L992.128,1355.605 A528.000,528.000 0.000 0,0 972.011,1503.474 Z" style="stroke-width:1.0;stroke:rgb(144,132,108);stroke-linecap:round;fill:rgb(144,132,108);" />
<path d="M1594.162,1034.223 A475.200,475.200 40.000 0,1 1717.085,1077.284 L1741.206,1030.315 A528.000,528.000 0.000 0,0 1604.625,982.470 Z" style="stroke-width:1.0;stroke:rgb(144,132,108);stroke-linecap:round;fill:rgb(144,132,108);" />
<path d="M1747.153,1905.870 A475.200,475.200 40.000 0,1 1628.075,1957.615 L1642.306,2008.461 A528.000,528.000 0.000 0,0 1774.615,1950.967 Z" style="stroke-width:1.0;stroke:rgb(144,132,108);stroke-linecap:round;fill:rgb(144,132,108);" />
<path d="M1970.285,1431.828 A475.200,475.200 40.000 0,1 1974.462,1526.466 L2027.180,1529.407 A528.000,528.000 0.000 0,0 2022.538,1424.253 Z" style="stroke-width:1.0;stroke:rgb(144,132,108);stroke-linecap:round;fill:rgb(144,132,108);" />
<path d="M1605.168,1963.416 A475.200,475.200 40.000 0,1 1524.828,1974.551 L1527.586,2027.279 A528.000,528.000 0.000 0,0 1616.853,2014.907 Z" style="stroke-width:1.0;stroke:rgb(144,132,108);stroke-linecap:round;fill:rgb(144,132,108);" />
<path d="M1254.730,1092.990 A475.200,475.200 40.000 0,1 1320.263,1060.103 L1300.292,1011.225 A528.000,528.000 0.000 0,0 1227.477,1047.766 Z" style="stroke-width:1.0;stroke:rgb(144,132,108);stroke-linecap:round;fill:rgb(144,132,108);" />
<path d="M1947.521,1659.812 A475.200,475.200 40.000 0,1 1920.329,1721.673 L1967.032,1746.303 A528.000,528.000 0.000 0,0 1997.246,1677.569 Z" style="stroke-width:1.0;stroke:rgb(144,132,108);stroke-linecap:round;fill:rgb(144,132,108);" />
<path d="M1967.587,1584.721 A475.200,475.200 40.000 0,1 1953.796,1641.010 L2004.218,1656.678 A528.000,528.000 0.000 0,0 2019.541,1594.134 Z" style="stroke-width:1.0;stroke:rgb(144,132,108);stroke-linecap:round;fill:rgb(144,132,108);" />
<path d="M1915.633,1730.356 A475.200,475.200 40.000 0,1 1892.861,1767.349 L1936.512,1797.055 A528.000,528.000 0.000 0,0 1961.815,1755.951 Z" style="stroke-width:1.0;stroke:rgb(144,132,108);stroke-linecap:round;fill:rgb(144,132,108);" />
<path d="M1420.168,1968.446 A475.200,475.200 40.000 0,1 1382.996,1960.570 L1369.995,2011.745 A528.000,528.000 0.000 0,0 1411.298,2020.496 Z" style="stroke-width:1.0;stroke:rgb(144,132,108);stroke-linecap:round;fill:rgb(144,132,108);" />
<path d="M1841.991,1170.065 A475.200,475.200 40.000 0,1 1866.546,1197.578 L1907.273,1163.975 A528.000,528.000 0.000 0,0 1879.990,1133.405 Z" style="stroke-width:1.0;stroke:rgb(144,132,108);stroke-linecap:round;fill:rgb(144,132,108);" />
<path d="M1109.083,1770.183 A475.200,475.200 40.000 0,1 1089.488,1739.364 L1043.876,1765.960 A528.000,528.000 0.000 0,0 1065.647,1800.203 Z" style="stroke-width:1.0;stroke:rgb(144,132,108);stroke-linecap:round;fill:rgb(144,132,108);" />
<path d="M1167.718,1160.289 A475.200,475.200 40.000 0,1 1193.943,1136.483 L1159.937,1096.093 A528.000,528.000 0.000 0,0 1130.798,1122.543 Z" style="stroke-width:1.0;stroke:rgb(144,132,108);stroke-linecap:round;fill:rgb(144,132,108);" />
<path d="M1363.188,1955.080 A475.200,475.200 40.000 0,1 1335.383,1945.776 L1317.092,1995.307 A528.000,528.000 0.000 0,0 1347.987,2005.644 Z" style="stroke-width:1.0;stroke:rgb(144,132,108);stroke-linecap:round;fill:rgb(144,132,108);" />
<path d="M1324.777,1941.715 A475.200,475.200 40.000 0,1 1306.183,1933.878 L1284.648,1982.086 A528.000,528.000 0.000 0,0 1305.308,1990.794 Z" style="stroke-width:1.0;stroke:rgb(144,132,108);stroke-linecap:round;fill:rgb(144,132,108);" />
<path d="M1889.639,1227.977 A475.200,475.200 40.000 0,1 1899.754,1243.072 L1944.171,1214.525 A528.000,528.000 0.000 0,0 1932.932,1197.752 Z" style="stroke-width:1.0;stroke:rgb(144,132,108);stroke-linecap:round;fill:rgb(144,132,108);" />
<path d="M1949.144,1344.807 A475.200,475.200 40.000 0,1 1954.497,1361.264 L2004.996,1345.849 A528.000,528.000 0.000 0,0 1999.049,1327.563 Z" style="stroke-width:1.0;stroke:rgb(144,132,108);stroke-linecap:round;fill:rgb(144,132,108);" />
<path d="M1047.141,1356.008 A475.200,475.200 40.000 0,1 1052.331,1340.603 L1002.590,1322.892 A528.000,528.000 0.000 0,0 996.823,1340.009 Z" style="stroke-width:1.0;stroke:rgb(144,132,108);stroke-linecap:round;fill:rgb(144,132,108);" />
<path d="M1549.862,1027.423 A475.200,475.200 40.000 0,1 1565.545,1029.342 L1572.828,977.047 A528.000,528.000 0.000 0,0 1555.402,974.915 Z" style="stroke-width:1.0;stroke:rgb(144,132,108);stroke-linecap:round;fill:rgb(144,132,108);" />
<path d="M1939.097,1318.317 A475.200,475.200 40.000 0,1 1944.068,1330.830 L1993.409,1312.033 A528.000,528.000 0.000 0,0 1987.886,1298.130 Z" style="stroke-width:1.0;stroke:rgb(144,132,108);stroke-linecap:round;fill:rgb(144,132,108);" />
<path d="M1197.249,1866.274 A475.200,475.200 40.000 0,1 1188.388,1858.766 L1153.764,1898.629 A528.000,528.000 0.000 0,0 1163.610,1906.972 Z" style="stroke-width:1.0;stroke:rgb(144,132,108);stroke-linecap:round;fill:rgb(144,132,108);" />
<path d="M1290.477,1926.515 A475.200,475.200 40.000 0,1 1281.680,1922.080 L1257.422,1968.978 A528.000,528.000 0.000 0,0 1267.197,1973.906 Z" style="stroke-width:1.0;stroke:rgb(144,132,108);stroke-linecap:round;fill:rgb(144,132,108);" />
<path d="M1964.778,1401.022 A475.200,475.200 40.000 0,1 1966.659,1410.309 L2018.510,1400.343 A528.000,528.000 0.000 0,0 2016.420,1390.025 Z" style="stroke-width:1.0;stroke:rgb(144,132,108);stroke-linecap:round;fill:rgb(144,132,108);" />
<path d="M1446.756,1027.792 A475.200,475.200 40.000 0,1 1455.557,1026.883 L1450.619,974.314 A528.000,528.000 0.000 0,0 1440.840,975.325 Z" style="stroke-width:1.0;stroke:rgb(144,132,108);stroke-linecap:round;fill:rgb(144,132,108);" />
<path d="M1468.747,1974.171 A475.200,475.200 40.000 0,1 1459.950,1973.509 L1455.500,2026.121 A528.000,528.000 0.000 0,0 1465.275,2026.857 Z" style="stroke-width:1.0;stroke:rgb(144,132,108);stroke-linecap:round;fill:rgb(144,132,108);" />
<path d="M1167.553,1839.550 A475.200,475.200 40.000 0,1 1161.450,1833.465 L1123.834,1870.517 A528.000,528.000 0.000 0,0 1130.614,1877.277 Z" style="stroke-width:1.0;stroke:rgb(144,132,108);stroke-linecap:round;fill:rgb(144,132,108);" />
<path d="M1430.367,1970.071 A475.200,475.200 40.000 0,1 1423.327,1968.974 L1414.808,2021.082 A528.000,528.000 0.000 0,0 1422.630,2022.301 Z" style="stroke-width:1.0;stroke:rgb(144,132,108);stroke-linecap:round;fill:rgb(144,132,108);" />
<path d="M1252.369,1905.579 A475.200,475.200 40.000 0,1 1246.517,1901.947 L1218.353,1946.608 A528.000,528.000 0.000 0,0 1224.855,1950.643 Z" style="stroke-width:1.0;stroke:rgb(144,132,108);stroke-linecap:round;fill:rgb(144,132,108);" />
</g>
<g id="plot3">
<g id="plot3-axis">
</g>
<path d="M998.036,1792.166 A580.800,580.800 40.000 0,1 919.217,1504.378 L972.015,1503.980 A528.000,528.000 0.000 0,0 1043.669,1765.605 Z" style="stroke-width:1.0;stroke:rgb(144,132,108);stroke-linecap:round;fill:rgb(144,132,108);" />
<path d="M956.261,1295.851 A580.800,580.800 40.000 0,1 1085.374,1093.288 L1123.068,1130.262 A528.000,528.000 0.000 0,0 1005.692,1314.410 Z" style="stroke-width:1.0;stroke:rgb(144,132,108);stroke-linecap:round;fill:rgb(144,132,108);" />
<path d="M1976.224,1832.475 A580.800,580.800 40.000 0,1 1802.269,1995.946 L1774.790,1950.860 A528.000,528.000 0.000 0,0 1932.931,1802.250 Z" style="stroke-width:1.0;stroke:rgb(144,132,108);stroke-linecap:round;fill:rgb(144,132,108);" />
<path d="M1810.328,1009.057 A580.800,580.800 40.000 0,1 1917.114,1095.841 L1879.195,1132.583 A528.000,528.000 0.000 0,0 1782.117,1053.688 Z" style="stroke-width:1.0;stroke:rgb(144,132,108);stroke-linecap:round;fill:rgb(144,132,108);" />
<path d="M1290.919,958.138 A580.800,580.800 40.000 0,1 1397.960,928.234 L1407.237,980.213 A528.000,528.000 0.000 0,0 1309.927,1007.399 Z" style="stroke-width:1.0;stroke:rgb(144,132,108);stroke-linecap:round;fill:rgb(144,132,108);" />
<path d="M1990.235,1188.555 A580.800,580.800 40.000 0,1 2036.702,1278.011 L1987.911,1298.191 A528.000,528.000 0.000 0,0 1945.668,1216.868 Z" style="stroke-width:1.0;stroke:rgb(144,132,108);stroke-linecap:round;fill:rgb(144,132,108);" />
<path d="M1126.196,1055.478 A580.800,580.800 40.000 0,1 1196.631,1004.726 L1224.210,1049.751 A528.000,528.000 0.000 0,0 1160.178,1095.890 Z" style="stroke-width:1.0;stroke:rgb(144,132,108);stroke-linecap:round;fill:rgb(144,132,108);" />
<path d="M1528.233,2080.113 A580.800,580.800 40.000 0,1 1464.758,2079.730 L1467.962,2027.027 A528.000,528.000 0.000 0,0 1525.667,2027.376 Z" style="stroke-width:1.0;stroke:rgb(144,132,108);stroke-linecap:round;fill:rgb(144,132,108);" />
<path d="M1500.000,919.200 A580.800,580.800 40.000 0,1 1560.091,922.317 L1554.628,974.834 A528.000,528.000 0.000 0,0 1500.000,972.000 Z" style="stroke-width:1.0;stroke:rgb(144,132,108);stroke-linecap:round;fill:rgb(144,132,108);" />
<path d="M1463.405,920.354 A580.800,580.800 40.000 0,1 1499.909,919.200 L1499.917,972.000 A528.000,528.000 0.000 0,0 1466.732,973.049 Z" style="stroke-width:1.0;stroke:rgb(144,132,108);stroke-linecap:round;fill:rgb(144,132,108);" />
<path d="M2061.090,1349.978 A580.800,580.800 40.000 0,1 2068.052,1378.980 L2016.411,1389.982 A528.000,528.000 0.000 0,0 2010.082,1363.616 Z" style="stroke-width:1.0;stroke:rgb(144,132,108);stroke-linecap:round;fill:rgb(144,132,108);" />
<path d="M1586.102,925.618 A580.800,580.800 40.000 0,1 1614.905,930.680 L1604.459,982.436 A528.000,528.000 0.000 0,0 1578.274,977.834 Z" style="stroke-width:1.0;stroke:rgb(144,132,108);stroke-linecap:round;fill:rgb(144,132,108);" />
<path d="M1656.272,2059.382 A580.800,580.800 40.000 0,1 1628.877,2066.321 L1617.161,2014.837 A528.000,528.000 0.000 0,0 1642.066,2008.529 Z" style="stroke-width:1.0;stroke:rgb(144,132,108);stroke-linecap:round;fill:rgb(144,132,108);" />
<path d="M1262.972,2030.233 A580.800,580.800 40.000 0,1 1244.815,2021.737 L1268.014,1974.306 A528.000,528.000 0.000 0,0 1284.520,1982.030 Z" style="stroke-width:1.0;stroke:rgb(144,132,108);stroke-linecap:round;fill:rgb(144,132,108);" />
<path d="M1186.116,1988.678 A580.800,580.800 40.000 0,1 1169.764,1977.779 L1199.786,1934.345 A528.000,528.000 0.000 0,0 1214.651,1944.252 Z" style="stroke-width:1.0;stroke:rgb(144,132,108);stroke-linecap:round;fill:rgb(144,132,108);" />
<path d="M2071.816,1398.242 A580.800,580.800 40.000 0,1 2074.662,1415.784 L2022.420,1423.440 A528.000,528.000 0.000 0,0 2019.833,1407.493 Z" style="stroke-width:1.0;stroke:rgb(144,132,108);stroke-linecap:round;fill:rgb(144,132,108);" />
<path d="M941.431,1340.847 A580.800,580.800 40.000 0,1 946.545,1323.887 L996.859,1339.897 A528.000,528.000 0.000 0,0 992.210,1355.316 Z" style="stroke-width:1.0;stroke:rgb(144,132,108);stroke-linecap:round;fill:rgb(144,132,108);" />
<path d="M2075.656,1577.130 A580.800,580.800 40.000 0,1 2073.206,1593.614 L2021.096,1585.104 A528.000,528.000 0.000 0,0 2023.323,1570.118 Z" style="stroke-width:1.0;stroke:rgb(144,132,108);stroke-linecap:round;fill:rgb(144,132,108);" />
<path d="M1354.313,2062.231 A580.800,580.800 40.000 0,1 1339.336,2058.136 L1353.941,2007.396 A528.000,528.000 0.000 0,0 1367.557,2011.119 Z" style="stroke-width:1.0;stroke:rgb(144,132,108);stroke-linecap:round;fill:rgb(144,132,108);" />
<path d="M1209.511,2002.936 A580.800,580.800 40.000 0,1 1198.119,1996.182 L1225.563,1951.075 A528.000,528.000 0.000 0,0 1235.919,1957.215 Z" style="stroke-width:1.0;stroke:rgb(144,132,108);stroke-linecap:round;fill:rgb(144,132,108);" />
<path d="M1061.620,1880.988 A580.800,580.800 40.000 0,1 1053.646,1871.614 L1094.224,1837.831 A528.000,528.000 0.000 0,0 1101.473,1846.353 Z" style="stroke-width:1.0;stroke:rgb(144,132,108);stroke-linecap:round;fill:rgb(144,132,108);" />
<path d="M2013.430,1771.511 A580.800,580.800 40.000 0,1 2008.125,1781.313 L1961.932,1755.739 A528.000,528.000 0.000 0,0 1966.755,1746.828 Z" style="stroke-width:1.0;stroke:rgb(144,132,108);stroke-linecap:round;fill:rgb(144,132,108);" />
<path d="M1957.363,1142.023 A580.800,580.800 40.000 0,1 1964.032,1150.710 L1921.847,1182.464 A528.000,528.000 0.000 0,0 1915.785,1174.566 Z" style="stroke-width:1.0;stroke:rgb(144,132,108);stroke-linecap:round;fill:rgb(144,132,108);" />
<path d="M1110.120,1930.491 A580.800,580.800 40.000 0,1 1102.355,1923.328 L1138.504,1884.844 A528.000,528.000 0.000 0,0 1145.564,1891.355 Z" style="stroke-width:1.0;stroke:rgb(144,132,108);stroke-linecap:round;fill:rgb(144,132,108);" />
<path d="M1296.328,2043.918 A580.800,580.800 40.000 0,1 1286.784,2040.248 L1306.167,1991.134 A528.000,528.000 0.000 0,0 1314.844,1994.471 Z" style="stroke-width:1.0;stroke:rgb(144,132,108);stroke-linecap:round;fill:rgb(144,132,108);" />
<path d="M2057.366,1663.314 A580.800,580.800 40.000 0,1 2054.638,1672.353 L2004.216,1656.685 A528.000,528.000 0.000 0,0 2006.697,1648.467 Z" style="stroke-width:1.0;stroke:rgb(144,132,108);stroke-linecap:round;fill:rgb(144,132,108);" />
<path d="M1430.755,2076.657 A580.800,580.800 40.000 0,1 1422.029,2075.542 L1429.117,2023.220 A528.000,528.000 0.000 0,0 1437.050,2024.234 Z" style="stroke-width:1.0;stroke:rgb(144,132,108);stroke-linecap:round;fill:rgb(144,132,108);" />
<path d="M2048.328,1308.520 A580.800,580.800 40.000 0,1 2048.557,1309.175 L1998.688,1326.523 A528.000,528.000 0.000 0,0 1998.480,1325.927 Z" style="stroke-width:1.0;stroke:rgb(144,132,108);stroke-linecap:round;fill:rgb(144,132,108);" />
<path d="M1413.265,2074.287 A580.800,580.800 40.000 0,1 1412.826,2074.221 L1420.751,2022.019 A528.000,528.000 0.000 0,0 1421.150,2022.079 Z" style="stroke-width:1.0;stroke:rgb(144,132,108);stroke-linecap:round;fill:rgb(144,132,108);" />
</g>
<g id="plot4">
<g id="plot4-axis">
</g>
<path d="M678.611,1978.101 A950.400,950.400 40.000 0,1 549.627,1507.164 L496.829,1507.562 A1003.200,1003.200 0.000 0,0 632.978,2004.662 Z" style="stroke-width:1.0;stroke:rgb(156,188,188);stroke-linecap:round;fill:rgb(156,188,188);" />
<path d="M1994.306,2311.740 A950.400,950.400 40.000 0,1 1756.138,2415.234 L1770.368,2466.081 A1003.200,1003.200 0.000 0,0 2021.768,2356.836 Z" style="stroke-width:1.0;stroke:rgb(156,188,188);stroke-linecap:round;fill:rgb(156,188,188);" />
<path d="M2007.799,696.632 A950.400,950.400 40.000 0,1 2182.550,838.649 L2220.470,801.907 A1003.200,1003.200 0.000 0,0 2036.010,652.000 Z" style="stroke-width:1.0;stroke:rgb(156,188,188);stroke-linecap:round;fill:rgb(156,188,188);" />
<path d="M2302.203,990.363 A950.400,950.400 40.000 0,1 2378.240,1136.745 L2427.031,1116.564 A1003.200,1003.200 0.000 0,0 2346.770,962.049 Z" style="stroke-width:1.0;stroke:rgb(156,188,188);stroke-linecap:round;fill:rgb(156,188,188);" />
<path d="M1710.348,2426.830 A950.400,950.400 40.000 0,1 1549.656,2449.102 L1552.414,2501.830 A1003.200,1003.200 0.000 0,0 1722.034,2478.320 Z" style="stroke-width:1.0;stroke:rgb(156,188,188);stroke-linecap:round;fill:rgb(156,188,188);" />
<path d="M888.311,772.610 A950.400,950.400 40.000 0,1 1003.579,689.552 L976.000,644.527 A1003.200,1003.200 0.000 0,0 854.328,732.199 Z" style="stroke-width:1.0;stroke:rgb(156,188,188);stroke-linecap:round;fill:rgb(156,188,188);" />
<path d="M1217.398,592.588 A950.400,950.400 40.000 0,1 1319.043,566.986 L1308.990,515.152 A1003.200,1003.200 0.000 0,0 1201.698,542.176 Z" style="stroke-width:1.0;stroke:rgb(156,188,188);stroke-linecap:round;fill:rgb(156,188,188);" />
<path d="M2331.267,1960.712 A950.400,950.400 40.000 0,1 2285.714,2034.709 L2329.364,2064.416 A1003.200,1003.200 0.000 0,0 2377.448,1986.307 Z" style="stroke-width:1.0;stroke:rgb(156,188,188);stroke-linecap:round;fill:rgb(156,188,188);" />
<path d="M2373.819,1873.765 A950.400,950.400 40.000 0,1 2340.467,1943.707 L2387.159,1968.358 A1003.200,1003.200 0.000 0,0 2422.365,1894.530 Z" style="stroke-width:1.0;stroke:rgb(156,188,188);stroke-linecap:round;fill:rgb(156,188,188);" />
<path d="M2429.359,1698.877 A950.400,950.400 40.000 0,1 2412.251,1766.569 L2462.931,1781.378 A1003.200,1003.200 0.000 0,0 2480.990,1709.926 Z" style="stroke-width:1.0;stroke:rgb(156,188,188);stroke-linecap:round;fill:rgb(156,188,188);" />
<path d="M1226.389,2410.163 A950.400,950.400 40.000 0,1 1170.766,2391.552 L1152.475,2441.083 A1003.200,1003.200 0.000 0,0 1211.188,2460.728 Z" style="stroke-width:1.0;stroke:rgb(156,188,188);stroke-linecap:round;fill:rgb(156,188,188);" />
<path d="M2195.925,852.738 A950.400,950.400 40.000 0,1 2233.369,895.491 L2274.111,861.908 A1003.200,1003.200 0.000 0,0 2234.588,816.779 Z" style="stroke-width:1.0;stroke:rgb(156,188,188);stroke-linecap:round;fill:rgb(156,188,188);" />
<path d="M2418.144,1254.497 A950.400,950.400 40.000 0,1 2429.539,1301.967 L2481.180,1290.965 A1003.200,1003.200 0.000 0,0 2469.152,1240.857 Z" style="stroke-width:1.0;stroke:rgb(156,188,188);stroke-linecap:round;fill:rgb(156,188,188);" />
<path d="M1640.894,560.102 A950.400,950.400 40.000 0,1 1688.040,568.388 L1698.486,516.632 A1003.200,1003.200 0.000 0,0 1648.721,507.885 Z" style="stroke-width:1.0;stroke:rgb(156,188,188);stroke-linecap:round;fill:rgb(156,188,188);" />
<path d="M1935.133,655.063 A950.400,950.400 40.000 0,1 1970.726,674.362 L1996.877,628.494 A1003.200,1003.200 0.000 0,0 1959.307,608.122 Z" style="stroke-width:1.0;stroke:rgb(156,188,188);stroke-linecap:round;fill:rgb(156,188,188);" />
<path d="M1149.554,2383.429 A950.400,950.400 40.000 0,1 1112.354,2367.750 L1090.818,2415.959 A1003.200,1003.200 0.000 0,0 1130.084,2432.509 Z" style="stroke-width:1.0;stroke:rgb(156,188,188);stroke-linecap:round;fill:rgb(156,188,188);" />
<path d="M1599.723,554.846 A950.400,950.400 40.000 0,1 1631.104,558.686 L1638.388,506.391 A1003.200,1003.200 0.000 0,0 1605.263,502.338 Z" style="stroke-width:1.0;stroke:rgb(156,188,188);stroke-linecap:round;fill:rgb(156,188,188);" />
<path d="M2435.697,1333.474 A950.400,950.400 40.000 0,1 2440.356,1362.192 L2492.598,1354.536 A1003.200,1003.200 0.000 0,0 2487.680,1324.223 Z" style="stroke-width:1.0;stroke:rgb(156,188,188);stroke-linecap:round;fill:rgb(156,188,188);" />
<path d="M585.975,1239.581 A950.400,950.400 40.000 0,1 594.346,1211.815 L544.032,1195.805 A1003.200,1003.200 0.000 0,0 535.196,1225.113 Z" style="stroke-width:1.0;stroke:rgb(156,188,188);stroke-linecap:round;fill:rgb(156,188,188);" />
<path d="M2441.984,1626.199 A950.400,950.400 40.000 0,1 2437.973,1653.187 L2490.083,1661.697 A1003.200,1003.200 0.000 0,0 2494.316,1633.210 Z" style="stroke-width:1.0;stroke:rgb(156,188,188);stroke-linecap:round;fill:rgb(156,188,188);" />
<path d="M1261.603,2420.015 A950.400,950.400 40.000 0,1 1237.082,2413.310 L1222.475,2464.049 A1003.200,1003.200 0.000 0,0 1248.359,2471.127 Z" style="stroke-width:1.0;stroke:rgb(156,188,188);stroke-linecap:round;fill:rgb(156,188,188);" />
<path d="M1024.654,2322.986 A950.400,950.400 40.000 0,1 1006.002,2311.927 L978.557,2357.034 A1003.200,1003.200 0.000 0,0 998.246,2368.708 Z" style="stroke-width:1.0;stroke:rgb(156,188,188);stroke-linecap:round;fill:rgb(156,188,188);" />
<path d="M782.660,2123.445 A950.400,950.400 40.000 0,1 769.603,2108.095 L729.025,2141.878 A1003.200,1003.200 0.000 0,0 742.808,2158.081 Z" style="stroke-width:1.0;stroke:rgb(156,188,188);stroke-linecap:round;fill:rgb(156,188,188);" />
<path d="M1080.966,2353.036 A950.400,950.400 40.000 0,1 1063.360,2344.160 L1039.103,2391.058 A1003.200,1003.200 0.000 0,0 1057.687,2400.427 Z" style="stroke-width:1.0;stroke:rgb(156,188,188);stroke-linecap:round;fill:rgb(156,188,188);" />
<path d="M1437.495,2448.342 A950.400,950.400 40.000 0,1 1419.888,2447.018 L1415.437,2499.630 A1003.200,1003.200 0.000 0,0 1434.022,2501.028 Z" style="stroke-width:1.0;stroke:rgb(156,188,188);stroke-linecap:round;fill:rgb(156,188,188);" />
<path d="M835.115,2179.108 A950.400,950.400 40.000 0,1 822.901,2166.931 L785.284,2203.983 A1003.200,1003.200 0.000 0,0 798.177,2216.837 Z" style="stroke-width:1.0;stroke:rgb(156,188,188);stroke-linecap:round;fill:rgb(156,188,188);" />
<path d="M816.446,2160.313 A950.400,950.400 40.000 0,1 807.391,2150.809 L768.912,2186.965 A1003.200,1003.200 0.000 0,0 778.471,2196.997 Z" style="stroke-width:1.0;stroke:rgb(156,188,188);stroke-linecap:round;fill:rgb(156,188,188);" />
<path d="M764.750,2102.219 A950.400,950.400 40.000 0,1 756.824,2092.410 L715.536,2125.321 A1003.200,1003.200 0.000 0,0 723.903,2135.676 Z" style="stroke-width:1.0;stroke:rgb(156,188,188);stroke-linecap:round;fill:rgb(156,188,188);" />
<path d="M604.675,1181.168 A950.400,950.400 40.000 0,1 608.696,1170.095 L559.179,1151.767 A1003.200,1003.200 0.000 0,0 554.935,1163.455 Z" style="stroke-width:1.0;stroke:rgb(156,188,188);stroke-linecap:round;fill:rgb(156,188,188);" />
<path d="M724.350,2049.206 A950.400,950.400 40.000 0,1 718.105,2040.278 L674.667,2070.294 A1003.200,1003.200 0.000 0,0 681.259,2079.718 Z" style="stroke-width:1.0;stroke:rgb(156,188,188);stroke-linecap:round;fill:rgb(156,188,188);" />
<path d="M2448.135,1565.573 A950.400,950.400 40.000 0,1 2447.377,1575.740 L2500.009,1579.948 A1003.200,1003.200 0.000 0,0 2500.809,1569.216 Z" style="stroke-width:1.0;stroke:rgb(156,188,188);stroke-linecap:round;fill:rgb(156,188,188);" />
<path d="M1402.978,2445.435 A950.400,950.400 40.000 0,1 1393.026,2444.360 L1387.083,2496.825 A1003.200,1003.200 0.000 0,0 1397.588,2497.959 Z" style="stroke-width:1.0;stroke:rgb(156,188,188);stroke-linecap:round;fill:rgb(156,188,188);" />
<path d="M2436.824,1660.064 A950.400,950.400 40.000 0,1 2435.183,1669.390 L2487.138,1678.801 A1003.200,1003.200 0.000 0,0 2488.870,1668.957 Z" style="stroke-width:1.0;stroke:rgb(156,188,188);stroke-linecap:round;fill:rgb(156,188,188);" />
<path d="M1370.226,2441.498 A950.400,950.400 40.000 0,1 1361.466,2440.249 L1353.770,2492.485 A1003.200,1003.200 0.000 0,0 1363.016,2493.804 Z" style="stroke-width:1.0;stroke:rgb(156,188,188);stroke-linecap:round;fill:rgb(156,188,188);" />
<path d="M1410.457,553.828 A950.400,950.400 40.000 0,1 1419.217,553.039 L1414.729,500.431 A1003.200,1003.200 0.000 0,0 1405.482,501.262 Z" style="stroke-width:1.0;stroke:rgb(156,188,188);stroke-linecap:round;fill:rgb(156,188,188);" />
<path d="M2271.443,944.900 A950.400,950.400 40.000 0,1 2276.227,951.609 L2319.350,921.143 A1003.200,1003.200 0.000 0,0 2314.300,914.061 Z" style="stroke-width:1.0;stroke:rgb(156,188,188);stroke-linecap:round;fill:rgb(156,188,188);" />
<path d="M796.431,2138.945 A950.400,950.400 40.000 0,1 790.970,2132.880 L751.580,2168.040 A1003.200,1003.200 0.000 0,0 757.344,2174.442 Z" style="stroke-width:1.0;stroke:rgb(156,188,188);stroke-linecap:round;fill:rgb(156,188,188);" />
<path d="M1466.129,550.204 A950.400,950.400 40.000 0,1 1474.260,549.949 L1472.830,497.168 A1003.200,1003.200 0.000 0,0 1464.247,497.437 Z" style="stroke-width:1.0;stroke:rgb(156,188,188);stroke-linecap:round;fill:rgb(156,188,188);" />
<path d="M1142.813,619.275 A950.400,950.400 40.000 0,1 1150.242,616.298 L1130.811,567.203 A1003.200,1003.200 0.000 0,0 1122.969,570.345 Z" style="stroke-width:1.0;stroke:rgb(156,188,188);stroke-linecap:round;fill:rgb(156,188,188);" />
<path d="M848.173,2191.651 A950.400,950.400 40.000 0,1 842.543,2186.302 L806.018,2224.430 A1003.200,1003.200 0.000 0,0 811.960,2230.076 Z" style="stroke-width:1.0;stroke:rgb(156,188,188);stroke-linecap:round;fill:rgb(156,188,188);" />
<path d="M929.591,2260.193 A950.400,950.400 40.000 0,1 923.451,2255.547 L891.421,2297.522 A1003.200,1003.200 0.000 0,0 897.901,2302.426 Z" style="stroke-width:1.0;stroke:rgb(156,188,188);stroke-linecap:round;fill:rgb(156,188,188);" />
<path d="M736.901,2066.516 A950.400,950.400 40.000 0,1 732.648,2060.742 L690.018,2091.894 A1003.200,1003.200 0.000 0,0 694.507,2097.989 Z" style="stroke-width:1.0;stroke:rgb(156,188,188);stroke-linecap:round;fill:rgb(156,188,188);" />
<path d="M992.555,2303.592 A950.400,950.400 40.000 0,1 986.595,2299.797 L958.072,2344.230 A1003.200,1003.200 0.000 0,0 964.363,2348.236 Z" style="stroke-width:1.0;stroke:rgb(156,188,188);stroke-linecap:round;fill:rgb(156,188,188);" />
<path d="M2389.152,1164.339 A950.400,950.400 40.000 0,1 2391.559,1170.785 L2441.090,1152.495 A1003.200,1003.200 0.000 0,0 2438.550,1145.691 Z" style="stroke-width:1.0;stroke:rgb(156,188,188);stroke-linecap:round;fill:rgb(156,188,188);" />
<path d="M899.817,2236.913 A950.400,950.400 40.000 0,1 894.692,2232.709 L861.063,2273.415 A1003.200,1003.200 0.000 0,0 866.474,2277.853 Z" style="stroke-width:1.0;stroke:rgb(156,188,188);stroke-linecap:round;fill:rgb(156,188,188);" />
<path d="M821.725,834.265 A950.400,950.400 40.000 0,1 826.348,829.587 L788.923,792.342 A1003.200,1003.200 0.000 0,0 784.043,797.279 Z" style="stroke-width:1.0;stroke:rgb(156,188,188);stroke-linecap:round;fill:rgb(156,188,188);" />
<path d="M1350.006,561.511 A950.400,950.400 40.000 0,1 1356.334,560.521 L1348.353,508.328 A1003.200,1003.200 0.000 0,0 1341.673,509.373 Z" style="stroke-width:1.0;stroke:rgb(156,188,188);stroke-linecap:round;fill:rgb(156,188,188);" />
<path d="M2239.305,902.766 A950.400,950.400 40.000 0,1 2243.289,907.731 L2284.582,874.828 A1003.200,1003.200 0.000 0,0 2280.378,869.587 Z" style="stroke-width:1.0;stroke:rgb(156,188,188);stroke-linecap:round;fill:rgb(156,188,188);" />
<path d="M912.769,2247.275 A950.400,950.400 40.000 0,1 907.933,2243.449 L875.040,2284.752 A1003.200,1003.200 0.000 0,0 880.146,2288.791 Z" style="stroke-width:1.0;stroke:rgb(156,188,188);stroke-linecap:round;fill:rgb(156,188,188);" />
<path d="M2259.253,928.340 A950.400,950.400 40.000 0,1 2262.663,932.898 L2305.033,901.392 A1003.200,1003.200 0.000 0,0 2301.434,896.581 Z" style="stroke-width:1.0;stroke:rgb(156,188,188);stroke-linecap:round;fill:rgb(156,188,188);" />
<path d="M958.887,2281.317 A950.400,950.400 40.000 0,1 954.466,2278.237 L924.158,2321.472 A1003.200,1003.200 0.000 0,0 928.825,2324.724 Z" style="stroke-width:1.0;stroke:rgb(156,188,188);stroke-linecap:round;fill:rgb(156,188,188);" />
<path d="M1434.873,551.834 A950.400,950.400 40.000 0,1 1439.854,551.505 L1436.513,498.811 A1003.200,1003.200 0.000 0,0 1431.255,499.158 Z" style="stroke-width:1.0;stroke:rgb(156,188,188);stroke-linecap:round;fill:rgb(156,188,188);" />
<path d="M947.534,2273.332 A950.400,950.400 40.000 0,1 943.587,2270.496 L912.675,2313.302 A1003.200,1003.200 0.000 0,0 916.842,2316.294 Z" style="stroke-width:1.0;stroke:rgb(156,188,188);stroke-linecap:round;fill:rgb(156,188,188);" />
<path d="M2444.568,1605.122 A950.400,950.400 40.000 0,1 2444.023,1609.911 L2496.469,1616.017 A1003.200,1003.200 0.000 0,0 2497.044,1610.962 Z" style="stroke-width:1.0;stroke:rgb(156,188,188);stroke-linecap:round;fill:rgb(156,188,188);" />
<path d="M2409.470,1224.095 A950.400,950.400 40.000 0,1 2410.832,1228.622 L2461.433,1213.546 A1003.200,1003.200 0.000 0,0 2459.997,1208.767 Z" style="stroke-width:1.0;stroke:rgb(156,188,188);stroke-linecap:round;fill:rgb(156,188,188);" />
<path d="M869.371,2211.032 A950.400,950.400 40.000 0,1 866.009,2208.036 L830.787,2247.372 A1003.200,1003.200 0.000 0,0 834.336,2250.534 Z" style="stroke-width:1.0;stroke:rgb(156,188,188);stroke-linecap:round;fill:rgb(156,188,188);" />
<path d="M1392.068,2444.251 A950.400,950.400 40.000 0,1 1387.608,2443.731 L1381.364,2496.160 A1003.200,1003.200 0.000 0,0 1386.071,2496.710 Z" style="stroke-width:1.0;stroke:rgb(156,188,188);stroke-linecap:round;fill:rgb(156,188,188);" />
<path d="M1372.215,558.230 A950.400,950.400 40.000 0,1 1376.391,557.673 L1369.524,505.321 A1003.200,1003.200 0.000 0,0 1365.116,505.909 Z" style="stroke-width:1.0;stroke:rgb(156,188,188);stroke-linecap:round;fill:rgb(156,188,188);" />
<path d="M748.397,2081.681 A950.400,950.400 40.000 0,1 745.987,2078.553 L704.097,2110.695 A1003.200,1003.200 0.000 0,0 706.641,2113.997 Z" style="stroke-width:1.0;stroke:rgb(156,188,188);stroke-linecap:round;fill:rgb(156,188,188);" />
<path d="M754.869,2089.949 A950.400,950.400 40.000 0,1 752.791,2087.315 L711.279,2119.944 A1003.200,1003.200 0.000 0,0 713.472,2122.723 Z" style="stroke-width:1.0;stroke:rgb(156,188,188);stroke-linecap:round;fill:rgb(156,188,188);" />
<path d="M1039.321,2331.285 A950.400,950.400 40.000 0,1 1036.781,2329.873 L1011.047,2375.977 A1003.200,1003.200 0.000 0,0 1013.727,2377.467 Z" style="stroke-width:1.0;stroke:rgb(156,188,188);stroke-linecap:round;fill:rgb(156,188,188);" />
<path d="M772.305,2111.327 A950.400,950.400 40.000 0,1 771.473,2110.335 L731.000,2144.243 A1003.200,1003.200 0.000 0,0 731.878,2145.289 Z" style="stroke-width:1.0;stroke:rgb(156,188,188);stroke-linecap:round;fill:rgb(156,188,188);" />
<path d="M2397.265,1186.669 A950.400,950.400 40.000 0,1 2397.638,1187.742 L2447.507,1170.394 A1003.200,1003.200 0.000 0,0 2447.113,1169.262 Z" style="stroke-width:1.0;stroke:rgb(156,188,188);stroke-linecap:round;fill:rgb(156,188,188);" />
<path d="M2450.323,1512.059 A950.400,950.400 40.000 0,1 2450.312,1512.905 L2503.108,1513.622 A1003.200,1003.200 0.000 0,0 2503.119,1512.729 Z" style="stroke-width:1.0;stroke:rgb(156,188,188);stroke-linecap:round;fill:rgb(156,188,188);" />
<path d="M1358.070,2439.743 A950.400,950.400 40.000 0,1 1357.352,2439.634 L1349.427,2491.836 A1003.200,1003.200 0.000 0,0 1350.185,2491.950 Z" style="stroke-width:1.0;stroke:rgb(156,188,188);stroke-linecap:round;fill:rgb(156,188,188);" />
</g>
<g id="plot5">
<g id="plot5-axis">
</g>
<path d="M511.379,1128.833 A1056.000,1056.000 40.000 0,1 746.135,760.524 L783.829,797.498 A1003.200,1003.200 0.000 0,0 560.810,1147.391 Z" style="stroke-width:1.0;stroke:rgb(156,188,188);stroke-linecap:round;fill:rgb(156,188,188);" />
<path d="M2365.861,2104.500 A1056.000,1056.000 40.000 0,1 2049.567,2401.727 L2022.089,2356.641 A1003.200,1003.200 0.000 0,0 2322.568,2074.275 Z" style="stroke-width:1.0;stroke:rgb(156,188,188);stroke-linecap:round;fill:rgb(156,188,188);" />
<path d="M444.023,1506.948 A1056.000,1056.000 40.000 0,1 484.260,1211.196 L535.047,1225.636 A1003.200,1003.200 0.000 0,0 496.822,1506.600 Z" style="stroke-width:1.0;stroke:rgb(156,188,188);stroke-linecap:round;fill:rgb(156,188,188);" />
<path d="M1709.249,464.939 A1056.000,1056.000 40.000 0,1 1982.425,560.637 L1958.303,607.605 A1003.200,1003.200 0.000 0,0 1698.787,516.692 Z" style="stroke-width:1.0;stroke:rgb(156,188,188);stroke-linecap:round;fill:rgb(156,188,188);" />
<path d="M2545.014,1348.070 A1056.000,1056.000 40.000 0,1 2555.128,1542.912 L2502.371,1540.766 A1003.200,1003.200 0.000 0,0 2492.763,1355.667 Z" style="stroke-width:1.0;stroke:rgb(156,188,188);stroke-linecap:round;fill:rgb(156,188,188);" />
<path d="M954.955,595.532 A1056.000,1056.000 40.000 0,1 1100.597,522.445 L1120.567,571.323 A1003.200,1003.200 0.000 0,0 982.207,640.756 Z" style="stroke-width:1.0;stroke:rgb(156,188,188);stroke-linecap:round;fill:rgb(156,188,188);" />
<path d="M1551.348,2554.751 A1056.000,1056.000 40.000 0,1 1435.924,2554.054 L1439.128,2501.352 A1003.200,1003.200 0.000 0,0 1548.780,2502.013 Z" style="stroke-width:1.0;stroke:rgb(156,188,188);stroke-linecap:round;fill:rgb(156,188,188);" />
<path d="M1500.000,444.000 A1056.000,1056.000 40.000 0,1 1609.257,449.667 L1603.794,502.184 A1003.200,1003.200 0.000 0,0 1500.000,496.800 Z" style="stroke-width:1.0;stroke:rgb(156,188,188);stroke-linecap:round;fill:rgb(156,188,188);" />
<path d="M1322.597,2540.992 A1056.000,1056.000 40.000 0,1 1239.976,2523.486 L1252.977,2472.312 A1003.200,1003.200 0.000 0,0 1331.467,2488.942 Z" style="stroke-width:1.0;stroke:rgb(156,188,188);stroke-linecap:round;fill:rgb(156,188,188);" />
<path d="M631.303,2100.418 A1056.000,1056.000 40.000 0,1 587.752,2031.920 L633.364,2005.324 A1003.200,1003.200 0.000 0,0 674.738,2070.397 Z" style="stroke-width:1.0;stroke:rgb(156,188,188);stroke-linecap:round;fill:rgb(156,188,188);" />
<path d="M761.596,745.086 A1056.000,1056.000 40.000 0,1 819.885,692.176 L853.891,732.567 A1003.200,1003.200 0.000 0,0 798.516,782.832 Z" style="stroke-width:1.0;stroke:rgb(156,188,188);stroke-linecap:round;fill:rgb(156,188,188);" />
<path d="M1119.292,515.014 A1056.000,1056.000 40.000 0,1 1187.189,491.394 L1202.830,541.825 A1003.200,1003.200 0.000 0,0 1138.327,564.263 Z" style="stroke-width:1.0;stroke:rgb(156,188,188);stroke-linecap:round;fill:rgb(156,188,188);" />
<path d="M2494.575,1854.903 A1056.000,1056.000 40.000 0,1 2470.419,1916.441 L2421.898,1895.619 A1003.200,1003.200 0.000 0,0 2444.847,1837.158 Z" style="stroke-width:1.0;stroke:rgb(156,188,188);stroke-linecap:round;fill:rgb(156,188,188);" />
<path d="M1784.145,2517.053 A1056.000,1056.000 40.000 0,1 1734.321,2529.674 L1722.605,2478.191 A1003.200,1003.200 0.000 0,0 1769.938,2466.201 Z" style="stroke-width:1.0;stroke:rgb(156,188,188);stroke-linecap:round;fill:rgb(156,188,188);" />
<path d="M2365.856,895.492 A1056.000,1056.000 40.000 0,1 2388.342,929.050 L2343.925,957.597 A1003.200,1003.200 0.000 0,0 2322.563,925.718 Z" style="stroke-width:1.0;stroke:rgb(156,188,188);stroke-linecap:round;fill:rgb(156,188,188);" />
<path d="M2498.092,1155.112 A1056.000,1056.000 40.000 0,1 2509.993,1191.698 L2459.493,1207.113 A1003.200,1003.200 0.000 0,0 2448.188,1172.356 Z" style="stroke-width:1.0;stroke:rgb(156,188,188);stroke-linecap:round;fill:rgb(156,188,188);" />
<path d="M1069.041,2464.059 A1056.000,1056.000 40.000 0,1 1036.014,2448.606 L1059.214,2401.176 A1003.200,1003.200 0.000 0,0 1090.589,2415.856 Z" style="stroke-width:1.0;stroke:rgb(156,188,188);stroke-linecap:round;fill:rgb(156,188,188);" />
<path d="M493.646,1180.018 A1056.000,1056.000 40.000 0,1 505.185,1145.770 L554.926,1163.481 A1003.200,1003.200 0.000 0,0 543.964,1196.017 Z" style="stroke-width:1.0;stroke:rgb(156,188,188);stroke-linecap:round;fill:rgb(156,188,188);" />
<path d="M929.303,2388.505 A1056.000,1056.000 40.000 0,1 899.560,2368.681 L929.582,2325.247 A1003.200,1003.200 0.000 0,0 957.838,2344.079 Z" style="stroke-width:1.0;stroke:rgb(156,188,188);stroke-linecap:round;fill:rgb(156,188,188);" />
<path d="M2539.087,1688.240 A1056.000,1056.000 40.000 0,1 2532.316,1722.395 L2480.700,1711.275 A1003.200,1003.200 0.000 0,0 2487.133,1678.828 Z" style="stroke-width:1.0;stroke:rgb(156,188,188);stroke-linecap:round;fill:rgb(156,188,188);" />
<path d="M1433.435,446.100 A1056.000,1056.000 40.000 0,1 1463.817,444.620 L1465.626,497.389 A1003.200,1003.200 0.000 0,0 1436.763,498.795 Z" style="stroke-width:1.0;stroke:rgb(156,188,188);stroke-linecap:round;fill:rgb(156,188,188);" />
<path d="M2475.772,1096.261 A1056.000,1056.000 40.000 0,1 2486.818,1124.066 L2437.477,1142.863 A1003.200,1003.200 0.000 0,0 2426.983,1116.448 Z" style="stroke-width:1.0;stroke:rgb(156,188,188);stroke-linecap:round;fill:rgb(156,188,188);" />
<path d="M1470.417,444.414 A1056.000,1056.000 40.000 0,1 1499.834,444.000 L1499.842,496.800 A1003.200,1003.200 0.000 0,0 1471.896,497.194 Z" style="stroke-width:1.0;stroke:rgb(156,188,188);stroke-linecap:round;fill:rgb(156,188,188);" />
<path d="M827.220,2313.943 A1056.000,1056.000 40.000 0,1 807.517,2297.247 L842.141,2257.385 A1003.200,1003.200 0.000 0,0 860.859,2273.246 Z" style="stroke-width:1.0;stroke:rgb(156,188,188);stroke-linecap:round;fill:rgb(156,188,188);" />
<path d="M2532.840,1280.049 A1056.000,1056.000 40.000 0,1 2537.023,1300.701 L2485.172,1310.666 A1003.200,1003.200 0.000 0,0 2481.198,1291.047 Z" style="stroke-width:1.0;stroke:rgb(156,188,188);stroke-linecap:round;fill:rgb(156,188,188);" />
<path d="M2259.674,766.494 A1056.000,1056.000 40.000 0,1 2273.779,781.389 L2235.090,817.320 A1003.200,1003.200 0.000 0,0 2221.691,803.170 Z" style="stroke-width:1.0;stroke:rgb(156,188,188);stroke-linecap:round;fill:rgb(156,188,188);" />
<path d="M2433.516,1993.644 A1056.000,1056.000 40.000 0,1 2423.864,2011.479 L2377.671,1985.905 A1003.200,1003.200 0.000 0,0 2386.840,1968.962 Z" style="stroke-width:1.0;stroke:rgb(156,188,188);stroke-linecap:round;fill:rgb(156,188,188);" />
<path d="M2331.560,849.121 A1056.000,1056.000 40.000 0,1 2343.694,864.928 L2301.509,896.681 A1003.200,1003.200 0.000 0,0 2289.982,881.665 Z" style="stroke-width:1.0;stroke:rgb(156,188,188);stroke-linecap:round;fill:rgb(156,188,188);" />
<path d="M1381.665,450.651 A1056.000,1056.000 40.000 0,1 1401.238,448.628 L1406.176,501.197 A1003.200,1003.200 0.000 0,0 1387.582,503.119 Z" style="stroke-width:1.0;stroke:rgb(156,188,188);stroke-linecap:round;fill:rgb(156,188,188);" />
<path d="M791.127,2282.710 A1056.000,1056.000 40.000 0,1 776.998,2269.678 L813.148,2231.194 A1003.200,1003.200 0.000 0,0 826.571,2243.575 Z" style="stroke-width:1.0;stroke:rgb(156,188,188);stroke-linecap:round;fill:rgb(156,188,188);" />
<path d="M1129.687,2488.941 A1056.000,1056.000 40.000 0,1 1112.321,2482.263 L1131.705,2433.150 A1003.200,1003.200 0.000 0,0 1148.203,2439.494 Z" style="stroke-width:1.0;stroke:rgb(156,188,188);stroke-linecap:round;fill:rgb(156,188,188);" />
<path d="M2555.193,1541.270 A1056.000,1056.000 40.000 0,1 2554.335,1559.283 L2501.618,1556.319 A1003.200,1003.200 0.000 0,0 2502.434,1539.206 Z" style="stroke-width:1.0;stroke:rgb(156,188,188);stroke-linecap:round;fill:rgb(156,188,188);" />
<path d="M1374.114,2548.470 A1056.000,1056.000 40.000 0,1 1358.234,2546.441 L1365.323,2494.119 A1003.200,1003.200 0.000 0,0 1380.409,2496.046 Z" style="stroke-width:1.0;stroke:rgb(156,188,188);stroke-linecap:round;fill:rgb(156,188,188);" />
<path d="M1345.261,2544.601 A1056.000,1056.000 40.000 0,1 1329.602,2542.161 L1338.122,2490.053 A1003.200,1003.200 0.000 0,0 1352.997,2492.371 Z" style="stroke-width:1.0;stroke:rgb(156,188,188);stroke-linecap:round;fill:rgb(156,188,188);" />
<path d="M949.710,2401.286 A1056.000,1056.000 40.000 0,1 936.705,2393.216 L964.870,2348.555 A1003.200,1003.200 0.000 0,0 977.224,2356.222 Z" style="stroke-width:1.0;stroke:rgb(156,188,188);stroke-linecap:round;fill:rgb(156,188,188);" />
<path d="M2552.652,1584.024 A1056.000,1056.000 40.000 0,1 2551.337,1599.125 L2498.770,1594.169 A1003.200,1003.200 0.000 0,0 2500.019,1579.823 Z" style="stroke-width:1.0;stroke:rgb(156,188,188);stroke-linecap:round;fill:rgb(156,188,188);" />
<path d="M1001.419,2430.888 A1056.000,1056.000 40.000 0,1 990.099,2424.736 L1015.594,2378.499 A1003.200,1003.200 0.000 0,0 1026.348,2384.344 Z" style="stroke-width:1.0;stroke:rgb(156,188,188);stroke-linecap:round;fill:rgb(156,188,188);" />
<path d="M2548.661,1624.280 A1056.000,1056.000 40.000 0,1 2547.115,1636.701 L2494.759,1629.866 A1003.200,1003.200 0.000 0,0 2496.228,1618.066 Z" style="stroke-width:1.0;stroke:rgb(156,188,188);stroke-linecap:round;fill:rgb(156,188,188);" />
<path d="M692.546,2180.554 A1056.000,1056.000 40.000 0,1 684.611,2171.027 L725.380,2137.475 A1003.200,1003.200 0.000 0,0 732.919,2146.527 Z" style="stroke-width:1.0;stroke:rgb(156,188,188);stroke-linecap:round;fill:rgb(156,188,188);" />
<path d="M709.839,2200.558 A1056.000,1056.000 40.000 0,1 702.282,2191.941 L742.168,2157.344 A1003.200,1003.200 0.000 0,0 749.347,2165.530 Z" style="stroke-width:1.0;stroke:rgb(156,188,188);stroke-linecap:round;fill:rgb(156,188,188);" />
<path d="M841.459,2325.506 A1056.000,1056.000 40.000 0,1 832.619,2318.375 L865.988,2277.456 A1003.200,1003.200 0.000 0,0 874.386,2284.230 Z" style="stroke-width:1.0;stroke:rgb(156,188,188);stroke-linecap:round;fill:rgb(156,188,188);" />
<path d="M1207.883,2514.792 A1056.000,1056.000 40.000 0,1 1197.126,2511.634 L1212.270,2461.052 A1003.200,1003.200 0.000 0,0 1222.489,2464.053 Z" style="stroke-width:1.0;stroke:rgb(156,188,188);stroke-linecap:round;fill:rgb(156,188,188);" />
<path d="M1324.232,458.731 A1056.000,1056.000 40.000 0,1 1334.774,457.006 L1343.036,509.156 A1003.200,1003.200 0.000 0,0 1333.020,510.794 Z" style="stroke-width:1.0;stroke:rgb(156,188,188);stroke-linecap:round;fill:rgb(156,188,188);" />
<path d="M1645.540,454.077 A1056.000,1056.000 40.000 0,1 1655.184,455.465 L1647.425,507.692 A1003.200,1003.200 0.000 0,0 1638.263,506.374 Z" style="stroke-width:1.0;stroke:rgb(156,188,188);stroke-linecap:round;fill:rgb(156,188,188);" />
<path d="M1407.960,2551.981 A1056.000,1056.000 40.000 0,1 1398.521,2551.113 L1403.594,2498.557 A1003.200,1003.200 0.000 0,0 1412.562,2499.382 Z" style="stroke-width:1.0;stroke:rgb(156,188,188);stroke-linecap:round;fill:rgb(156,188,188);" />
<path d="M858.819,2339.061 A1056.000,1056.000 40.000 0,1 851.556,2333.460 L883.978,2291.787 A1003.200,1003.200 0.000 0,0 890.878,2297.108 Z" style="stroke-width:1.0;stroke:rgb(156,188,188);stroke-linecap:round;fill:rgb(156,188,188);" />
<path d="M725.329,2217.649 A1056.000,1056.000 40.000 0,1 719.135,2210.905 L758.179,2175.360 A1003.200,1003.200 0.000 0,0 764.062,2181.767 Z" style="stroke-width:1.0;stroke:rgb(156,188,188);stroke-linecap:round;fill:rgb(156,188,188);" />
<path d="M768.010,2261.135 A1056.000,1056.000 40.000 0,1 761.512,2254.832 L798.436,2217.090 A1003.200,1003.200 0.000 0,0 804.610,2223.079 Z" style="stroke-width:1.0;stroke:rgb(156,188,188);stroke-linecap:round;fill:rgb(156,188,188);" />
<path d="M2542.081,1670.888 A1056.000,1056.000 40.000 0,1 2540.837,1678.312 L2488.795,1669.396 A1003.200,1003.200 0.000 0,0 2489.977,1662.344 Z" style="stroke-width:1.0;stroke:rgb(156,188,188);stroke-linecap:round;fill:rgb(156,188,188);" />
<path d="M658.674,2138.206 A1056.000,1056.000 40.000 0,1 654.199,2132.263 L696.489,2100.649 A1003.200,1003.200 0.000 0,0 700.740,2106.295 Z" style="stroke-width:1.0;stroke:rgb(156,188,188);stroke-linecap:round;fill:rgb(156,188,188);" />
<path d="M1413.122,447.580 A1056.000,1056.000 40.000 0,1 1420.333,447.009 L1424.317,499.659 A1003.200,1003.200 0.000 0,0 1417.466,500.201 Z" style="stroke-width:1.0;stroke:rgb(156,188,188);stroke-linecap:round;fill:rgb(156,188,188);" />
<path d="M669.133,2151.764 A1056.000,1056.000 40.000 0,1 664.823,2146.231 L706.582,2113.920 A1003.200,1003.200 0.000 0,0 710.677,2119.176 Z" style="stroke-width:1.0;stroke:rgb(156,188,188);stroke-linecap:round;fill:rgb(156,188,188);" />
<path d="M745.652,2238.983 A1056.000,1056.000 40.000 0,1 741.026,2234.230 L778.974,2197.519 A1003.200,1003.200 0.000 0,0 783.370,2202.033 Z" style="stroke-width:1.0;stroke:rgb(156,188,188);stroke-linecap:round;fill:rgb(156,188,188);" />
<path d="M2492.544,1139.455 A1056.000,1056.000 40.000 0,1 2494.769,1145.641 L2445.031,1163.359 A1003.200,1003.200 0.000 0,0 2442.917,1157.483 Z" style="stroke-width:1.0;stroke:rgb(156,188,188);stroke-linecap:round;fill:rgb(156,188,188);" />
<path d="M2315.787,829.457 A1056.000,1056.000 40.000 0,1 2319.908,834.503 L2278.913,867.777 A1003.200,1003.200 0.000 0,0 2274.997,862.984 Z" style="stroke-width:1.0;stroke:rgb(156,188,188);stroke-linecap:round;fill:rgb(156,188,188);" />
<path d="M2514.024,1205.226 A1056.000,1056.000 40.000 0,1 2515.807,1211.432 L2465.017,1225.860 A1003.200,1003.200 0.000 0,0 2463.323,1219.965 Z" style="stroke-width:1.0;stroke:rgb(156,188,188);stroke-linecap:round;fill:rgb(156,188,188);" />
<path d="M646.712,2122.122 A1056.000,1056.000 40.000 0,1 643.156,2117.215 L685.998,2086.354 A1003.200,1003.200 0.000 0,0 689.376,2091.016 Z" style="stroke-width:1.0;stroke:rgb(156,188,188);stroke-linecap:round;fill:rgb(156,188,188);" />
<path d="M985.569,2422.224 A1056.000,1056.000 40.000 0,1 980.298,2419.264 L1006.283,2373.300 A1003.200,1003.200 0.000 0,0 1011.291,2376.113 Z" style="stroke-width:1.0;stroke:rgb(156,188,188);stroke-linecap:round;fill:rgb(156,188,188);" />
<path d="M674.889,2159.036 A1056.000,1056.000 40.000 0,1 671.184,2154.370 L712.625,2121.652 A1003.200,1003.200 0.000 0,0 716.145,2126.084 Z" style="stroke-width:1.0;stroke:rgb(156,188,188);stroke-linecap:round;fill:rgb(156,188,188);" />
<path d="M1345.972,455.294 A1056.000,1056.000 40.000 0,1 1351.854,454.443 L1359.262,506.721 A1003.200,1003.200 0.000 0,0 1353.674,507.529 Z" style="stroke-width:1.0;stroke:rgb(156,188,188);stroke-linecap:round;fill:rgb(156,188,188);" />
<path d="M877.168,2352.770 A1056.000,1056.000 40.000 0,1 872.780,2349.548 L904.141,2307.070 A1003.200,1003.200 0.000 0,0 908.310,2310.132 Z" style="stroke-width:1.0;stroke:rgb(156,188,188);stroke-linecap:round;fill:rgb(156,188,188);" />
<path d="M893.154,2364.219 A1056.000,1056.000 40.000 0,1 888.755,2361.113 L919.317,2318.057 A1003.200,1003.200 0.000 0,0 923.497,2321.008 Z" style="stroke-width:1.0;stroke:rgb(156,188,188);stroke-linecap:round;fill:rgb(156,188,188);" />
<path d="M2348.392,871.218 A1056.000,1056.000 40.000 0,1 2351.535,875.481 L2308.959,906.707 A1003.200,1003.200 0.000 0,0 2305.972,902.657 Z" style="stroke-width:1.0;stroke:rgb(156,188,188);stroke-linecap:round;fill:rgb(156,188,188);" />
<path d="M685.404,2171.989 A1056.000,1056.000 40.000 0,1 682.406,2168.338 L723.285,2134.921 A1003.200,1003.200 0.000 0,0 726.134,2138.390 Z" style="stroke-width:1.0;stroke:rgb(156,188,188);stroke-linecap:round;fill:rgb(156,188,188);" />
<path d="M1390.519,2550.309 A1056.000,1056.000 40.000 0,1 1388.418,2550.088 L1393.997,2497.584 A1003.200,1003.200 0.000 0,0 1395.994,2497.794 Z" style="stroke-width:1.0;stroke:rgb(156,188,188);stroke-linecap:round;fill:rgb(156,188,188);" />
<path d="M2064.208,607.361 A1056.000,1056.000 40.000 0,1 2065.436,608.138 L2037.164,652.731 A1003.200,1003.200 0.000 0,0 2035.998,651.993 Z" style="stroke-width:1.0;stroke:rgb(156,188,188);stroke-linecap:round;fill:rgb(156,188,188);" />
</g>
<defs>
<pattern id="checker" width="10" height="10" patternTransform="rotate(45 0 0)" patternUnits="userSpaceOnUse"><line x1="0" y1="0" x2="10" y2="0" style="stroke:black;stroke-width:5" /><line x1="0" y1="0" x2="0" y2="10" style="stroke:black;stroke-width:4" /></pattern>
<pattern id="vline-sparse" width="10" height="10" patternTransform="rotate(0 0 0)" patternUnits="userSpaceOnUse"><line x1="0" y1="0" x2="0" y2="10" style="stroke:black;stroke-width:2" /></pattern>
<pattern id="vline" width="10" height="10" patternTransform="rotate(0 0 0)" patternUnits="userSpaceOnUse"><line x1="0" y1="0" x2="0" y2="10" style="stroke:black;stroke-width:5" /></pattern>
<pattern id="hline-sparse" width="10" height="10" patternTransform="rotate(0 0 0)" patternUnits="userSpaceOnUse"><line x1="0" y1="0" x2="10" y2="0" style="stroke:black;stroke-width:2" /></pattern>
<pattern id="hline" width="10" height="10" patternTransform="rotate(0 0 0)" patternUnits="userSpaceOnUse"><line x1="0" y1="0" x2="10" y2="0" style="stroke:black;stroke-width:5" /></pattern>
<pattern id="checker" width="10" height="10" patternTransform="rotate(45 0 0)" patternUnits="userSpaceOnUse"><line x1="0" y1="0" x2="10" y2="0" style="stroke:black;stroke-width:2" /><line x1="0" y1="0" x2="0" y2="10" style="stroke:black;stroke-width:2" /></pattern>
</defs>
</svg>
